<svg width="100%" viewBox="0 0 1120 400">
  <g id="font_7" >
    <g id="bg" class="grid" transform="translate(-20 -20)">
      <path id="Path_1" data-name="Path 1" d="M16,0H120V120H0V16A16,16,0,0,1,16,0Z" transform="translate(40 40)" fill="#fff" stroke="#ddd" stroke-width="1"/>
      <rect id="Rectangle_22" data-name="Rectangle 22" width="120" height="120" transform="translate(40 160)" fill="#fff" stroke="#ddd" stroke-width="1"/>
      <path id="Rectangle_33" data-name="Rectangle 33" d="M0,0H120a0,0,0,0,1,0,0V120a0,0,0,0,1,0,0H16A16,16,0,0,1,0,104V0A0,0,0,0,1,0,0Z" transform="translate(40 280)" fill="#fff" stroke="#ddd" stroke-width="1"/>
      <rect id="Rectangle_2" data-name="Rectangle 2" width="120" height="120" transform="translate(160 40)" fill="#fff" stroke="#ddd" stroke-width="1"/>
      <rect id="Rectangle_20" data-name="Rectangle 20" width="120" height="120" transform="translate(160 160)" fill="#fff" stroke="#ddd" stroke-width="1"/>
      <rect id="Rectangle_31" data-name="Rectangle 31" width="120" height="120" transform="translate(160 280)" fill="#fff" stroke="#ddd" stroke-width="1"/>
      <rect id="Rectangle_3" data-name="Rectangle 3" width="120" height="120" transform="translate(160 40)" fill="#fff" stroke="#ddd" stroke-width="1"/>
      <rect id="Rectangle_21" data-name="Rectangle 21" width="120" height="120" transform="translate(160 160)" fill="#fff" stroke="#ddd" stroke-width="1"/>
      <rect id="Rectangle_32" data-name="Rectangle 32" width="120" height="120" transform="translate(160 280)" fill="#fff" stroke="#ddd" stroke-width="1"/>
      <rect id="Rectangle_4" data-name="Rectangle 4" width="120" height="120" transform="translate(280 40)" fill="#fff" stroke="#ddd" stroke-width="1"/>
      <rect id="Rectangle_19" data-name="Rectangle 19" width="120" height="120" transform="translate(280 160)" fill="#fff" stroke="#ddd" stroke-width="1"/>
      <rect id="Rectangle_30" data-name="Rectangle 30" width="120" height="120" transform="translate(280 280)" fill="#fff" stroke="#ddd" stroke-width="1"/>
      <rect id="Rectangle_5" data-name="Rectangle 5" width="120" height="120" transform="translate(400 40)" fill="#fff" stroke="#ddd" stroke-width="1"/>
      <rect id="Rectangle_18" data-name="Rectangle 18" width="120" height="120" transform="translate(400 160)" fill="#fff" stroke="#ddd" stroke-width="1"/>
      <rect id="Rectangle_29" data-name="Rectangle 29" width="120" height="120" transform="translate(400 280)" fill="#fff" stroke="#ddd" stroke-width="1"/>
      <rect id="Rectangle_6" data-name="Rectangle 6" width="120" height="120" transform="translate(520 40)" fill="#fff" stroke="#ddd" stroke-width="1"/>
      <rect id="Rectangle_13" data-name="Rectangle 13" width="120" height="120" transform="translate(520 160)" fill="#fff" stroke="#ddd" stroke-width="1"/>
      <rect id="Rectangle_24" data-name="Rectangle 24" width="120" height="120" transform="translate(520 280)" fill="#fff" stroke="#ddd" stroke-width="1"/>
      <rect id="Rectangle_7" data-name="Rectangle 7" width="120" height="120" transform="translate(640 40)" fill="#fff" stroke="#ddd" stroke-width="1"/>
      <rect id="Rectangle_14" data-name="Rectangle 14" width="120" height="120" transform="translate(640 160)" fill="#fff" stroke="#ddd" stroke-width="1"/>
      <rect id="Rectangle_25" data-name="Rectangle 25" width="120" height="120" transform="translate(640 280)" fill="#fff" stroke="#ddd" stroke-width="1"/>
      <rect id="Rectangle_8" data-name="Rectangle 8" width="120" height="120" transform="translate(760 40)" fill="#fff" stroke="#ddd" stroke-width="1"/>
      <rect id="Rectangle_15" data-name="Rectangle 15" width="120" height="120" transform="translate(760 160)" fill="#fff" stroke="#ddd" stroke-width="1"/>
      <rect id="Rectangle_26" data-name="Rectangle 26" width="120" height="120" transform="translate(760 280)" fill="#fff" stroke="#ddd" stroke-width="1"/>
      <rect id="Rectangle_9" data-name="Rectangle 9" width="120" height="120" transform="translate(880 40)" fill="#fff" stroke="#ddd" stroke-width="1"/>
      <rect id="Rectangle_16" data-name="Rectangle 16" width="120" height="120" transform="translate(880 160)" fill="#fff" stroke="#ddd" stroke-width="1"/>
      <rect id="Rectangle_27" data-name="Rectangle 27" width="120" height="120" transform="translate(880 280)" fill="#fff" stroke="#ddd" stroke-width="1"/>
      <path id="Rectangle_10" data-name="Rectangle 10" d="M0,0H104a16,16,0,0,1,16,16V120a0,0,0,0,1,0,0H0a0,0,0,0,1,0,0V0A0,0,0,0,1,0,0Z" transform="translate(1000 40)" fill="#fff" stroke="#ddd" stroke-width="1"/>
      <rect id="Rectangle_17" data-name="Rectangle 17" width="120" height="120" transform="translate(1000 160)" fill="#fff" stroke="#ddd" stroke-width="1"/>
      <path id="Rectangle_28" data-name="Rectangle 28" d="M0,0H120a0,0,0,0,1,0,0V104a16,16,0,0,1-16,16H0a0,0,0,0,1,0,0V0A0,0,0,0,1,0,0Z" transform="translate(1000 280)" fill="#fff" stroke="#ddd" stroke-width="1"/>
    </g>
    <g id="Group_5" class="glyphs" data-name="Group 5">
      <path id="Path_181" data-name="Path 181" d="M17.56-1.12l6.8-21.04a1.255,1.255,0,0,0-.64-1.68L6.2-36.56-.44-57.04a1.3,1.3,0,0,0-1.52-1.12H-24.12c-.88,0-1.28.24-1.52,1.04l-6.8,21.04c-.24.8-.24.08,0,.88l6.8,21.04a1.7,1.7,0,0,0,2,1.04,1.7,1.7,0,0,0,1.04-2l-5.28-16.32,13.52,9.84L-7.72-1.12A1.671,1.671,0,0,0-5.72,0,1.552,1.552,0,0,0-4.6-1.92l-6.48-19.92,16-11.68L21-21.84,14.52-1.92A1.461,1.461,0,0,0,15.48,0a1.618,1.618,0,0,0,2-1.04ZM3-36.16l-16,11.6-16-11.6,6.08-18.8H-3.16Z" transform="translate(80 107)"/>
      <path id="Path_182" data-name="Path 182" d="M-17.88-22.16l5.36,16.4L-26.44-15.92a1.544,1.544,0,0,0-2.16.4,1.565,1.565,0,0,0,.32,2.24L-10.36-.32c.72.56.08.32.96.32H12.68c.88,0,1.28-.24,1.52-1.04l6.88-21.04a1.255,1.255,0,0,0-.64-1.68L3-36.48-2.12-52.32,11.72-42.24a1.465,1.465,0,0,0,2.16-.32,1.565,1.565,0,0,0-.32-2.24L-4.36-57.84a1.46,1.46,0,0,0-1.92,0,1.371,1.371,0,0,0-.64,1.76L-.04-35.04c.24.8-.16.24.56.72L17.48-22,11.4-3.2H-8.44l-6.48-19.92a1.567,1.567,0,0,0-1.92-1.04A1.7,1.7,0,0,0-17.88-22.16Z" transform="translate(80 224)"/>
      <path id="Path_183" data-name="Path 183" d="M16.92-44.96-.92-58c-.72-.48-.08-.24-.96-.24H-24.04c-.88,0-1.28.24-1.52,1.04l-6.8,21.04c-.24.8-.24.08,0,.88l6.8,21.04c.32.8-.08.24.64.72L-7.08-.56c.72.56.08.32.96.32H16.04c.88,0,1.28-.24,1.52-1.04l6.8-21.04A1.255,1.255,0,0,0,23.72-24L6.2-36.72,1.08-52.56,15-42.48a1.465,1.465,0,0,0,2.16-.32,1.653,1.653,0,0,0-.4-2.24ZM-27.96-31.52l13.92,10.08a1.379,1.379,0,0,0,1.92.08L4.84-33.68,20.92-22,14.76-3.2H-5.64L-22.76-15.6l-5.12-15.84Zm24.8-23.52L3-36.24l-16,11.6-16-11.6,6.08-18.8Z" transform="translate(80 341)"/>
      <path id="Path_173" data-name="Path 173" d="M6.28-36.64,1.16-52.48,15.08-42.4a1.465,1.465,0,0,0,2.16-.32,1.653,1.653,0,0,0-.4-2.24L-1-58c-.72-.48-.08-.24-.96-.24H-24.12c-.88,0-1.28.24-1.52,1.04l-6.8,21.04a1.255,1.255,0,0,0,.64,1.68l17.52,12.72L-9.16-5.92-23.08-16.08a1.544,1.544,0,0,0-2.16.4,1.653,1.653,0,0,0,.4,2.24L-7-.48c.72.56.08.32.96.32H16.12C17-.16,17.4-.4,17.64-1.2l6.8-21.04a1.255,1.255,0,0,0-.64-1.68Zm-19.2,12-16-11.6,6.08-18.8H-3.08l6.16,18.8ZM-11.08-22l16-11.68L21-22,14.84-3.2H-4.92Z" transform="translate(200 107)"/>
      <path id="Path_171" data-name="Path 171" d="M-16.52-57.12-23.4-36.08c-.24.8-.24.08,0,.88l6.48,19.92L-33.88-2.96a1.544,1.544,0,0,0-.4,2.16,1.544,1.544,0,0,0,2.16.4l17.84-12.96a1.371,1.371,0,0,0,.64-1.76L-19-31.44-5.08-21.36a1.379,1.379,0,0,0,1.92.08L14.68-34.24A1.371,1.371,0,0,0,15.32-36L9.96-52.4,23.88-42.32a1.465,1.465,0,0,0,2.16-.32,1.653,1.653,0,0,0-.4-2.24L7.72-57.92a1.46,1.46,0,0,0-1.92,0,1.371,1.371,0,0,0-.64,1.76l6.48,19.92-16,11.6-16-11.6,6.48-19.92a1.567,1.567,0,0,0-1.04-1.92,1.515,1.515,0,0,0-2,.96ZM24.6-3.2H3.64L-2.84-23.12a1.567,1.567,0,0,0-1.92-1.04,1.671,1.671,0,0,0-1.12,2L.92-1.12A1.415,1.415,0,0,0,2.52,0H24.68a1.6,1.6,0,0,0,1.6-1.6,1.6,1.6,0,0,0-1.6-1.6Z" transform="translate(200 224)"/>
      <path id="Path_172" data-name="Path 172" d="M-24-55.04H-3.04l6.08,18.8L-13.92-23.92a1.418,1.418,0,0,0-.56,1.76L-7.6-1.12A1.552,1.552,0,0,0-5.68,0,1.567,1.567,0,0,0-4.64-1.92l-6.48-19.92L5.84-34.16a1.371,1.371,0,0,0,.64-1.76L1.2-52.32,15.04-42.24a1.465,1.465,0,0,0,2.16-.32,1.565,1.565,0,0,0-.32-2.24L-1.04-57.84c-.72-.48-.08-.24-.96-.24H-24.08a1.6,1.6,0,0,0-1.6,1.6,1.6,1.6,0,0,0,1.6,1.6Z" transform="translate(200 341)"/>
      <path id="Path_174" data-name="Path 174" d="M21.32-23.12,14.84-3.2H-5.56L-22.68-15.6-27.8-31.44l13.92,10.08a1.465,1.465,0,0,0,2.16-.32,1.653,1.653,0,0,0-.4-2.24L-29-36.24l6.08-18.8H-3.16L3.32-35.12a1.7,1.7,0,0,0,2,1.04,1.7,1.7,0,0,0,1.04-2L1.08-52.48,15-42.4a1.465,1.465,0,0,0,2.16-.32,1.653,1.653,0,0,0-.4-2.24L-1.08-58c-.72-.48-.08-.24-.96-.24H-24.2c-.88,0-1.28.24-1.52,1.04l-6.8,21.04c-.24.8-.24.08,0,.88l6.8,21.04c.32.8-.08.24.64.72L-7.24-.56c.72.56.08.32.96.32H15.88c.88,0,1.28-.24,1.52-1.04l6.8-21.04a1.567,1.567,0,0,0-1.04-1.92,1.567,1.567,0,0,0-1.92,1.04Z" transform="translate(320 107)"/>
      <path id="Path_169" data-name="Path 169" d="M-22.12-57.12l-6.8,21.04a1.255,1.255,0,0,0,.64,1.68l17.52,12.72L-5.64-5.84-19.56-16a1.544,1.544,0,0,0-2.16.4,1.653,1.653,0,0,0,.4,2.24L-3.48-.4c.72.56.08.32.96.32H19.64a1.6,1.6,0,0,0,1.6-1.6,1.6,1.6,0,0,0-1.6-1.6H-1.32L-7.8-23.2c-.32-.8.08-.24-.64-.72L-25.32-36.24l6.4-19.92a1.461,1.461,0,0,0-.96-1.92,1.515,1.515,0,0,0-2,.96Z" transform="translate(320 224)"/>
      <path id="Path_170" data-name="Path 170" d="M-2.84-55.36,14.68-42.64,19.8-26.8,5.88-36.88a1.465,1.465,0,0,0-2.16.32,1.653,1.653,0,0,0,.4,2.24L21.08-22,14.92-3.2H-5.48L-22.6-15.6l-5.12-15.84L-13.8-21.36a1.465,1.465,0,0,0,2.16-.32,1.653,1.653,0,0,0-.4-2.24L-28.92-36.24l6.4-19.92a1.461,1.461,0,0,0-.96-1.92,1.515,1.515,0,0,0-2,.96l-6.8,21.04c-.24.8-.24.08,0,.88l6.8,21.04c.32.8-.08.24.64.72L-7-.48c.72.56.08.32.96.32H16.12C17-.16,17.4-.4,17.64-1.2l6.8-21.04c.24-.8.24-.08,0-.88l-6.8-21.04c-.32-.88.08-.32-.64-.8L-.84-58A1.544,1.544,0,0,0-3-57.6a1.565,1.565,0,0,0,.32,2.24Z" transform="translate(320 341)"/>
      <path id="Path_175" data-name="Path 175" d="M-20.36-15.2-37.32-2.88a1.544,1.544,0,0,0-.4,2.16,1.544,1.544,0,0,0,2.16.4L-18.6-12.64-1.64-.32c.72.56.08.32.96.32H21.48c.88,0,1.28-.24,1.52-1.04l6.8-21.04c.32-.8.32-.08.08-.88L23.08-44c-.32-.88.08-.32-.64-.8L4.52-57.84c-.72-.48-.08-.24-.96-.24H-18.52c-.88,0-1.28.24-1.52,1.04L-26.92-36c-.24.8-.24.08,0,.88l6.48,19.92Zm3.2-.4-5.2-15.84L-8.44-21.36a1.465,1.465,0,0,0,2.16-.32,1.653,1.653,0,0,0-.4-2.24L-23.64-36.24l6.08-18.8H2.28L8.76-35.12c.24.8-.16.24.56.72L26.28-22.08,20.12-3.28H-.28l-17.04-12.4ZM25.08-26.88,11.64-36.72,6.44-52.56l13.52,9.84Z" transform="translate(440 107)"/>
      <path id="Path_159" data-name="Path 159" d="M-29.88-.32l17.92-12.96a1.371,1.371,0,0,0,.64-1.76L-16.6-31.36l13.44,9.84L3.56-1.04A1.552,1.552,0,0,0,5.48.08,1.567,1.567,0,0,0,6.52-1.84L.04-21.76l16-11.68,16,11.68L25.56-1.84A1.567,1.567,0,0,0,26.6.08,1.567,1.567,0,0,0,28.52-.96L35.4-22c.24-.8.24-.08,0-.88L28.52-43.92c-.24-.88.16-.32-.56-.8L10.04-57.76a1.46,1.46,0,0,0-1.92,0A1.371,1.371,0,0,0,7.48-56l6.48,19.92-16,11.6-16-11.6L-11.56-56a1.567,1.567,0,0,0-1.04-1.92,1.461,1.461,0,0,0-1.92.96L-21-37.04H-41.96a1.6,1.6,0,0,0-1.6,1.6,1.6,1.6,0,0,0,1.6,1.6H-21l6.08,18.8L-31.88-2.72A1.6,1.6,0,0,0-32.2-.56a1.653,1.653,0,0,0,2.24.4Zm47.2-36.16-5.2-15.84,13.52,9.84,5.12,15.84Z" transform="translate(440 224)"/>
      <path id="Path_160" data-name="Path 160" d="M-25.56-57.12l-6.8,21.04a1.255,1.255,0,0,0,.64,1.68L-14.2-21.68-7.56-1.2a1.671,1.671,0,0,0,2,1.12A1.552,1.552,0,0,0-4.44-2l-6.48-19.92,16-11.68L22.04-21.28a1.465,1.465,0,0,0,2.16-.32,1.565,1.565,0,0,0-.32-2.24L6.36-36.56,1.24-52.4,15.16-42.32a1.465,1.465,0,0,0,2.16-.32,1.653,1.653,0,0,0-.4-2.24L-.92-57.92a1.46,1.46,0,0,0-1.92,0,1.371,1.371,0,0,0-.64,1.76L3-36.24l-16,11.6-16-11.6,6.4-19.92a1.461,1.461,0,0,0-.96-1.92A1.515,1.515,0,0,0-25.56-57.12Z" transform="translate(440 341)"/>
      <path id="Path_176" data-name="Path 176" d="M19.48-3.2H-2.12L-19.24-15.6l-5.12-15.84,13.92,10.08a1.379,1.379,0,0,0,1.92.08L9.4-34.24A1.371,1.371,0,0,0,10.04-36L4.76-52.4,18.68-42.32a1.465,1.465,0,0,0,2.16-.32,1.653,1.653,0,0,0-.4-2.24L2.6-57.92c-.72-.48-.08-.24-.96-.24H-20.52c-.88,0-1.28.24-1.52,1.04l-6.8,21.04c-.24.8-.24.08,0,.88l6.8,21.04c.32.8-.08.24.64.72L-3.56-.48c.72.56.08.32.96.32H19.56a1.6,1.6,0,0,0,1.6-1.6,1.6,1.6,0,0,0-1.6-1.6ZM-25.4-36.4l6.08-18.8H.44L6.6-36.4l-16,11.6Z" transform="translate(560 107)"/>
      <path id="Path_161" data-name="Path 161" d="M-20.36-15.2-37.32-2.88a1.544,1.544,0,0,0-.4,2.16,1.544,1.544,0,0,0,2.16.4l17.84-12.96a1.371,1.371,0,0,0,.64-1.76l-5.36-16.32,13.52,9.84L-2.28-1.04A1.415,1.415,0,0,0-.68.08H21.48c.88,0,1.28-.24,1.52-1.04L29.8-22c.32-.8.32-.08.08-.88l-6.8-21.04a1.671,1.671,0,0,0-2-1.12,1.671,1.671,0,0,0-1.12,2l5.28,16.4L11.32-36.72a1.465,1.465,0,0,0-2.16.32,1.565,1.565,0,0,0,.32,2.24L26.44-21.84,20.28-3.04H.52L-5.96-22.96c-.24-.8.16-.24-.56-.72L-23.48-36-17-55.92a1.567,1.567,0,0,0-1.04-1.92,1.515,1.515,0,0,0-2,.96l-6.88,21.04c-.24.8-.24.08,0,.88l6.48,19.92Z" transform="translate(560 224)"/>
      <path id="Path_162" data-name="Path 162" d="M-37.32-68.4-20.36-56l-6.08,18.8H-47.4A1.6,1.6,0,0,0-49-35.6,1.6,1.6,0,0,0-47.4-34h20.96l6.08,18.8L-37.32-2.88a1.6,1.6,0,0,0-.32,2.16,1.653,1.653,0,0,0,2.24.4l16.96-12.32L-1.48-.32c.72.56.08.32.96.32H21.56c.88,0,1.28-.24,1.52-1.04l6.88-21.04c.24-.8.24-.08,0-.88L23.48-42.88,40.44-55.2a1.721,1.721,0,0,0,.32-2.24,1.653,1.653,0,0,0-2.24-.4L20.6-44.8a1.255,1.255,0,0,0-.64,1.68l5.28,16.4L11.8-36.56,5.08-57.04a1.3,1.3,0,0,0-1.52-1.12h-21.6L-35.48-70.88a1.544,1.544,0,0,0-2.16.4,1.568,1.568,0,0,0,.4,2.16Zm15.2,37.04L-8.28-21.28a1.379,1.379,0,0,0,1.92.08L10.6-33.52l16,11.68L20.52-3.04H.04L-17-15.44l-5.12-15.84Zm4.88-23.52H2.6l6.08,18.8-16,11.6-16-11.6Z" transform="translate(560 341)"/>
      <path id="Path_177" data-name="Path 177" d="M-21.48-13.28-3.64-.32A1.465,1.465,0,0,0-1.48-.64,1.565,1.565,0,0,0-1.8-2.88L-19.32-15.6l-5.12-15.84,13.92,10.08a1.379,1.379,0,0,0,1.92.08L9.32-34.24A1.371,1.371,0,0,0,9.96-36L4.68-52.4,18.6-42.32a1.465,1.465,0,0,0,2.16-.32,1.653,1.653,0,0,0-.4-2.24L2.52-57.92c-.72-.48-.08-.24-.96-.24H-20.6c-.88,0-1.28.24-1.52,1.04l-6.8,21.04c-.24.8-.24.08,0,.88l6.8,21.04c.32.8-.08.24.64.72Zm-4-23.12,6.08-18.8H.36L6.52-36.4l-16,11.6Z" transform="translate(680 107)"/>
      <path id="Path_163" data-name="Path 163" d="M-26.84-35.12l6.48,19.92L-37.32-2.88a1.544,1.544,0,0,0-.4,2.16,1.544,1.544,0,0,0,2.16.4L-18.6-12.64-1.64-.32c.72.56.08.32.96.32H21.48c.88,0,1.28-.24,1.52-1.04l6.8-21.04c.32-.8.32-.08.08-.88L23.08-44c-.32-.88.08-.32-.64-.8L4.52-57.84c-.72-.48-.08-.24-.96-.24H-18.52c-.88,0-1.28.24-1.52,1.04L-26.92-36c-.24.8-.24.08,0,.88Zm4.48,3.68L-8.44-21.36a1.465,1.465,0,0,0,2.16-.32,1.653,1.653,0,0,0-.4-2.24L-23.64-36.24l6.08-18.8H2.28L8.76-35.12a1.567,1.567,0,0,0,1.92,1.04,1.7,1.7,0,0,0,1.04-2L6.36-52.48l13.52,9.84,6.48,20L20.04-3.2H-.36L-17.4-15.6l-5.2-15.84Z" transform="translate(680 224)"/>
      <path id="Path_164" data-name="Path 164" d="M-22.12-57.12l-6.8,21.04a1.255,1.255,0,0,0,.64,1.68l17.52,12.72L-5.64-5.84-19.56-16a1.544,1.544,0,0,0-2.16.4,1.653,1.653,0,0,0,.4,2.24L-3.48-.4c.72.56.08.32.96.32H19.64a1.6,1.6,0,0,0,1.6-1.6,1.6,1.6,0,0,0-1.6-1.6H-1.32l-6.16-18.8L9.48-34.4a1.371,1.371,0,0,0,.64-1.76L4.84-52.56,18.76-42.48a1.465,1.465,0,0,0,2.16-.32,1.653,1.653,0,0,0-.4-2.24L2.68-58.08a1.46,1.46,0,0,0-1.92,0,1.371,1.371,0,0,0-.64,1.76L6.6-36.4l-16,11.6-16-11.6L-19-56.32a1.461,1.461,0,0,0-.96-1.92,1.515,1.515,0,0,0-2,.96Z" transform="translate(680 341)"/>
      <path id="Path_178" data-name="Path 178" d="M11.88-36.64,6.68-52.48,20.6-42.4a1.465,1.465,0,0,0,2.16-.32,1.653,1.653,0,0,0-.4-2.24L4.44-58c-.72-.48-.08-.24-.96-.24H-18.6c-.88,0-1.28.24-1.52,1.04L-27-36.16c-.24.8-.24.08,0,.88l6.48,19.92L-37.48-3.04a1.544,1.544,0,0,0-.4,2.16,1.544,1.544,0,0,0,2.16.4L-18.76-12.8-1.8-.48c.72.56.08.32.96.32H21.32c.88,0,1.28-.24,1.52-1.04l6.8-21.04a1.165,1.165,0,0,0-.56-1.68L11.64-36.64ZM-6.68-21.36,10.28-33.68,26.28-22,20.12-3.2H-.28L-17.32-15.6l-5.2-15.84L-8.6-21.36a1.379,1.379,0,0,0,1.92.08Zm-.96-3.2-16-11.6,6.08-18.8H2.28l6.08,18.8Z" transform="translate(800 107)"/>
      <path id="Path_165" data-name="Path 165" d="M-31.8-34.32-14.28-21.6-9.16-5.76-23.08-15.92a1.544,1.544,0,0,0-2.16.4,1.653,1.653,0,0,0,.4,2.24L-7-.32a1.379,1.379,0,0,0,1.92.08,1.255,1.255,0,0,0,.64-1.68l-6.48-19.92,16-11.68L22.04-21.2a1.465,1.465,0,0,0,2.16-.32,1.565,1.565,0,0,0-.32-2.24L6.36-36.48,1.24-52.32,15.16-42.24a1.465,1.465,0,0,0,2.16-.32,1.653,1.653,0,0,0-.4-2.24L-.92-57.84c-.72-.48-.08-.24-.96-.24H-24.04c-.88,0-1.28.24-1.52,1.04L-32.36-36a1.255,1.255,0,0,0,.64,1.68Zm2.96-1.92,6.08-18.8H-3l6.16,18.8-16,11.6Z" transform="translate(800 224)"/>
      <path id="Path_166" data-name="Path 166" d="M-22.12-57.12l-6.8,21.04a1.255,1.255,0,0,0,.64,1.68l17.52,12.72L-4.12-1.2a1.671,1.671,0,0,0,2,1.12A1.552,1.552,0,0,0-1-2L-7.48-21.92,9.48-34.24A1.371,1.371,0,0,0,10.12-36L4.84-52.4,18.76-42.32a1.465,1.465,0,0,0,2.16-.32,1.653,1.653,0,0,0-.4-2.24L2.68-57.92a1.46,1.46,0,0,0-1.92,0,1.371,1.371,0,0,0-.64,1.76L6.6-36.24l-16,11.6-16-11.6L-19-56.16a1.461,1.461,0,0,0-.96-1.92,1.515,1.515,0,0,0-2,.96Z" transform="translate(800 341)"/>
      <path id="Path_179" data-name="Path 179" d="M-20.28-57.12a1.515,1.515,0,0,1,2-.96,1.567,1.567,0,0,1,1.04,1.92l-6.48,19.92L-6.76-23.92a1.653,1.653,0,0,1,.4,2.24,1.465,1.465,0,0,1-2.16.32L-22.44-31.44l5.36,16.32a1.371,1.371,0,0,1-.64,1.76L-35.56-.4a1.544,1.544,0,0,1-2.16-.4,1.544,1.544,0,0,1,.4-2.16l16.96-12.32L-26.84-35.2c-.24-.8-.24-.08,0-.88l6.88-21.04Zm11.6,35.76L-26.6-34.32a1.544,1.544,0,0,0,2.16-.4,1.565,1.565,0,0,0-.32-2.24L-7.8-24.72,9.16-36.96a1.46,1.46,0,0,0,1.92,0L25-26.88l-5.28-16.4a1.552,1.552,0,0,0,1.92,1.12,1.552,1.552,0,0,0,1.12-1.92l6.8,21.04c-.24.88-.24.16,0,.96L22.76-1.04c-.88,0-1.28.24-1.52,1.04H-.92A1.6,1.6,0,0,0,.68-1.6,1.6,1.6,0,0,0-.92-3.2H20.04L26.2-22,9.24-34.32a1.544,1.544,0,0,0,2.16-.4,1.653,1.653,0,0,0-.4-2.24L28.92-24a1.544,1.544,0,0,0-2.16.4,1.568,1.568,0,0,0,.4,2.16L10.2-33.76-6.76-21.44a1.46,1.46,0,0,0-1.92,0Z" transform="translate(920 107)"/>
      <path id="Path_167" data-name="Path 167" d="M-26.84-35.12l6.48,19.92L-37.32-2.88a1.544,1.544,0,0,0-.4,2.16,1.544,1.544,0,0,0,2.16.4L-18.6-12.64-1.64-.32c.72.56.08.32.96.32H21.48c.88,0,1.28-.24,1.52-1.04l6.8-21.04c.32-.8.32-.08.08-.88L23.08-44c-.32-.88.08-.32-.64-.8L4.52-57.84c-.72-.48-.08-.24-.96-.24H-18.52c-.88,0-1.28.24-1.52,1.04L-26.92-36c-.24.8-.24.08,0,.88Zm3.36-1.12,6.08-18.8H2.44L8.92-35.12a1.567,1.567,0,0,0,1.92,1.04,1.7,1.7,0,0,0,1.04-2L6.52-52.48l13.52,9.84,6.48,20L20.2-3.2H.44L-6.04-23.12c-.24-.8.16-.24-.56-.72L-23.56-36.16Zm1.04,4.88,13.52,9.84L-3.8-5.68l-13.44-9.84Z" transform="translate(920 224)"/>
      <path id="Path_158" data-name="Path 158" d="M-24-55.04H-3.04l6.08,18.8L-13.92-23.92a1.418,1.418,0,0,0-.56,1.76l5.36,16.4L-23.04-15.92a1.544,1.544,0,0,0-2.16.4,1.565,1.565,0,0,0,.32,2.24L-6.96-.32c.72.56.08.32.96.32H16.08a1.6,1.6,0,0,0,1.6-1.6,1.6,1.6,0,0,0-1.6-1.6H-4.88L-10.96-22,6-34.32a1.371,1.371,0,0,0,.64-1.76L1.36-52.48,15.2-42.4a1.465,1.465,0,0,0,2.16-.32,1.565,1.565,0,0,0-.32-2.24L-.88-58c-.72-.48-.08-.24-.96-.24H-23.92a1.6,1.6,0,0,0-1.6,1.6,1.6,1.6,0,0,0,1.6,1.6Z" transform="translate(920 341)"/>
      <path id="Path_180" data-name="Path 180" d="M1-2.08-5.48-22,11.48-34.32a1.371,1.371,0,0,0,.64-1.76L5.32-57.12a1.415,1.415,0,0,0-1.6-1.12H-18.36a1.6,1.6,0,0,0-1.6,1.6,1.6,1.6,0,0,0,1.6,1.6H2.6l6.08,18.8L-8.28-23.92a1.418,1.418,0,0,0-.56,1.76L-1.96-1.12A1.552,1.552,0,0,0-.04,0,1.567,1.567,0,0,0,1-1.92Z" transform="translate(1040 107)"/>
      <path id="Path_168" data-name="Path 168" d="M-31.8-34.32-14.28-21.6-9.16-5.76-23.08-15.92a1.544,1.544,0,0,0-2.16.4,1.653,1.653,0,0,0,.4,2.24L-7-.32c.72.56.08.32.96.32H16.12a1.6,1.6,0,0,0,1.6-1.6,1.6,1.6,0,0,0-1.6-1.6H-4.84L-11-22,5-33.68,21.96-21.36a1.465,1.465,0,0,0,2.16-.32,1.565,1.565,0,0,0-.32-2.24L6.28-36.64,1.16-52.48,15.08-42.4a1.465,1.465,0,0,0,2.16-.32,1.653,1.653,0,0,0-.4-2.24L-1-58c-.72-.48-.08-.24-.96-.24H-24.12c-.88,0-1.28.24-1.52,1.04l-6.8,21.04a1.255,1.255,0,0,0,.64,1.68Zm2.88-2.08,6.08-18.8H-3.08L3.08-36.4l-16,11.6Z" transform="translate(1040 224)"/>
    </g>
  </g>
</svg>
