<svg width="100%" viewBox="0 0 1120 400">
  <g id="font_4">
    <g id="bg" class="grid" transform="translate(-20 -20)">
      <path id="Path_1" data-name="Path 1" d="M16,0H120V120H0V16A16,16,0,0,1,16,0Z" transform="translate(40 40)" fill="#fff" stroke="#ddd" stroke-width="1"/>
      <rect id="Rectangle_22" data-name="Rectangle 22" width="120" height="120" transform="translate(40 160)" fill="#fff" stroke="#ddd" stroke-width="1"/>
      <path id="Rectangle_33" data-name="Rectangle 33" d="M0,0H120a0,0,0,0,1,0,0V120a0,0,0,0,1,0,0H16A16,16,0,0,1,0,104V0A0,0,0,0,1,0,0Z" transform="translate(40 280)" fill="#fff" stroke="#ddd" stroke-width="1"/>
      <rect id="Rectangle_2" data-name="Rectangle 2" width="120" height="120" transform="translate(160 40)" fill="#fff" stroke="#ddd" stroke-width="1"/>
      <rect id="Rectangle_20" data-name="Rectangle 20" width="120" height="120" transform="translate(160 160)" fill="#fff" stroke="#ddd" stroke-width="1"/>
      <rect id="Rectangle_31" data-name="Rectangle 31" width="120" height="120" transform="translate(160 280)" fill="#fff" stroke="#ddd" stroke-width="1"/>
      <rect id="Rectangle_3" data-name="Rectangle 3" width="120" height="120" transform="translate(160 40)" fill="#fff" stroke="#ddd" stroke-width="1"/>
      <rect id="Rectangle_21" data-name="Rectangle 21" width="120" height="120" transform="translate(160 160)" fill="#fff" stroke="#ddd" stroke-width="1"/>
      <rect id="Rectangle_32" data-name="Rectangle 32" width="120" height="120" transform="translate(160 280)" fill="#fff" stroke="#ddd" stroke-width="1"/>
      <rect id="Rectangle_4" data-name="Rectangle 4" width="120" height="120" transform="translate(280 40)" fill="#fff" stroke="#ddd" stroke-width="1"/>
      <rect id="Rectangle_19" data-name="Rectangle 19" width="120" height="120" transform="translate(280 160)" fill="#fff" stroke="#ddd" stroke-width="1"/>
      <rect id="Rectangle_30" data-name="Rectangle 30" width="120" height="120" transform="translate(280 280)" fill="#fff" stroke="#ddd" stroke-width="1"/>
      <rect id="Rectangle_5" data-name="Rectangle 5" width="120" height="120" transform="translate(400 40)" fill="#fff" stroke="#ddd" stroke-width="1"/>
      <rect id="Rectangle_18" data-name="Rectangle 18" width="120" height="120" transform="translate(400 160)" fill="#fff" stroke="#ddd" stroke-width="1"/>
      <rect id="Rectangle_29" data-name="Rectangle 29" width="120" height="120" transform="translate(400 280)" fill="#fff" stroke="#ddd" stroke-width="1"/>
      <rect id="Rectangle_6" data-name="Rectangle 6" width="120" height="120" transform="translate(520 40)" fill="#fff" stroke="#ddd" stroke-width="1"/>
      <rect id="Rectangle_13" data-name="Rectangle 13" width="120" height="120" transform="translate(520 160)" fill="#fff" stroke="#ddd" stroke-width="1"/>
      <rect id="Rectangle_24" data-name="Rectangle 24" width="120" height="120" transform="translate(520 280)" fill="#fff" stroke="#ddd" stroke-width="1"/>
      <rect id="Rectangle_7" data-name="Rectangle 7" width="120" height="120" transform="translate(640 40)" fill="#fff" stroke="#ddd" stroke-width="1"/>
      <rect id="Rectangle_14" data-name="Rectangle 14" width="120" height="120" transform="translate(640 160)" fill="#fff" stroke="#ddd" stroke-width="1"/>
      <rect id="Rectangle_25" data-name="Rectangle 25" width="120" height="120" transform="translate(640 280)" fill="#fff" stroke="#ddd" stroke-width="1"/>
      <rect id="Rectangle_8" data-name="Rectangle 8" width="120" height="120" transform="translate(760 40)" fill="#fff" stroke="#ddd" stroke-width="1"/>
      <rect id="Rectangle_15" data-name="Rectangle 15" width="120" height="120" transform="translate(760 160)" fill="#fff" stroke="#ddd" stroke-width="1"/>
      <rect id="Rectangle_26" data-name="Rectangle 26" width="120" height="120" transform="translate(760 280)" fill="#fff" stroke="#ddd" stroke-width="1"/>
      <rect id="Rectangle_9" data-name="Rectangle 9" width="120" height="120" transform="translate(880 40)" fill="#fff" stroke="#ddd" stroke-width="1"/>
      <rect id="Rectangle_16" data-name="Rectangle 16" width="120" height="120" transform="translate(880 160)" fill="#fff" stroke="#ddd" stroke-width="1"/>
      <rect id="Rectangle_27" data-name="Rectangle 27" width="120" height="120" transform="translate(880 280)" fill="#fff" stroke="#ddd" stroke-width="1"/>
      <path id="Rectangle_10" data-name="Rectangle 10" d="M0,0H104a16,16,0,0,1,16,16V120a0,0,0,0,1,0,0H0a0,0,0,0,1,0,0V0A0,0,0,0,1,0,0Z" transform="translate(1000 40)" fill="#fff" stroke="#ddd" stroke-width="1"/>
      <rect id="Rectangle_17" data-name="Rectangle 17" width="120" height="120" transform="translate(1000 160)" fill="#fff" stroke="#ddd" stroke-width="1"/>
      <path id="Rectangle_28" data-name="Rectangle 28" d="M0,0H120a0,0,0,0,1,0,0V104a16,16,0,0,1-16,16H0a0,0,0,0,1,0,0V0A0,0,0,0,1,0,0Z" transform="translate(1000 280)" fill="#fff" stroke="#ddd" stroke-width="1"/>
    </g>
    <g class="glyphs">
    <path id="Path_103" data-name="Path 103" d="M23.52-3.2H8.64L22.16-16.72a1.242,1.242,0,0,0,.32-1.68c-.32-.88-.56-1.04-1.44-1.04H3.68L1.36-34.32c-.08-.8.16.96,0,.08L-1.12-50.4c-.16-.88-.24-1.04-1.04-1.28-.88-.32-1.04-.32-1.68.32L-20.08-35.2c-.64.64-.64.56-.48,1.44l2.4,15.44L-32.72-2.72A1.722,1.722,0,0,0-32.64-.4a1.722,1.722,0,0,0,2.32-.08l14.56-15.76H17.12L3.68-2.72a1.3,1.3,0,0,0-.4,1.76c.32.8.56.96,1.44.96H23.44a1.6,1.6,0,0,0,1.6-1.6,1.6,1.6,0,0,0-1.6-1.6ZM.32-19.44H-15.2l-2.16-14.08L-4-46.88l2.08,13.12Z" transform="translate(80 107)"/>
    <path id="Path_104" data-name="Path 104" d="M-21.76-17.6-19.2-1.36A1.506,1.506,0,0,0-17.6,0H1.12C2,0,1.76.08,2.32-.56s.48-.4.32-1.28L.08-18.08l-2.4-15.44,15.6-15.6a1.642,1.642,0,0,0,0-2.32,1.642,1.642,0,0,0-2.32,0L-5.28-35.28c-.64.64-.64.48-.48,1.36l2.48,16.16h0l2.24,14.4H-16.48L-18.8-18.24a1.561,1.561,0,0,0-1.84-1.28,1.561,1.561,0,0,0-1.28,1.84Z" transform="translate(80 224)"/>
    <path id="Path_105" data-name="Path 105" d="M17.64-34.32,15.08-50.48a1.506,1.506,0,0,0-1.6-1.36H-23.96c-.88,0-.64-.08-1.2.56s-.48.4-.32,1.28l2.56,16.24a1.506,1.506,0,0,0,1.6,1.36H-3.96l2.32,14.8h0L.6-3.2H-14.92l-2.32-14.88A1.449,1.449,0,0,0-19-19.36a1.561,1.561,0,0,0-1.28,1.84L-17.8-1.28A1.506,1.506,0,0,0-16.2.08H2.52c.88,0,.64.08,1.2-.56.64-.64.56-.4.4-1.28L1.56-18-.92-34.24a1.5,1.5,0,0,0-1.6-1.28H-19.88l-2.08-13.04H12.28L14.6-33.68a1.561,1.561,0,0,0,1.84,1.28,1.449,1.449,0,0,0,1.28-1.76Z" transform="translate(80 341)"/>
    <path id="Path_95" data-name="Path 95" d="M.24-33.52l15.6-15.6a1.3,1.3,0,0,0,.4-1.76c-.4-.8-.64-.96-1.52-.96H-22.72c-.88,0-.64-.08-1.2.56s-.48.4-.32,1.28l2.56,16.24c.16.8-.16-.96,0-.08l2.56,16.16,2.48,16.24a1.506,1.506,0,0,0,1.6,1.36H3.68c.88,0,.64.08,1.2-.56.64-.64.56-.4.4-1.28L2.72-18.16.32-33.6ZM-16.48-21.28-18.56-34.4-20.8-48.72H10.96L-2.48-35.28Zm.64,3.92L-2.48-30.72-.4-17.68h0L1.84-3.28H-13.68Z" transform="translate(200 107)"/>
    <path id="Path_93" data-name="Path 93" d="M-19.28-50l2.56,16.24c.16.8-.16-.96,0-.08l2.4,15.44L-28.88-2.8A1.722,1.722,0,0,0-28.8-.48a1.722,1.722,0,0,0,2.32-.08L-11.44-16.8c.56-.64.48-.48.32-1.36l-2.24-14.32H3.52c.88,0,.64.08,1.2-.56.56-.72.48-.48.32-1.36L2.8-48.72H19.68a1.6,1.6,0,0,0,1.6-1.6,1.6,1.6,0,0,0-1.6-1.6H.96c-.88,0-.64-.08-1.2.56-.64.64-.56.4-.4,1.28L1.6-35.68H-13.84l-2.32-14.88A1.561,1.561,0,0,0-18-51.84,1.561,1.561,0,0,0-19.28-50Zm2.56,16.24,2.48,16.16a1.506,1.506,0,0,0,1.6,1.36H4.72L7.04-1.36A1.561,1.561,0,0,0,8.88-.08a1.561,1.561,0,0,0,1.28-1.84L7.6-18.16A1.506,1.506,0,0,0,6-19.52H-11.36L-13.68-34.4a1.567,1.567,0,0,0-1.84-1.2,1.561,1.561,0,0,0-1.28,1.84Z" transform="translate(200 224)"/>
    <path id="Path_94" data-name="Path 94" d="M-22.72-48.64H-5.36l2.32,14.88L-.64-18.4-16.24-2.72a1.642,1.642,0,0,0,0,2.32,1.642,1.642,0,0,0,2.32,0L2.32-16.64c.56-.56.56-.4.4-1.28L.24-34.16c-.16-.8.08.96-.08.08L-2.16-48.4H14.72a1.6,1.6,0,0,0,1.6-1.6,1.6,1.6,0,0,0-1.6-1.6H-22.72a1.6,1.6,0,0,0-1.6,1.6,1.6,1.6,0,0,0,1.6,1.6Z" transform="translate(200 341)"/>
    <path id="Path_96" data-name="Path 96" d="M22.96-18.96,7.28-3.2H-9.44l-2.32-14.88a1.506,1.506,0,0,0-1.6-1.36H-28.24l13.52-13.44c.56-.64.56-.48.4-1.36l-2.24-14.32H17.68L20-33.68a1.561,1.561,0,0,0,1.84,1.28,1.449,1.449,0,0,0,1.28-1.76L20.64-50.32a1.506,1.506,0,0,0-1.6-1.36H-18.4c-.88,0-.64-.08-1.2.56-.64.64-.56.4-.4,1.28l2.4,15.44L-33.2-18.8a1.3,1.3,0,0,0-.4,1.76c.32.8.56.96,1.44.96H-14.8L-12.48-1.2A1.506,1.506,0,0,0-10.88.16H7.84c.88,0,.48.16,1.12-.48L25.12-16.56a1.546,1.546,0,0,0,0-2.24,1.546,1.546,0,0,0-2.24,0Z" transform="translate(320 107)"/>
    <path id="Path_91" data-name="Path 91" d="M-18.76-50l2.56,16.24c.16.8-.16-.96,0-.08l2.56,16.16,2.48,16.24A1.506,1.506,0,0,0-9.56-.08H9.16a1.6,1.6,0,0,0,1.6-1.6,1.6,1.6,0,0,0-1.6-1.6H-8.2l-2.32-14.88h0L-13.08-34.4l-2.48-16.16a1.561,1.561,0,0,0-1.84-1.28A1.561,1.561,0,0,0-18.68-50Z" transform="translate(320 224)"/>
    <path id="Path_92" data-name="Path 92" d="M11.88-50l2.48,15.44L-1.32-18.96c-.64.64-.64.56-.48,1.44L.44-3.12H-15.08L-17.4-18h0l-2.56-16.24L-22.44-50.4a1.561,1.561,0,0,0-1.84-1.28,1.561,1.561,0,0,0-1.28,1.84L-23-33.6c.16.8-.16-.96,0-.08l2.56,16.16,2.48,16.24A1.506,1.506,0,0,0-16.36.08H2.36c.88,0,.64.08,1.2-.56.64-.64.56-.4.4-1.28L1.56-17.2l15.6-15.6c.64-.64.64-.56.48-1.44L15.08-50.4a1.561,1.561,0,0,0-1.84-1.28,1.561,1.561,0,0,0-1.28,1.84Z" transform="translate(320 341)"/>
    <path id="Path_97" data-name="Path 97" d="M-30.24,0c.64-.64.72-.88.4-1.68-.4-.8-.64-.96-1.52-.96l14.56-15.6-2.4-15.44h0l-2.56-16.24c.88,0,.64.08,1.2-.56.56-.72.48-.48.32-1.36H17.2a1.506,1.506,0,0,0,1.6,1.36l2.56,16.16c.08.88-.16-.88,0,0l2.48,16.24c-.88,0-.64-.08-1.2.56-.56.72-.48.48-.32,1.36H5.52L7.76-1.76c-.88,0-.64-.08-1.2.56C5.92-.56,6-.8,6.16.08H-30.16Zm3.76-3.04H4.32L2-17.44c-.16-.88-.24-.64.32-1.36.56-.64.32-.56,1.2-.56H20.4L18.16-33.68,15.84-48.56H-18.4l2.24,14.32L-13.6-18c.16.88.24.72-.32,1.36L-26.48-3.12Z" transform="translate(440 107)"/>
    <path id="Path_82" data-name="Path 82" d="M-24.44-1.92l-3.68-16.24L-31.8-34.4-35-48.64h17.6l2.32,14.88c.16.8-.16-.96,0-.08l2.56,16.16L-9.96-1.44A1.506,1.506,0,0,0-8.36-.08H10.36c.88,0,.64.08,1.2-.56s.48-.4.32-1.28L9.32-18.16,7.08-32.48H22.52l2.32,14.8h0L27.4-1.44A1.561,1.561,0,0,0,29.24-.16,1.561,1.561,0,0,0,30.52-2L27.96-18.24,25.4-34.48c-.08-.8.16.96,0,.08L22.84-50.56a1.449,1.449,0,0,0-1.76-1.28A1.561,1.561,0,0,0,19.8-50l2.24,14.4H5.16c-.88,0-.64-.08-1.2.56s-.48.4-.32,1.28L6.12-17.6h0L8.36-3.2H-7.08L-9.4-18.08h0l-2.56-16.24-2.56-16.16a1.389,1.389,0,0,0-1.52-1.36H-37c-.88,0-.72-.08-1.28.64s-.48.56-.32,1.44l3.68,16.24,3.68,16.24,3.68,16.16a1.768,1.768,0,0,0,2,1.28,1.768,1.768,0,0,0,1.28-2Z" transform="translate(440 224)"/>
    <path id="Path_83" data-name="Path 83" d="M-25.56-50-23-33.76c.16.8-.16-.96,0-.08l2.56,16.16,2.48,16.24a1.506,1.506,0,0,0,1.6,1.36H2.36c.88,0,.64.08,1.2-.56.64-.64.56-.4.4-1.28L1.4-18.16-.84-32.48H16.04c.88,0,.64.08,1.2-.56.56-.72.48-.48.32-1.36L15-50.56a1.561,1.561,0,0,0-1.84-1.28A1.561,1.561,0,0,0,11.88-50L14.2-35.6H-2.68c-.88,0-.64-.08-1.2.56-.64.64-.56.4-.4,1.28L-1.72-17.6h0L.52-3.2H-15l-2.32-14.88h0l-2.56-16.24-2.48-16.16a1.561,1.561,0,0,0-1.84-1.28,1.561,1.561,0,0,0-1.28,1.84Z" transform="translate(440 341)"/>
    <path id="Path_98" data-name="Path 98" d="M3.6-3.2H-13.76l-2.16-14.08L-2.56-30.64-.48-17.6a1.449,1.449,0,0,0,1.76,1.28,1.567,1.567,0,0,0,1.2-1.84L0-34.4c-.16-.8-.24-.96-1.04-1.2-.88-.32-1.04-.32-1.68.32l-14,14L-18.8-34.4l-2.24-14.32h35.6a1.6,1.6,0,0,0,1.6-1.6,1.6,1.6,0,0,0-1.6-1.6H-22.88c-.88,0-.64-.08-1.2.56s-.48.4-.32,1.28l2.56,16.24c.16.8-.16-.96,0-.08l2.56,16.16L-16.8-1.52A1.506,1.506,0,0,0-15.2-.16H3.52a1.6,1.6,0,0,0,1.6-1.6,1.6,1.6,0,0,0-1.6-1.6Z" transform="translate(560 107)"/>
    <path id="Path_84" data-name="Path 84" d="M-30.32-.48l15.04-16.24c.56-.64.48-.48.32-1.36L-17.2-32.4H-1.76L.56-17.6c.24.88-.08-.88.08,0L3.2-1.36A1.506,1.506,0,0,0,4.8,0H23.52c.88,0,.64.08,1.2-.56.64-.64.56-.4.4-1.28L22.56-18.08,20.08-34.32c-.16-.8.08.96-.08.08L17.44-50.4a1.561,1.561,0,0,0-1.84-1.28,1.561,1.561,0,0,0-1.28,1.84L16.88-33.6l2.56,16.16h0l2.24,14.4H6.16L3.84-17.92,1.28-34.16A1.378,1.378,0,0,0-.24-35.44H-17.6l-2.32-14.88a1.561,1.561,0,0,0-1.84-1.28,1.561,1.561,0,0,0-1.28,1.84l2.56,16.24c.16.8-.16-.96,0-.08l2.4,15.44L-32.64-2.56a1.722,1.722,0,0,0,.08,2.32,1.722,1.722,0,0,0,2.32-.08Z" transform="translate(560 224)"/>
    <path id="Path_85" data-name="Path 85" d="M-44.16-49.92l3.68,16.24,3.68,16.24,3.68,16.16A1.491,1.491,0,0,0-31.52,0h17.6c.88,0,.64.08,1.2-.56s.48-.4.32-1.28l-2.48-16.24h0l-2.48-15.44L-3.92-46.88l2.08,13.12L.64-17.6h0L3.2-1.36A1.506,1.506,0,0,0,4.8,0H23.52c.88,0,.64.08,1.2-.56s.48-.4.32-1.28L22.48-18.08l-2.4-15.44,15.6-15.6a1.642,1.642,0,0,0,0-2.32,1.642,1.642,0,0,0-2.32,0L17.12-35.28c-.64.64-.64.48-.48,1.36l2.48,16.16h0l2.32,14.4H5.92L3.6-18.24,1.04-34.48c-.08-.8.16.96,0,.08L-1.52-50.56c-.08-.88-.16-1.04-.96-1.28-.88-.32-1.04-.32-1.68.32L-20.32-35.36c-.64.64-.64.56-.48,1.44l2.56,16.16L-16-3.36H-30.4l-3.44-14.96-3.68-16.24-3.6-16.24a1.789,1.789,0,0,0-2-1.2,1.768,1.768,0,0,0-1.28,2Z" transform="translate(560 341)"/>
    <path id="Path_99" data-name="Path 99" d="M-13.52-1.84l-2.4-15.44L-2.56-30.64-.48-17.6a1.449,1.449,0,0,0,1.76,1.28,1.567,1.567,0,0,0,1.2-1.84L0-34.4c-.16-.8-.24-.96-1.04-1.2-.88-.32-1.04-.32-1.68.32l-14,14L-18.8-34.4l-2.24-14.32h35.6a1.6,1.6,0,0,0,1.6-1.6,1.6,1.6,0,0,0-1.6-1.6H-22.88c-.88,0-.64-.08-1.2.56s-.48.4-.32,1.28l2.56,16.24c.16.8-.16-.96,0-.08l2.56,16.16L-16.8-1.52A1.561,1.561,0,0,0-14.96-.24a1.561,1.561,0,0,0,1.28-1.84Z" transform="translate(680 107)"/>
    <path id="Path_86" data-name="Path 86" d="M-33.2-18.96l15.6-15.6L-20-50c.88,0,.64.08,1.2-.56.56-.72.48-.48.32-1.36H18.96a1.506,1.506,0,0,0,1.6,1.36L23.04-34.4c.16.88-.08-.88.08,0l2.56,16.24c-.64.64-.64.48-.48,1.36L9.04-.56c-.88,0-.48-.16-1.12.48H-10.8a1.506,1.506,0,0,0-1.6-1.36l-2.32-14.88H-32.08a1.3,1.3,0,0,0,.4-1.76c-.32-.8-.56-.96-1.44-.96Zm5.04-.48h14.88a1.506,1.506,0,0,1,1.6,1.36L-9.36-3.2H7.36L22.48-18.4l-2.4-15.36L17.76-48.64H-16.48l2.24,14.32c.16.88.16.72-.4,1.36L-28.16-19.52Z" transform="translate(680 224)"/>
    <path id="Path_87" data-name="Path 87" d="M-24.32-50l2.56,16.24a1.506,1.506,0,0,0,1.6,1.36H-2.8l2,12.96H-17.68c-.88,0-.64-.08-1.2.56-.56.72-.48.48-.32,1.36l2.48,16.24A1.561,1.561,0,0,0-14.88,0,1.561,1.561,0,0,0-13.6-1.84l-2.24-14.4H-.4L1.92-1.36A1.561,1.561,0,0,0,3.76-.08,1.561,1.561,0,0,0,5.04-1.92L2.48-18.16.08-33.6l15.6-15.6a1.642,1.642,0,0,0,0-2.32,1.642,1.642,0,0,0-2.32,0L-2.32-35.76H-19.04l-2.32-14.88a1.561,1.561,0,0,0-1.84-1.28,1.561,1.561,0,0,0-1.28,1.84Z" transform="translate(680 341)"/>
    <path id="Path_100" data-name="Path 100" d="M5.36-16.24H20.24L7.28-3.2H-9.44l-2.32-14.88a1.506,1.506,0,0,0-1.6-1.36H-28.24l13.52-13.44c.56-.64.56-.48.4-1.36l-2.24-14.32H17.68L20-33.68a1.561,1.561,0,0,0,1.84,1.28,1.449,1.449,0,0,0,1.28-1.76L20.64-50.32a1.506,1.506,0,0,0-1.6-1.36H-18.4c-.88,0-.64-.08-1.2.56-.64.64-.56.4-.4,1.28l2.4,15.44L-33.2-18.8a1.3,1.3,0,0,0-.4,1.76c.32.8.56.96,1.44.96H-14.8L-12.48-1.2A1.506,1.506,0,0,0-10.88.16H7.84c.88,0,.48.16,1.12-.48L25.12-16.56a1.19,1.19,0,0,0,.4-1.68c-.32-.88-.56-1.04-1.44-1.04H5.36a1.6,1.6,0,0,0-1.6,1.6,1.6,1.6,0,0,0,1.6,1.6Z" transform="translate(800 107)"/>
    <path id="Path_88" data-name="Path 88" d="M-17-16.24H-.2c.88,0,.64.08,1.2-.56s.48-.4.32-1.28L-.92-32.4H15.96c.88,0,.64.08,1.2-.56.56-.72.48-.48.32-1.36L14.92-50.48a1.506,1.506,0,0,0-1.6-1.36H-24.12c-.88,0-.64-.08-1.2.56s-.48.4-.32,1.28l2.56,16.24c.16.8-.16-.96,0-.08l2.56,16.16,2.48,16.24A1.561,1.561,0,0,0-16.2-.16,1.561,1.561,0,0,0-14.92-2l-2.24-14.4Zm-.64-3.36-2.4-14.88L-22.28-48.8H11.96l2.08,13.04H-2.84c-.88,0-.64-.08-1.2.56-.64.64-.56.4-.4,1.28L-2.2-19.6Z" transform="translate(800 224)"/>
    <path id="Path_80" data-name="Path 80" d="M-24.32-50l2.56,16.24a1.506,1.506,0,0,0,1.6,1.36H-2.8l2.16,14L-16.24-2.72a1.642,1.642,0,0,0,0,2.32,1.642,1.642,0,0,0,2.32,0L2.32-16.64c.56-.56.56-.4.4-1.28L.32-33.36l15.6-15.6a1.642,1.642,0,0,0,0-2.32,1.642,1.642,0,0,0-2.32,0L-2.08-35.52H-18.8L-21.12-50.4a1.561,1.561,0,0,0-1.84-1.28,1.561,1.561,0,0,0-1.28,1.84Z" transform="translate(800 341)"/>
    <path id="Path_101" data-name="Path 101" d="M-19.28-33.76-16.8-17.6c.16.88.24,1.04,1.04,1.28.88.32,1.04.32,1.68-.32l14-13.92,2,13.04c.16.88.24,1.04,1.04,1.28.88.32,1.04.32,1.68-.32L20.88-32.72a1.642,1.642,0,0,0,0-2.32,1.722,1.722,0,0,0-2.32.08l-14,14L2.48-34.08c-.08-.8-.16-.96-.96-1.2-.88-.32-1.04-.32-1.68.32l-13.92,14-2.08-13.12A1.567,1.567,0,0,0-18-35.28a1.561,1.561,0,0,0-1.28,1.84ZM7.2-.16,23.44-16.4c.56-.56.56-.4.4-1.28L21.36-33.92c-.16-.8.08.96-.08.08L18.72-50a1.561,1.561,0,0,0-1.84-1.28,1.561,1.561,0,0,0-1.28,1.84L18.16-33.2l2.4,15.36L4.96-2.16a1.642,1.642,0,0,0,0,2.32,1.642,1.642,0,0,0,2.32,0Zm-28.96-49.2,2.56,16.24c.16.8-.16-.96,0-.08l2.4,15.44L-31.36-2.16A1.722,1.722,0,0,0-31.28.16,1.722,1.722,0,0,0-28.96.08l15.04-16.24c.56-.64.48-.48.32-1.36l-2.56-16.24-2.48-16.16a1.561,1.561,0,0,0-1.84-1.28A1.561,1.561,0,0,0-21.76-49.36Z" transform="translate(920 107)"/>
    <path id="Path_89" data-name="Path 89" d="M-34.48-18.96l15.6-15.6L-21.28-50c.88,0,.64.08,1.2-.56.56-.72.48-.48.32-1.36H17.68a1.506,1.506,0,0,0,1.6,1.36L21.76-34.4c.16.88-.08-.88.08,0L24.4-18.16c-.64.64-.64.48-.48,1.36L10.48-3.28H25.36a1.6,1.6,0,0,0-1.6,1.6,1.6,1.6,0,0,0,1.6,1.6H-12.08a1.506,1.506,0,0,0-1.6-1.36L-16-16.32H-33.36a1.3,1.3,0,0,0,.4-1.76c-.32-.8-.56-.96-1.44-.96Zm5.12-.48h14.88a1.506,1.506,0,0,1,1.6,1.36L-10.56-3.2H4.96L2.64-17.6a1.449,1.449,0,0,1,1.28-1.76,1.561,1.561,0,0,1,1.84,1.28L7.84-4.96,21.2-18.4,18.8-33.76,16.48-48.64H-17.76l2.24,14.32c.16.88.16.72-.4,1.36L-29.44-19.52Z" transform="translate(920 224)"/>
    <path id="Path_81" data-name="Path 81" d="M-22.72-48.64h33.6L-2.56-35.2c-.64.64-.64.48-.48,1.36L-.8-19.52H-17.68c-.88,0-.64-.08-1.2.56-.56.72-.48.48-.32,1.36l2.48,16.24A1.506,1.506,0,0,0-15.12,0H3.6A1.6,1.6,0,0,0,5.2-1.6,1.6,1.6,0,0,0,3.6-3.2H-13.76l-2-13.04H1.04c.88,0,.64.08,1.2-.56s.48-.4.32-1.28L.16-33.52l15.6-15.6a1.3,1.3,0,0,0,.4-1.76c-.4-.8-.64-.96-1.52-.96H-22.8a1.6,1.6,0,0,0-1.6,1.6,1.6,1.6,0,0,0,1.6,1.6Z" transform="translate(920 341)"/>
    <path id="Path_102" data-name="Path 102" d="M-10.96-.48,5.28-16.72c.56-.56.56-.4.4-1.28L3.12-34.24c-.08-.8.16.96,0,.08L.64-50.32A1.561,1.561,0,0,0-1.2-51.6a1.561,1.561,0,0,0-1.28,1.84L.08-33.52l2.4,15.36L-13.12-2.48a1.642,1.642,0,0,0,0,2.32,1.642,1.642,0,0,0,2.32,0Z" transform="translate(1040 107)"/>
    <path id="Path_90" data-name="Path 90" d="M-17-16.24H-1.56L.76-1.36A1.561,1.561,0,0,0,2.6-.08,1.561,1.561,0,0,0,3.88-1.92L1.32-18.16-.92-32.48H15.96c.88,0,.64.08,1.2-.56.56-.72.48-.48.32-1.36L14.92-50.56a1.506,1.506,0,0,0-1.6-1.36H-24.12c-.88,0-.64-.08-1.2.56s-.48.4-.32,1.28l2.56,16.24c.16.8-.16-.96,0-.08l2.56,16.16,2.48,16.24A1.561,1.561,0,0,0-16.2-.24a1.561,1.561,0,0,0,1.28-1.84l-2.24-14.4Zm-.64-3.44-2.4-14.88-2.24-14.32H11.96l2.08,13.04H-2.84c-.88,0-.64-.08-1.2.56-.64.64-.56.4-.4,1.28L-2.2-19.68Z" transform="translate(1040 224)"/>
  </g>
  </g>
</svg>
