<svg width="100%" viewBox="0 0 1120 400">
  <g id="font_6">
    <g id="bg" class="grid" transform="translate(-20 -20)">
      <path id="Path_1" data-name="Path 1" d="M16,0H120V120H0V16A16,16,0,0,1,16,0Z" transform="translate(40 40)" fill="#fff" stroke="#ddd" stroke-width="1"/>
      <rect id="Rectangle_22" data-name="Rectangle 22" width="120" height="120" transform="translate(40 160)" fill="#fff" stroke="#ddd" stroke-width="1"/>
      <path id="Rectangle_33" data-name="Rectangle 33" d="M0,0H120a0,0,0,0,1,0,0V120a0,0,0,0,1,0,0H16A16,16,0,0,1,0,104V0A0,0,0,0,1,0,0Z" transform="translate(40 280)" fill="#fff" stroke="#ddd" stroke-width="1"/>
      <rect id="Rectangle_2" data-name="Rectangle 2" width="120" height="120" transform="translate(160 40)" fill="#fff" stroke="#ddd" stroke-width="1"/>
      <rect id="Rectangle_20" data-name="Rectangle 20" width="120" height="120" transform="translate(160 160)" fill="#fff" stroke="#ddd" stroke-width="1"/>
      <rect id="Rectangle_31" data-name="Rectangle 31" width="120" height="120" transform="translate(160 280)" fill="#fff" stroke="#ddd" stroke-width="1"/>
      <rect id="Rectangle_3" data-name="Rectangle 3" width="120" height="120" transform="translate(160 40)" fill="#fff" stroke="#ddd" stroke-width="1"/>
      <rect id="Rectangle_21" data-name="Rectangle 21" width="120" height="120" transform="translate(160 160)" fill="#fff" stroke="#ddd" stroke-width="1"/>
      <rect id="Rectangle_32" data-name="Rectangle 32" width="120" height="120" transform="translate(160 280)" fill="#fff" stroke="#ddd" stroke-width="1"/>
      <rect id="Rectangle_4" data-name="Rectangle 4" width="120" height="120" transform="translate(280 40)" fill="#fff" stroke="#ddd" stroke-width="1"/>
      <rect id="Rectangle_19" data-name="Rectangle 19" width="120" height="120" transform="translate(280 160)" fill="#fff" stroke="#ddd" stroke-width="1"/>
      <rect id="Rectangle_30" data-name="Rectangle 30" width="120" height="120" transform="translate(280 280)" fill="#fff" stroke="#ddd" stroke-width="1"/>
      <rect id="Rectangle_5" data-name="Rectangle 5" width="120" height="120" transform="translate(400 40)" fill="#fff" stroke="#ddd" stroke-width="1"/>
      <rect id="Rectangle_18" data-name="Rectangle 18" width="120" height="120" transform="translate(400 160)" fill="#fff" stroke="#ddd" stroke-width="1"/>
      <rect id="Rectangle_29" data-name="Rectangle 29" width="120" height="120" transform="translate(400 280)" fill="#fff" stroke="#ddd" stroke-width="1"/>
      <rect id="Rectangle_6" data-name="Rectangle 6" width="120" height="120" transform="translate(520 40)" fill="#fff" stroke="#ddd" stroke-width="1"/>
      <rect id="Rectangle_13" data-name="Rectangle 13" width="120" height="120" transform="translate(520 160)" fill="#fff" stroke="#ddd" stroke-width="1"/>
      <rect id="Rectangle_24" data-name="Rectangle 24" width="120" height="120" transform="translate(520 280)" fill="#fff" stroke="#ddd" stroke-width="1"/>
      <rect id="Rectangle_7" data-name="Rectangle 7" width="120" height="120" transform="translate(640 40)" fill="#fff" stroke="#ddd" stroke-width="1"/>
      <rect id="Rectangle_14" data-name="Rectangle 14" width="120" height="120" transform="translate(640 160)" fill="#fff" stroke="#ddd" stroke-width="1"/>
      <rect id="Rectangle_25" data-name="Rectangle 25" width="120" height="120" transform="translate(640 280)" fill="#fff" stroke="#ddd" stroke-width="1"/>
      <rect id="Rectangle_8" data-name="Rectangle 8" width="120" height="120" transform="translate(760 40)" fill="#fff" stroke="#ddd" stroke-width="1"/>
      <rect id="Rectangle_15" data-name="Rectangle 15" width="120" height="120" transform="translate(760 160)" fill="#fff" stroke="#ddd" stroke-width="1"/>
      <rect id="Rectangle_26" data-name="Rectangle 26" width="120" height="120" transform="translate(760 280)" fill="#fff" stroke="#ddd" stroke-width="1"/>
      <rect id="Rectangle_9" data-name="Rectangle 9" width="120" height="120" transform="translate(880 40)" fill="#fff" stroke="#ddd" stroke-width="1"/>
      <rect id="Rectangle_16" data-name="Rectangle 16" width="120" height="120" transform="translate(880 160)" fill="#fff" stroke="#ddd" stroke-width="1"/>
      <rect id="Rectangle_27" data-name="Rectangle 27" width="120" height="120" transform="translate(880 280)" fill="#fff" stroke="#ddd" stroke-width="1"/>
      <path id="Rectangle_10" data-name="Rectangle 10" d="M0,0H104a16,16,0,0,1,16,16V120a0,0,0,0,1,0,0H0a0,0,0,0,1,0,0V0A0,0,0,0,1,0,0Z" transform="translate(1000 40)" fill="#fff" stroke="#ddd" stroke-width="1"/>
      <rect id="Rectangle_17" data-name="Rectangle 17" width="120" height="120" transform="translate(1000 160)" fill="#fff" stroke="#ddd" stroke-width="1"/>
      <path id="Rectangle_28" data-name="Rectangle 28" d="M0,0H120a0,0,0,0,1,0,0V104a16,16,0,0,1-16,16H0a0,0,0,0,1,0,0V0A0,0,0,0,1,0,0Z" transform="translate(1000 280)" fill="#fff" stroke="#ddd" stroke-width="1"/>
    </g>
    <g id="Group_4" class="glyphs" data-name="Group 4">
      <path id="Path_155" data-name="Path 155" d="M14.2-1.6V-21.68a1.6,1.6,0,0,0-1.6-1.6H-.28V-41.76a1.6,1.6,0,0,0-1.6-1.6H-20.52a1.6,1.6,0,0,0-1.6,1.6V-1.6A1.6,1.6,0,0,0-20.52,0a1.6,1.6,0,0,0,1.6-1.6V-20.08H11V-1.6A1.6,1.6,0,0,0,12.6,0,1.6,1.6,0,0,0,14.2-1.6ZM-3.48-23.28H-18.92V-40.16H-3.48Z" transform="translate(80 107)"/>
      <path id="Path_156" data-name="Path 156" d="M-22.12-21.68V-1.6A1.6,1.6,0,0,0-20.52,0H12.6a1.6,1.6,0,0,0,1.6-1.6V-41.76a1.6,1.6,0,0,0-1.6-1.6,1.6,1.6,0,0,0-1.6,1.6V-3.2H-18.92V-21.68a1.6,1.6,0,0,0-1.6-1.6A1.6,1.6,0,0,0-22.12-21.68Z" transform="translate(80 224)"/>
      <path id="Path_157" data-name="Path 157" d="M12.6-43.36H-20.52a1.6,1.6,0,0,0-1.6,1.6V-1.6A1.6,1.6,0,0,0-20.52,0H12.6a1.6,1.6,0,0,0,1.6-1.6V-21.68a1.6,1.6,0,0,0-1.6-1.6H-18.92V-40.16H12.6a1.6,1.6,0,0,0,1.6-1.6A1.6,1.6,0,0,0,12.6-43.36ZM-18.92-20.08H11V-3.2H-18.92Z" transform="translate(80 341)"/>
      <path id="Path_152" data-name="Path 152" d="M14.2-21.68V-41.76a1.6,1.6,0,0,0-1.6-1.6H-20.52a1.6,1.6,0,0,0-1.6,1.6V-1.6A1.6,1.6,0,0,0-20.52,0H12.6a1.6,1.6,0,0,0,1.6-1.6Zm-16.08,1.6H11V-3.2H-18.92V-20.08Zm0-3.2H-18.92V-40.16H11v16.88Z" transform="translate(200 107)"/>
      <path id="Path_153" data-name="Path 153" d="M-22.12-41.76V-1.6A1.6,1.6,0,0,0-20.52,0a1.6,1.6,0,0,0,1.6-1.6V-20.08H-1.88a1.6,1.6,0,0,0,1.6-1.6V-40.16H12.6a1.6,1.6,0,0,0,1.6-1.6,1.6,1.6,0,0,0-1.6-1.6H-1.88a1.6,1.6,0,0,0-1.6,1.6v18.48H-18.92V-41.76a1.6,1.6,0,0,0-1.6-1.6A1.6,1.6,0,0,0-22.12-41.76ZM-.28-21.68a1.6,1.6,0,0,0-1.6-1.6,1.6,1.6,0,0,0-1.6,1.6V-1.6A1.6,1.6,0,0,0-1.88,0H12.6a1.6,1.6,0,0,0,1.6-1.6,1.6,1.6,0,0,0-1.6-1.6H-.28Z" transform="translate(200 224)"/>
      <path id="Path_154" data-name="Path 154" d="M-20.52-40.16H-3.48V-1.6A1.6,1.6,0,0,0-1.88,0,1.6,1.6,0,0,0-.28-1.6V-40.16H12.6a1.6,1.6,0,0,0,1.6-1.6,1.6,1.6,0,0,0-1.6-1.6H-20.52a1.6,1.6,0,0,0-1.6,1.6A1.6,1.6,0,0,0-20.52-40.16Z" transform="translate(200 341)"/>
      <path id="Path_145" data-name="Path 145" d="M11-21.68V-3.2H-18.92V-40.16H12.6a1.6,1.6,0,0,0,1.6-1.6,1.6,1.6,0,0,0-1.6-1.6H-20.52a1.6,1.6,0,0,0-1.6,1.6V-1.6A1.6,1.6,0,0,0-20.52,0H12.6a1.6,1.6,0,0,0,1.6-1.6V-21.68a1.6,1.6,0,0,0-1.6-1.6A1.6,1.6,0,0,0,11-21.68Z" transform="translate(320 107)"/>
      <path id="Path_135" data-name="Path 135" d="M-22.12-41.76V-1.6A1.6,1.6,0,0,0-20.52,0H12.6a1.6,1.6,0,0,0,1.6-1.6,1.6,1.6,0,0,0-1.6-1.6H-18.92V-41.76a1.6,1.6,0,0,0-1.6-1.6A1.6,1.6,0,0,0-22.12-41.76Z" transform="translate(320 224)"/>
      <path id="Path_136" data-name="Path 136" d="M11-41.76V-3.2H-18.92V-41.76a1.6,1.6,0,0,0-1.6-1.6,1.6,1.6,0,0,0-1.6,1.6V-1.6A1.6,1.6,0,0,0-20.52,0H12.6a1.6,1.6,0,0,0,1.6-1.6V-41.76a1.6,1.6,0,0,0-1.6-1.6A1.6,1.6,0,0,0,11-41.76Z" transform="translate(320 341)"/>
      <path id="Path_146" data-name="Path 146" d="M-20.52,0H12.6a1.6,1.6,0,0,0,1.6-1.6V-41.76a1.6,1.6,0,0,0-1.6-1.6H-20.52a1.6,1.6,0,0,0-1.6,1.6V-1.6A1.6,1.6,0,0,0-20.52,0Zm1.6-3.2V-40.16H11V-3.2H-18.92Z" transform="translate(440 107)"/>
      <path id="Path_137" data-name="Path 137" d="M-24.84-1.6V-20.08H-9.4V-1.6A1.6,1.6,0,0,0-7.8,0,1.6,1.6,0,0,0-6.2-1.6V-20.08H6.68a1.6,1.6,0,0,0,1.6-1.6V-40.16h8.64V-1.6A1.6,1.6,0,0,0,18.52,0a1.6,1.6,0,0,0,1.6-1.6V-41.76a1.6,1.6,0,0,0-1.6-1.6H6.68a1.6,1.6,0,0,0-1.6,1.6v18.48H-24.84V-41.76a1.6,1.6,0,0,0-1.6-1.6,1.6,1.6,0,0,0-1.6,1.6V-1.6A1.6,1.6,0,0,0-26.44,0,1.6,1.6,0,0,0-24.84-1.6Z" transform="translate(440 224)"/>
      <path id="Path_138" data-name="Path 138" d="M-22.12-41.76v20.08a1.6,1.6,0,0,0,1.6,1.6H-3.48V-1.6A1.6,1.6,0,0,0-1.88,0,1.6,1.6,0,0,0-.28-1.6V-20.08H12.6a1.6,1.6,0,0,0,1.6-1.6V-41.76a1.6,1.6,0,0,0-1.6-1.6,1.6,1.6,0,0,0-1.6,1.6v18.48H-18.92V-41.76a1.6,1.6,0,0,0-1.6-1.6A1.6,1.6,0,0,0-22.12-41.76Z" transform="translate(440 341)"/>
      <path id="Path_147" data-name="Path 147" d="M12.6-3.2H-18.92V-20.08H12.6a1.6,1.6,0,0,0,1.6-1.6,1.6,1.6,0,0,0-1.6-1.6H-18.92V-40.16H12.6a1.6,1.6,0,0,0,1.6-1.6,1.6,1.6,0,0,0-1.6-1.6H-20.52a1.6,1.6,0,0,0-1.6,1.6V-1.6A1.6,1.6,0,0,0-20.52,0H12.6a1.6,1.6,0,0,0,1.6-1.6A1.6,1.6,0,0,0,12.6-3.2Z" transform="translate(560 107)"/>
      <path id="Path_139" data-name="Path 139" d="M-18.92-1.6V-40.16H-3.48V-1.6A1.6,1.6,0,0,0-1.88,0H12.6a1.6,1.6,0,0,0,1.6-1.6V-41.76a1.6,1.6,0,0,0-1.6-1.6,1.6,1.6,0,0,0-1.6,1.6V-3.2H-.28V-41.76a1.6,1.6,0,0,0-1.6-1.6H-20.52a1.6,1.6,0,0,0-1.6,1.6V-1.6A1.6,1.6,0,0,0-20.52,0,1.6,1.6,0,0,0-18.92-1.6Z" transform="translate(560 224)"/>
      <path id="Path_140" data-name="Path 140" d="M-39.6-40.16a1.6,1.6,0,0,0,1.6-1.6,1.6,1.6,0,0,0-1.6-1.6H5.36a1.6,1.6,0,0,0,1.6,1.6v18.48H30.08V-41.76a1.6,1.6,0,0,0,1.6,1.6,1.6,1.6,0,0,0,1.6-1.6v20.08a1.6,1.6,0,0,0-1.6,1.6H21.44V-1.6a1.6,1.6,0,0,0-1.6-1.6,1.6,1.6,0,0,0-1.6,1.6V-20.08H5.36a1.6,1.6,0,0,0-1.6-1.6V-40.16H-11.68V-1.6a1.6,1.6,0,0,0-1.6-1.6,1.6,1.6,0,0,0-1.6,1.6V-40.16Z" transform="translate(560 341)"/>
      <path id="Path_148" data-name="Path 148" d="M-18.92-1.6V-20.08H12.6a1.6,1.6,0,0,0,1.6-1.6,1.6,1.6,0,0,0-1.6-1.6H-18.92V-40.16H12.6a1.6,1.6,0,0,0,1.6-1.6,1.6,1.6,0,0,0-1.6-1.6H-20.52a1.6,1.6,0,0,0-1.6,1.6V-1.6A1.6,1.6,0,0,0-20.52,0,1.6,1.6,0,0,0-18.92-1.6Z" transform="translate(680 107)"/>
      <path id="Path_141" data-name="Path 141" d="M-28.04-21.68V-1.6A1.6,1.6,0,0,0-26.44,0H6.68a1.6,1.6,0,0,0,1.6-1.6V-20.08H18.52a1.6,1.6,0,0,0,1.6-1.6,1.6,1.6,0,0,0-1.6-1.6H8.28V-41.76a1.6,1.6,0,0,0-1.6-1.6H-26.44a1.6,1.6,0,0,0-1.6,1.6Zm3.2,0V-40.16H5.08V-3.2H-24.84Z" transform="translate(680 224)"/>
      <path id="Path_134" data-name="Path 134" d="M-20.52-40.16H-3.48v16.88H-20.52a1.6,1.6,0,0,0-1.6,1.6V-1.6A1.6,1.6,0,0,0-20.52,0a1.6,1.6,0,0,0,1.6-1.6V-20.08H-3.48V-1.6A1.6,1.6,0,0,0-1.88,0H12.6a1.6,1.6,0,0,0,1.6-1.6,1.6,1.6,0,0,0-1.6-1.6H-.28V-40.16H12.6a1.6,1.6,0,0,0,1.6-1.6,1.6,1.6,0,0,0-1.6-1.6H-20.52a1.6,1.6,0,0,0-1.6,1.6A1.6,1.6,0,0,0-20.52-40.16Z" transform="translate(680 341)"/>
      <path id="Path_149" data-name="Path 149" d="M-1.88-20.08H11V-3.2H-18.92V-40.16H12.6a1.6,1.6,0,0,0,1.6-1.6,1.6,1.6,0,0,0-1.6-1.6H-20.52a1.6,1.6,0,0,0-1.6,1.6V-1.6A1.6,1.6,0,0,0-20.52,0H12.6a1.6,1.6,0,0,0,1.6-1.6V-21.68a1.6,1.6,0,0,0-1.6-1.6H-1.88a1.6,1.6,0,0,0-1.6,1.6A1.6,1.6,0,0,0-1.88-20.08Z" transform="translate(800 107)"/>
      <path id="Path_142" data-name="Path 142" d="M-18.92-20.08H12.6a1.6,1.6,0,0,0,1.6-1.6V-41.76a1.6,1.6,0,0,0-1.6-1.6H-20.52a1.6,1.6,0,0,0-1.6,1.6V-1.6A1.6,1.6,0,0,0-20.52,0a1.6,1.6,0,0,0,1.6-1.6Zm0-3.2V-40.16H11v16.88H-18.92Z" transform="translate(800 224)"/>
      <path id="Path_132" data-name="Path 132" d="M-20.52-40.16H-3.48V-1.6A1.6,1.6,0,0,0-1.88,0,1.6,1.6,0,0,0-.28-1.6V-40.16H12.6a1.6,1.6,0,0,0,1.6-1.6,1.6,1.6,0,0,0-1.6-1.6H-20.52a1.6,1.6,0,0,0-1.6,1.6A1.6,1.6,0,0,0-20.52-40.16Z" transform="translate(800 341)"/>
      <path id="Path_150" data-name="Path 150" d="M-22.12-41.76V-1.6A1.6,1.6,0,0,0-20.52,0a1.6,1.6,0,0,0,1.6-1.6V-41.76a1.6,1.6,0,0,0-1.6-1.6A1.6,1.6,0,0,0-22.12-41.76ZM14.2-1.6V-41.76a1.6,1.6,0,0,0-1.6-1.6,1.6,1.6,0,0,0-1.6,1.6V-1.6A1.6,1.6,0,0,0,12.6,0,1.6,1.6,0,0,0,14.2-1.6ZM-20.52-20.08H12.6a1.6,1.6,0,0,0,1.6-1.6,1.6,1.6,0,0,0-1.6-1.6H-20.52a1.6,1.6,0,0,0-1.6,1.6A1.6,1.6,0,0,0-20.52-20.08Z" transform="translate(920 107)"/>
      <path id="Path_143" data-name="Path 143" d="M-28.04-21.68V-1.6A1.6,1.6,0,0,0-26.44,0H6.68a1.6,1.6,0,0,0,1.6-1.6V-20.08H18.52a1.6,1.6,0,0,0,1.6-1.6,1.6,1.6,0,0,0-1.6-1.6H8.28V-41.76a1.6,1.6,0,0,0-1.6-1.6H-26.44a1.6,1.6,0,0,0-1.6,1.6Zm3.2,0V-40.16H5.08V-3.2H-6.2V-21.68a1.6,1.6,0,0,0-1.6-1.6,1.6,1.6,0,0,0-1.6,1.6V-3.2H-24.84Z" transform="translate(920 224)"/>
      <path id="Path_133" data-name="Path 133" d="M-20.52-40.16H-3.48v16.88H-20.52a1.6,1.6,0,0,0-1.6,1.6V-1.6A1.6,1.6,0,0,0-20.52,0H12.6a1.6,1.6,0,0,0,1.6-1.6,1.6,1.6,0,0,0-1.6-1.6H-18.92V-20.08H-1.88a1.6,1.6,0,0,0,1.6-1.6V-40.16H12.6a1.6,1.6,0,0,0,1.6-1.6,1.6,1.6,0,0,0-1.6-1.6H-20.52a1.6,1.6,0,0,0-1.6,1.6A1.6,1.6,0,0,0-20.52-40.16Z" transform="translate(920 341)"/>
      <path id="Path_151" data-name="Path 151" d="M-2.4-1.6V-41.76A1.6,1.6,0,0,0-4-43.36a1.6,1.6,0,0,0-1.6,1.6V-1.6A1.6,1.6,0,0,0-4,0,1.6,1.6,0,0,0-2.4-1.6Z" transform="translate(1040 107)"/>
      <path id="Path_144" data-name="Path 144" d="M-18.92-20.08H-3.48V-1.6A1.6,1.6,0,0,0-1.88,0H12.6a1.6,1.6,0,0,0,1.6-1.6,1.6,1.6,0,0,0-1.6-1.6H-.28V-20.08H12.6a1.6,1.6,0,0,0,1.6-1.6V-41.76a1.6,1.6,0,0,0-1.6-1.6H-20.52a1.6,1.6,0,0,0-1.6,1.6V-1.6A1.6,1.6,0,0,0-20.52,0a1.6,1.6,0,0,0,1.6-1.6Zm0-3.2V-40.16H11v16.88H-18.92Z" transform="translate(1040 224)"/>
    </g>
  </g>
</svg>
