<svg width="100%" viewBox="0 0 1120 400">
  <g id="font_8">
    <g id="bg" class="grid" transform="translate(-20 -20)">
      <path id="Path_1" data-name="Path 1" d="M16,0H120V120H0V16A16,16,0,0,1,16,0Z" transform="translate(40 40)" fill="#fff" stroke="#ddd" stroke-width="1"/>
      <rect id="Rectangle_22" data-name="Rectangle 22" width="120" height="120" transform="translate(40 160)" fill="#fff" stroke="#ddd" stroke-width="1"/>
      <path id="Rectangle_33" data-name="Rectangle 33" d="M0,0H120a0,0,0,0,1,0,0V120a0,0,0,0,1,0,0H16A16,16,0,0,1,0,104V0A0,0,0,0,1,0,0Z" transform="translate(40 280)" fill="#fff" stroke="#ddd" stroke-width="1"/>
      <rect id="Rectangle_2" data-name="Rectangle 2" width="120" height="120" transform="translate(160 40)" fill="#fff" stroke="#ddd" stroke-width="1"/>
      <rect id="Rectangle_20" data-name="Rectangle 20" width="120" height="120" transform="translate(160 160)" fill="#fff" stroke="#ddd" stroke-width="1"/>
      <rect id="Rectangle_31" data-name="Rectangle 31" width="120" height="120" transform="translate(160 280)" fill="#fff" stroke="#ddd" stroke-width="1"/>
      <rect id="Rectangle_3" data-name="Rectangle 3" width="120" height="120" transform="translate(160 40)" fill="#fff" stroke="#ddd" stroke-width="1"/>
      <rect id="Rectangle_21" data-name="Rectangle 21" width="120" height="120" transform="translate(160 160)" fill="#fff" stroke="#ddd" stroke-width="1"/>
      <rect id="Rectangle_32" data-name="Rectangle 32" width="120" height="120" transform="translate(160 280)" fill="#fff" stroke="#ddd" stroke-width="1"/>
      <rect id="Rectangle_4" data-name="Rectangle 4" width="120" height="120" transform="translate(280 40)" fill="#fff" stroke="#ddd" stroke-width="1"/>
      <rect id="Rectangle_19" data-name="Rectangle 19" width="120" height="120" transform="translate(280 160)" fill="#fff" stroke="#ddd" stroke-width="1"/>
      <rect id="Rectangle_30" data-name="Rectangle 30" width="120" height="120" transform="translate(280 280)" fill="#fff" stroke="#ddd" stroke-width="1"/>
      <rect id="Rectangle_5" data-name="Rectangle 5" width="120" height="120" transform="translate(400 40)" fill="#fff" stroke="#ddd" stroke-width="1"/>
      <rect id="Rectangle_18" data-name="Rectangle 18" width="120" height="120" transform="translate(400 160)" fill="#fff" stroke="#ddd" stroke-width="1"/>
      <rect id="Rectangle_29" data-name="Rectangle 29" width="120" height="120" transform="translate(400 280)" fill="#fff" stroke="#ddd" stroke-width="1"/>
      <rect id="Rectangle_6" data-name="Rectangle 6" width="120" height="120" transform="translate(520 40)" fill="#fff" stroke="#ddd" stroke-width="1"/>
      <rect id="Rectangle_13" data-name="Rectangle 13" width="120" height="120" transform="translate(520 160)" fill="#fff" stroke="#ddd" stroke-width="1"/>
      <rect id="Rectangle_24" data-name="Rectangle 24" width="120" height="120" transform="translate(520 280)" fill="#fff" stroke="#ddd" stroke-width="1"/>
      <rect id="Rectangle_7" data-name="Rectangle 7" width="120" height="120" transform="translate(640 40)" fill="#fff" stroke="#ddd" stroke-width="1"/>
      <rect id="Rectangle_14" data-name="Rectangle 14" width="120" height="120" transform="translate(640 160)" fill="#fff" stroke="#ddd" stroke-width="1"/>
      <rect id="Rectangle_25" data-name="Rectangle 25" width="120" height="120" transform="translate(640 280)" fill="#fff" stroke="#ddd" stroke-width="1"/>
      <rect id="Rectangle_8" data-name="Rectangle 8" width="120" height="120" transform="translate(760 40)" fill="#fff" stroke="#ddd" stroke-width="1"/>
      <rect id="Rectangle_15" data-name="Rectangle 15" width="120" height="120" transform="translate(760 160)" fill="#fff" stroke="#ddd" stroke-width="1"/>
      <rect id="Rectangle_26" data-name="Rectangle 26" width="120" height="120" transform="translate(760 280)" fill="#fff" stroke="#ddd" stroke-width="1"/>
      <rect id="Rectangle_9" data-name="Rectangle 9" width="120" height="120" transform="translate(880 40)" fill="#fff" stroke="#ddd" stroke-width="1"/>
      <rect id="Rectangle_16" data-name="Rectangle 16" width="120" height="120" transform="translate(880 160)" fill="#fff" stroke="#ddd" stroke-width="1"/>
      <rect id="Rectangle_27" data-name="Rectangle 27" width="120" height="120" transform="translate(880 280)" fill="#fff" stroke="#ddd" stroke-width="1"/>
      <path id="Rectangle_10" data-name="Rectangle 10" d="M0,0H104a16,16,0,0,1,16,16V120a0,0,0,0,1,0,0H0a0,0,0,0,1,0,0V0A0,0,0,0,1,0,0Z" transform="translate(1000 40)" fill="#fff" stroke="#ddd" stroke-width="1"/>
      <rect id="Rectangle_17" data-name="Rectangle 17" width="120" height="120" transform="translate(1000 160)" fill="#fff" stroke="#ddd" stroke-width="1"/>
      <path id="Rectangle_28" data-name="Rectangle 28" d="M0,0H120a0,0,0,0,1,0,0V104a16,16,0,0,1-16,16H0a0,0,0,0,1,0,0V0A0,0,0,0,1,0,0Z" transform="translate(1000 280)" fill="#fff" stroke="#ddd" stroke-width="1"/>
    </g>
    <g id="Group_6" class="glyphs" data-name="Group 6">
      <path id="Path_207" data-name="Path 207" d="M35.28-17.28,23.6-37.6c-.48-.8-.56-.8-1.44-.8H-.88L-20.8-49.92c-.72-.48-.8-.48-1.6,0L-42.72-38.16c-.8.4-.8.48-.8,1.36s0,.96.8,1.44L-23.2-24.08V-1.52A1.6,1.6,0,0,0-21.6.08,1.6,1.6,0,0,0-20-1.52V-24.08L-.88-35.12H21.28L32.56-15.6a1.49,1.49,0,0,0,2.16.56,1.575,1.575,0,0,0,.64-2.16ZM-4.4-36.72-21.52-26.8l-17.12-9.92,17.12-9.92Z" transform="translate(80 107)"/>
      <path id="Path_208" data-name="Path 208" d="M-15.72-25.04V-1.6A1.6,1.6,0,0,0-14.12,0a1.6,1.6,0,0,0,1.6-1.6V-24.16L7-35.44a1.531,1.531,0,0,0,.48-2.16,1.49,1.49,0,0,0-2.16-.56L-15-26.48c-.8.48-.8.56-.8,1.44Z" transform="translate(80 224)"/>
      <path id="Path_209" data-name="Path 209" d="M7-38.16-13.32-49.92a1.594,1.594,0,0,0-2.24.56A1.594,1.594,0,0,0-15-47.12L2.92-36.8-15-26.48c-.8.48-.8.56-.8,1.44V-1.6A1.6,1.6,0,0,0-14.2,0a1.6,1.6,0,0,0,1.6-1.6V-24.16L6.92-35.44c.72-.4.72-.48.72-1.36s0-.96-.8-1.44Z" transform="translate(80 341)"/>
      <path id="Path_205" data-name="Path 205" d="M17.12-38.16-3.2-49.92c-.72-.48-.8-.48-1.6,0L-25.12-38.16c-.8.4-.8.48-.8,1.36s0,.96.8,1.44L-5.6-24.08V-1.52A1.6,1.6,0,0,0-4,.08a1.6,1.6,0,0,0,1.6-1.6V-24.08L17.12-35.36c.8-.4.8-.48.8-1.36S17.92-37.68,17.12-38.16Zm-4,1.36L-4-26.88-21.12-36.8-4-46.72Z" transform="translate(200 107)"/>
      <path id="Path_204" data-name="Path 204" d="M-22.4-49.92-42.72-38.16c-.8.4-.8.48-.8,1.36s0,.96.8,1.44L-23.2-24.08V-1.52A1.6,1.6,0,0,0-21.6.08,1.6,1.6,0,0,0-20-1.52V-24.08L-.48-35.36a1.49,1.49,0,0,0,.56-2.16,1.49,1.49,0,0,0-2.16-.56L-21.6-26.8l-17.12-9.92L-20.8-47.04a1.594,1.594,0,0,0,.56-2.24,1.622,1.622,0,0,0-2.16-.56ZM35.28-17.2,23.6-37.52c-.48-.8-.56-.8-1.44-.8H-1.28a1.6,1.6,0,0,0-1.6,1.6,1.6,1.6,0,0,0,1.6,1.6H21.28L32.56-15.6a1.49,1.49,0,0,0,2.16.56,1.575,1.575,0,0,0,.64-2.16Z" transform="translate(200 224)"/>
      <path id="Path_206" data-name="Path 206" d="M-32.52-47.12-14.6-36.8-32.52-26.48c-.8.48-.8.56-.8,1.44V-1.6A1.6,1.6,0,0,0-31.72,0a1.6,1.6,0,0,0,1.6-1.6V-24.16L-11-35.2H12.04c.88,0,.96,0,1.44-.8L25.16-56.32a1.52,1.52,0,0,0-.56-2.16,1.594,1.594,0,0,0-2.24.56L11.08-38.4H-11.08L-31-49.92a1.594,1.594,0,0,0-2.24.56,1.594,1.594,0,0,0,.56,2.24Z" transform="translate(200 341)"/>
      <path id="Path_197" data-name="Path 197" d="M21.44-34.96,32.56-15.68a1.49,1.49,0,0,0,2.16.56,1.575,1.575,0,0,0,.64-2.16L23.68-37.6c-.48-.8-.56-.8-1.44-.8H-.8L-20.72-49.92c-.72-.48-.8-.48-1.6,0L-42.64-38.16c-.8.4-.8.48-.8,1.36s0,.96.8,1.44l19.52,11.28V-1.52a1.6,1.6,0,0,0,1.6,1.6,1.6,1.6,0,0,0,1.6-1.6V-23.76L21.52-34.88Zm-11.28-.16-31.44,8.4-17.36-10,17.12-9.92L-2-35.36c.8.48-.08.24.8.24Z" transform="translate(320 107)"/>
      <path id="Path_196" data-name="Path 196" d="M-14.92-47.12,3-36.8-14.92-26.48c-.8.48-.8.56-.8,1.44V-1.6A1.6,1.6,0,0,0-14.12,0a1.6,1.6,0,0,0,1.6-1.6V-24.16L7-35.44c.72-.4.72-.48.72-1.36s0-.96-.8-1.44L-13.4-50a1.594,1.594,0,0,0-2.24.56,1.594,1.594,0,0,0,.56,2.24Z" transform="translate(320 224)"/>
      <path id="Path_195" data-name="Path 195" d="M15.52-38.16-4-26.88-21.12-36.8-3.2-47.12a1.594,1.594,0,0,0,.56-2.24,1.622,1.622,0,0,0-2.16-.56L-25.12-38.16c-.8.4-.8.48-.8,1.36s0,.96.8,1.44L-5.6-24.08V-1.52A1.6,1.6,0,0,0-4,.08a1.6,1.6,0,0,0,1.6-1.6V-24.08L17.12-35.36a1.49,1.49,0,0,0,.56-2.16,1.49,1.49,0,0,0-2.16-.56Z" transform="translate(320 341)"/>
      <path id="Path_198" data-name="Path 198" d="M-14.12-1.6V-24.16L5-35.2H28.04a1.6,1.6,0,0,0,1.6-1.6,1.6,1.6,0,0,0-1.6-1.6H5L-14.92-49.92c-.72-.48-.8-.48-1.6,0L-36.84-38.16c-.8.4-.8.48-.8,1.36s0,.96.8,1.44l19.52,11.28V-1.52a1.6,1.6,0,0,0,1.6,1.6,1.6,1.6,0,0,0,1.6-1.6Zm-1.6-25.2-17.12-9.92,17.12-9.92L1.4-36.72Z" transform="translate(440 107)"/>
      <path id="Path_187" data-name="Path 187" d="M-20-1.6V-24.16L-.88-35.2H21.28L32.56-15.68a1.49,1.49,0,0,0,2.16.56,1.575,1.575,0,0,0,.64-2.16L24.16-36.8l11.2-19.52a1.52,1.52,0,0,0-.56-2.16,1.52,1.52,0,0,0-2.16.56L21.36-38.4H-.8L-20.72-49.92c-.72-.48-.8-.48-1.6,0L-42.64-38.16c-.8.4-.8.48-.8,1.36s0,.96.8,1.44l19.52,11.28V-1.52a1.6,1.6,0,0,0,1.6,1.6,1.6,1.6,0,0,0,1.6-1.6Zm-1.52-25.2-17.12-9.92,17.12-9.92L-4.4-36.72Z" transform="translate(440 224)"/>
      <path id="Path_188" data-name="Path 188" d="M-32.52-47.12-14.6-36.8-32.52-26.48c-.8.48-.8.56-.8,1.44V-1.6A1.6,1.6,0,0,0-31.72,0a1.6,1.6,0,0,0,1.6-1.6V-24.16L-11-35.2H12.04c.88,0,.96,0,1.44-.8L25.16-56.32a1.52,1.52,0,0,0-.56-2.16,1.594,1.594,0,0,0-2.24.56L11.08-38.4H-11.08L-31-49.92a1.594,1.594,0,0,0-2.24.56,1.594,1.594,0,0,0,.56,2.24Z" transform="translate(440 341)"/>
      <path id="Path_199" data-name="Path 199" d="M25.16-17.28,13.48-37.6a1.414,1.414,0,0,0-1.84-.8l-32.08,8.56,9.84-5.68c.72-.4.72-.48.72-1.36s0-.96-.8-1.44L-31-50.08a1.594,1.594,0,0,0-2.24.56,1.594,1.594,0,0,0,.56,2.24l17.92,10.32L-32.68-26.64c-.8.48-.8.56-.8,1.44V-1.76a1.6,1.6,0,0,0,1.6,1.6,1.6,1.6,0,0,0,1.6-1.6V-24L11.16-35.12,22.28-15.84a1.49,1.49,0,0,0,2.16.56A1.622,1.622,0,0,0,25-17.44Z" transform="translate(560 107)"/>
      <path id="Path_189" data-name="Path 189" d="M-20-1.6V-25.04c0-.88,0-.96-.8-1.44L-38.72-36.8l17.12-9.92L-2.08-35.44c.8.48-.08.24.8.24H21.28L32.56-15.68a1.49,1.49,0,0,0,2.16.56,1.575,1.575,0,0,0,.64-2.16L24.16-36.8l11.2-19.52a1.52,1.52,0,0,0-.56-2.16,1.52,1.52,0,0,0-2.16.56L21.36-38.4H-.8L-20.72-49.92c-.72-.48-.8-.48-1.6,0L-42.64-38.16c-.8.4-.8.48-.8,1.36s0,.96.8,1.44l19.52,11.28V-1.52a1.6,1.6,0,0,0,1.6,1.6,1.6,1.6,0,0,0,1.6-1.6Z" transform="translate(560 224)"/>
      <path id="Path_190" data-name="Path 190" d="M-42.72-35.44-23.2-24.16V-1.6A1.6,1.6,0,0,0-21.6,0,1.6,1.6,0,0,0-20-1.6V-24.16L-.88-35.2H21.28L32.56-15.68a1.49,1.49,0,0,0,2.16.56,1.575,1.575,0,0,0,.64-2.16L24.16-36.8l11.2-19.52a1.52,1.52,0,0,0-.56-2.16,1.52,1.52,0,0,0-2.16.56L21.36-38.4H-.8L-20.72-49.92a1.52,1.52,0,0,0-2.16.56,1.594,1.594,0,0,0,.56,2.24L-4.4-36.8l-17.12,9.92L-41.04-38.16a1.594,1.594,0,0,0-2.24.56,1.594,1.594,0,0,0,.56,2.24Z" transform="translate(560 341)"/>
      <path id="Path_200" data-name="Path 200" d="M-12.52-1.6V-24.16L7-35.44c.72-.4.72-.48.72-1.36s0-.96-.8-1.44L-13.4-50a1.594,1.594,0,0,0-2.24.56,1.594,1.594,0,0,0,.56,2.24L2.84-36.88-15.08-26.56c-.8.48-.8.56-.8,1.44V-1.68a1.6,1.6,0,0,0,1.6,1.6,1.6,1.6,0,0,0,1.6-1.6Z" transform="translate(680 107)"/>
      <path id="Path_191" data-name="Path 191" d="M-42.72-38.16c-.8.4-.8.48-.8,1.36s0,.96.8,1.44L-23.2-24.08V-1.52A1.6,1.6,0,0,0-21.6.08,1.6,1.6,0,0,0-20-1.52V-23.76L21.44-34.88,32.56-15.6a1.49,1.49,0,0,0,2.16.56,1.575,1.575,0,0,0,.64-2.16L23.68-37.52c-.48-.8-.56-.8-1.44-.8H-.8L-20.72-49.84c-.72-.48-.8-.48-1.6,0L-42.64-38.08Zm4.08,1.44,17.12-9.92L-2-35.36c.8.48-.08.24.8.24H10.16l-31.44,8.4Z" transform="translate(680 224)"/>
      <path id="Path_184" data-name="Path 184" d="M-14.92-47.12,3-36.8-14.92-26.48c-.8.48-.8.56-.8,1.44V-1.6A1.6,1.6,0,0,0-14.12,0a1.6,1.6,0,0,0,1.6-1.6V-24.16L7-35.44c.72-.4.72-.48.72-1.36s0-.96-.8-1.44L-13.4-50a1.594,1.594,0,0,0-2.24.56,1.594,1.594,0,0,0,.56,2.24Z" transform="translate(680 341)"/>
      <path id="Path_201" data-name="Path 201" d="M-.88-38.4-20.8-49.92c-.72-.48-.8-.48-1.6,0L-42.72-38.16c-.8.4-.8.48-.8,1.36s0,.96.8,1.44L-23.2-24.08V-1.52A1.6,1.6,0,0,0-21.6.08,1.6,1.6,0,0,0-20-1.52V-23.76L21.44-34.88,32.56-15.6a1.49,1.49,0,0,0,2.16.56,1.575,1.575,0,0,0,.64-2.16L23.68-37.52c-.48-.8-.56-.8-1.44-.8H-.8Zm-.32,3.28H10.16l-31.44,8.4-17.36-10,17.12-9.92L-2-35.36C-1.2-34.88-2.08-35.12-1.2-35.12Z" transform="translate(800 107)"/>
      <path id="Path_192" data-name="Path 192" d="M-2.4-24.16,17.12-35.44c.8-.4.8-.48.8-1.36s0-.96-.8-1.44L-3.2-50c-.72-.48-.8-.48-1.6,0L-25.12-38.24c-.8.4-.8.48-.8,1.36s0,.96.8,1.44L-5.6-24.16V-1.6A1.6,1.6,0,0,0-4,0,1.6,1.6,0,0,0-2.4-1.6ZM-4-26.88-21.12-36.8-4-46.72,13.12-36.8Z" transform="translate(800 224)"/>
      <path id="Path_185" data-name="Path 185" d="M-32.52-47.12-14.6-36.8-32.52-26.48c-.8.48-.8.56-.8,1.44V-1.6A1.6,1.6,0,0,0-31.72,0a1.6,1.6,0,0,0,1.6-1.6V-24.16L-11-35.2H12.04c.88,0,.96,0,1.44-.8L25.16-56.32a1.52,1.52,0,0,0-.56-2.16,1.594,1.594,0,0,0-2.24.56L11.08-38.4H-11.08L-31-49.92a1.594,1.594,0,0,0-2.24.56,1.594,1.594,0,0,0,.56,2.24Z" transform="translate(800 341)"/>
      <path id="Path_202" data-name="Path 202" d="M-22.4-49.92-42.72-38.16c-.8.4-.8.48-.8,1.36s0,.96.8,1.44L-23.2-24.08V-1.52A1.6,1.6,0,0,0-21.6.08,1.6,1.6,0,0,0-20-1.52V-24.96c0-.88,0-.96-.8-1.44L-38.72-36.72-20.8-47.04a1.594,1.594,0,0,0,.56-2.24,1.622,1.622,0,0,0-2.16-.56Zm1.6,26.32L-.88-35.12H22.16a1.6,1.6,0,0,0,1.6-1.6,1.6,1.6,0,0,0-1.6-1.6H-1.28c-.88,0,0-.24-.8.24L-22.4-26.4a1.642,1.642,0,0,0-.48,2.24,1.531,1.531,0,0,0,2.16.48Zm56.16,6.32L24.16-36.8l11.2-19.52a1.52,1.52,0,0,0-.56-2.16,1.52,1.52,0,0,0-2.16.56L20.88-37.6c-.4.72-.4.8.08,1.6L32.72-15.68a1.49,1.49,0,0,0,2.16.56,1.575,1.575,0,0,0,.64-2.16Z" transform="translate(920 107)"/>
      <path id="Path_193" data-name="Path 193" d="M-42.72-46.8c-.8.48-.8.56-.8,1.44s0,.96.8,1.44L-23.2-32.64v22.56a1.6,1.6,0,0,0,1.6,1.6,1.6,1.6,0,0,0,1.6-1.6V-32.32L21.44-43.44,32.32-24.56V-1.52a1.6,1.6,0,0,0,1.6,1.6,1.6,1.6,0,0,0,1.6-1.6V-24.96c0-.88.24,0-.24-.8L23.6-46.08c-.48-.8-.56-.8-1.44-.8H-.88L-20.8-58.4c-.72-.48-.8-.48-1.6,0L-42.72-46.72Zm4,1.52L-21.6-55.2-2.08-43.92c.8.48-.08.24.8.24H10.08l-31.44,8.4Z" transform="translate(920 224)"/>
      <path id="Path_186" data-name="Path 186" d="M-14.92-47.12,3-36.8-14.92-26.48c-.8.48-.8.56-.8,1.44V-1.6A1.6,1.6,0,0,0-14.12,0a1.6,1.6,0,0,0,1.6-1.6V-24.16L7-35.44c.72-.4.72-.48.72-1.36s0-.96-.8-1.44L-13.4-50a1.594,1.594,0,0,0-2.24.56,1.594,1.594,0,0,0,.56,2.24Z" transform="translate(920 341)"/>
      <path id="Path_203" data-name="Path 203" d="M-12.52-1.6V-24.16L7-35.44c.72-.4.72-.48.72-1.36s0-.96-.8-1.44L-13.4-50a1.594,1.594,0,0,0-2.24.56,1.594,1.594,0,0,0,.56,2.24L2.84-36.88-15.08-26.56c-.8.48-.8.56-.8,1.44V-1.68a1.6,1.6,0,0,0,1.6,1.6,1.6,1.6,0,0,0,1.6-1.6Z" transform="translate(1040 107)"/>
      <path id="Path_194" data-name="Path 194" d="M-2.4-24.16,17.12-35.44c.8-.4.8-.48.8-1.36s0-.96-.8-1.44L-3.2-50c-.72-.48-.8-.48-1.6,0L-25.12-38.24c-.8.4-.8.48-.8,1.36s0,.96.8,1.44L-5.6-24.16V-1.6A1.6,1.6,0,0,0-4,0,1.6,1.6,0,0,0-2.4-1.6ZM-4-26.88-21.12-36.8-4-46.72,13.12-36.8Z" transform="translate(1040 224)"/>
    </g>
  </g>
</svg>
