<svg width="100%" viewBox="0 0 1120 400">
  <g id="font_1">
    <g id="bg" class="grid" transform="translate(-20 -20)">
      <path id="Path_1" data-name="Path 1" d="M16,0H120V120H0V16A16,16,0,0,1,16,0Z" transform="translate(40 40)" fill="#fff" stroke="#ddd" stroke-width="1"/>
      <rect id="Rectangle_22" data-name="Rectangle 22" width="120" height="120" transform="translate(40 160)" fill="#fff" stroke="#ddd" stroke-width="1"/>
      <path id="Rectangle_33" data-name="Rectangle 33" d="M0,0H120a0,0,0,0,1,0,0V120a0,0,0,0,1,0,0H16A16,16,0,0,1,0,104V0A0,0,0,0,1,0,0Z" transform="translate(40 280)" fill="#fff" stroke="#ddd" stroke-width="1"/>
      <rect id="Rectangle_2" data-name="Rectangle 2" width="120" height="120" transform="translate(160 40)" fill="#fff" stroke="#ddd" stroke-width="1"/>
      <rect id="Rectangle_20" data-name="Rectangle 20" width="120" height="120" transform="translate(160 160)" fill="#fff" stroke="#ddd" stroke-width="1"/>
      <rect id="Rectangle_31" data-name="Rectangle 31" width="120" height="120" transform="translate(160 280)" fill="#fff" stroke="#ddd" stroke-width="1"/>
      <rect id="Rectangle_3" data-name="Rectangle 3" width="120" height="120" transform="translate(160 40)" fill="#fff" stroke="#ddd" stroke-width="1"/>
      <rect id="Rectangle_21" data-name="Rectangle 21" width="120" height="120" transform="translate(160 160)" fill="#fff" stroke="#ddd" stroke-width="1"/>
      <rect id="Rectangle_32" data-name="Rectangle 32" width="120" height="120" transform="translate(160 280)" fill="#fff" stroke="#ddd" stroke-width="1"/>
      <rect id="Rectangle_4" data-name="Rectangle 4" width="120" height="120" transform="translate(280 40)" fill="#fff" stroke="#ddd" stroke-width="1"/>
      <rect id="Rectangle_19" data-name="Rectangle 19" width="120" height="120" transform="translate(280 160)" fill="#fff" stroke="#ddd" stroke-width="1"/>
      <rect id="Rectangle_30" data-name="Rectangle 30" width="120" height="120" transform="translate(280 280)" fill="#fff" stroke="#ddd" stroke-width="1"/>
      <rect id="Rectangle_5" data-name="Rectangle 5" width="120" height="120" transform="translate(400 40)" fill="#fff" stroke="#ddd" stroke-width="1"/>
      <rect id="Rectangle_18" data-name="Rectangle 18" width="120" height="120" transform="translate(400 160)" fill="#fff" stroke="#ddd" stroke-width="1"/>
      <rect id="Rectangle_29" data-name="Rectangle 29" width="120" height="120" transform="translate(400 280)" fill="#fff" stroke="#ddd" stroke-width="1"/>
      <rect id="Rectangle_6" data-name="Rectangle 6" width="120" height="120" transform="translate(520 40)" fill="#fff" stroke="#ddd" stroke-width="1"/>
      <rect id="Rectangle_13" data-name="Rectangle 13" width="120" height="120" transform="translate(520 160)" fill="#fff" stroke="#ddd" stroke-width="1"/>
      <rect id="Rectangle_24" data-name="Rectangle 24" width="120" height="120" transform="translate(520 280)" fill="#fff" stroke="#ddd" stroke-width="1"/>
      <rect id="Rectangle_7" data-name="Rectangle 7" width="120" height="120" transform="translate(640 40)" fill="#fff" stroke="#ddd" stroke-width="1"/>
      <rect id="Rectangle_14" data-name="Rectangle 14" width="120" height="120" transform="translate(640 160)" fill="#fff" stroke="#ddd" stroke-width="1"/>
      <rect id="Rectangle_25" data-name="Rectangle 25" width="120" height="120" transform="translate(640 280)" fill="#fff" stroke="#ddd" stroke-width="1"/>
      <rect id="Rectangle_8" data-name="Rectangle 8" width="120" height="120" transform="translate(760 40)" fill="#fff" stroke="#ddd" stroke-width="1"/>
      <rect id="Rectangle_15" data-name="Rectangle 15" width="120" height="120" transform="translate(760 160)" fill="#fff" stroke="#ddd" stroke-width="1"/>
      <rect id="Rectangle_26" data-name="Rectangle 26" width="120" height="120" transform="translate(760 280)" fill="#fff" stroke="#ddd" stroke-width="1"/>
      <rect id="Rectangle_9" data-name="Rectangle 9" width="120" height="120" transform="translate(880 40)" fill="#fff" stroke="#ddd" stroke-width="1"/>
      <rect id="Rectangle_16" data-name="Rectangle 16" width="120" height="120" transform="translate(880 160)" fill="#fff" stroke="#ddd" stroke-width="1"/>
      <rect id="Rectangle_27" data-name="Rectangle 27" width="120" height="120" transform="translate(880 280)" fill="#fff" stroke="#ddd" stroke-width="1"/>
      <path id="Rectangle_10" data-name="Rectangle 10" d="M0,0H104a16,16,0,0,1,16,16V120a0,0,0,0,1,0,0H0a0,0,0,0,1,0,0V0A0,0,0,0,1,0,0Z" transform="translate(1000 40)" fill="#fff" stroke="#ddd" stroke-width="1"/>
      <rect id="Rectangle_17" data-name="Rectangle 17" width="120" height="120" transform="translate(1000 160)" fill="#fff" stroke="#ddd" stroke-width="1"/>
      <path id="Rectangle_28" data-name="Rectangle 28" d="M0,0H120a0,0,0,0,1,0,0V104a16,16,0,0,1-16,16H0a0,0,0,0,1,0,0V0A0,0,0,0,1,0,0Z" transform="translate(1000 280)" fill="#fff" stroke="#ddd" stroke-width="1"/>
    </g>
    <g id="Group_2" class="glyphs" data-name="Group 2">
      <path id="Path_25" data-name="Path 25" d="M21.56-3.2H14.6V-18.64a1.6,1.6,0,0,0-1.6-1.6H6.12V-44.08a1.6,1.6,0,0,0-1.6-1.6H-3.96a1.6,1.6,0,0,0-1.6,1.6v6.88h-6.88a1.6,1.6,0,0,0-1.6,1.6v15.36H-21a1.6,1.6,0,0,0-1.6,1.6V-3.2h-6.88a1.6,1.6,0,0,0-1.6,1.6A1.6,1.6,0,0,0-29.48,0H-21a1.6,1.6,0,0,0,1.6-1.6V-8.48H11.4V-1.6A1.6,1.6,0,0,0,13,0h8.56a1.6,1.6,0,0,0,1.6-1.6A1.6,1.6,0,0,0,21.56-3.2ZM11.4-11.68H-19.4v-5.36h6.96a1.6,1.6,0,0,0,1.6-1.6V-34h6.88a1.6,1.6,0,0,0,1.6-1.6v-6.88H2.92v23.84a1.6,1.6,0,0,0,1.6,1.6H11.4Z" transform="translate(80 107)"/>
      <path id="Path_26" data-name="Path 26" d="M-22.6-18.64v8.56A1.6,1.6,0,0,0-21-8.48h6.88V-1.6A1.6,1.6,0,0,0-12.52,0H4.52a1.6,1.6,0,0,0,1.6-1.6V-8.48H13a1.6,1.6,0,0,0,1.6-1.6v-34a1.6,1.6,0,0,0-1.6-1.6,1.6,1.6,0,0,0-1.6,1.6v32.4H4.52a1.6,1.6,0,0,0-1.6,1.6V-3.2H-10.92v-6.88a1.6,1.6,0,0,0-1.6-1.6H-19.4v-6.96a1.6,1.6,0,0,0-1.6-1.6A1.6,1.6,0,0,0-22.6-18.64Z" transform="translate(80 224)"/>
      <path id="Path_27" data-name="Path 27" d="M14.6-35.6v-8.48a1.6,1.6,0,0,0-1.6-1.6H-12.52a1.6,1.6,0,0,0-1.6,1.6v6.88H-21a1.6,1.6,0,0,0-1.6,1.6v8.48a1.6,1.6,0,0,0,1.6,1.6H-5.56v6.88a1.6,1.6,0,0,0,1.6,1.6H11.4V-3.2H-19.4v-6.88a1.6,1.6,0,0,0-1.6-1.6,1.6,1.6,0,0,0-1.6,1.6V-1.6A1.6,1.6,0,0,0-21,0H13a1.6,1.6,0,0,0,1.6-1.6V-18.64a1.6,1.6,0,0,0-1.6-1.6H-2.36v-6.88a1.6,1.6,0,0,0-1.6-1.6H-19.4V-34h6.88a1.6,1.6,0,0,0,1.6-1.6v-6.88H11.4v6.88A1.6,1.6,0,0,0,13-34,1.6,1.6,0,0,0,14.6-35.6Z" transform="translate(80 341)"/>
      <path id="Path_22" data-name="Path 22" d="M-2.36-20.24v-5.28H4.52a1.6,1.6,0,0,0,1.6-1.6V-34H13a1.6,1.6,0,0,0,1.6-1.6A1.6,1.6,0,0,0,13-37.2H6.12v-6.88a1.6,1.6,0,0,0-1.6-1.6H-21a1.6,1.6,0,0,0-1.6,1.6V-1.6A1.6,1.6,0,0,0-21,0H13a1.6,1.6,0,0,0,1.6-1.6V-18.64a1.6,1.6,0,0,0-1.6-1.6H-2.36Zm-10.16,3.2H11.4V-3.2H-19.4V-17.04Zm0-3.2H-19.4V-42.48H2.92v13.76H-3.96a1.6,1.6,0,0,0-1.6,1.6v6.88Z" transform="translate(200 107)"/>
      <path id="Path_23" data-name="Path 23" d="M-22.6-44.08V-1.6A1.6,1.6,0,0,0-21,0a1.6,1.6,0,0,0,1.6-1.6V-17.04h6.88a1.6,1.6,0,0,0,1.6-1.6v-6.88h6.96a1.6,1.6,0,0,0,1.6-1.6V-34H4.52a1.6,1.6,0,0,0,1.6-1.6v-6.88H13a1.6,1.6,0,0,0,1.6-1.6,1.6,1.6,0,0,0-1.6-1.6H4.52a1.6,1.6,0,0,0-1.6,1.6v6.88H-3.96a1.6,1.6,0,0,0-1.6,1.6v6.88h-6.96a1.6,1.6,0,0,0-1.6,1.6v6.88H-19.4V-44.08a1.6,1.6,0,0,0-1.6-1.6A1.6,1.6,0,0,0-22.6-44.08Zm8.48,16.96v8.48a1.6,1.6,0,0,0,1.6,1.6h6.96v6.96a1.6,1.6,0,0,0,1.6,1.6H2.92V-1.6A1.6,1.6,0,0,0,4.52,0H13a1.6,1.6,0,0,0,1.6-1.6A1.6,1.6,0,0,0,13-3.2H6.12v-6.88a1.6,1.6,0,0,0-1.6-1.6H-2.36v-6.96a1.6,1.6,0,0,0-1.6-1.6h-6.96v-6.88a1.6,1.6,0,0,0-1.6-1.6A1.6,1.6,0,0,0-14.12-27.12Z" transform="translate(200 224)"/>
      <path id="Path_24" data-name="Path 24" d="M-21-42.48H-5.56V-1.6A1.6,1.6,0,0,0-3.96,0a1.6,1.6,0,0,0,1.6-1.6V-42.48H13a1.6,1.6,0,0,0,1.6-1.6,1.6,1.6,0,0,0-1.6-1.6H-21a1.6,1.6,0,0,0-1.6,1.6A1.6,1.6,0,0,0-21-42.48Z" transform="translate(200 341)"/>
      <path id="Path_19" data-name="Path 19" d="M21.56-11.68H13a1.6,1.6,0,0,0-1.6,1.6V-3.2H-19.4V-18.64a1.6,1.6,0,0,0-1.6-1.6h-6.88v-5.28H-21a1.6,1.6,0,0,0,1.6-1.6V-42.48H11.4v6.88A1.6,1.6,0,0,0,13-34h8.56a1.6,1.6,0,0,0,1.6-1.6,1.6,1.6,0,0,0-1.6-1.6H14.6v-6.88a1.6,1.6,0,0,0-1.6-1.6H-21a1.6,1.6,0,0,0-1.6,1.6v15.36h-6.88a1.6,1.6,0,0,0-1.6,1.6v8.48a1.6,1.6,0,0,0,1.6,1.6h6.88V-1.6A1.6,1.6,0,0,0-21,0H13a1.6,1.6,0,0,0,1.6-1.6V-8.48h6.96a1.6,1.6,0,0,0,1.6-1.6A1.6,1.6,0,0,0,21.56-11.68Z" transform="translate(320 107)"/>
      <path id="Path_20" data-name="Path 20" d="M-22.6-44.08V-1.6A1.6,1.6,0,0,0-21,0H13a1.6,1.6,0,0,0,1.6-1.6A1.6,1.6,0,0,0,13-3.2H-19.4V-44.08a1.6,1.6,0,0,0-1.6-1.6A1.6,1.6,0,0,0-22.6-44.08Z" transform="translate(320 224)"/>
      <path id="Path_21" data-name="Path 21" d="M11.4-44.08V-3.2H-19.4V-44.08a1.6,1.6,0,0,0-1.6-1.6,1.6,1.6,0,0,0-1.6,1.6V-1.6A1.6,1.6,0,0,0-21,0H13a1.6,1.6,0,0,0,1.6-1.6V-44.08a1.6,1.6,0,0,0-1.6-1.6A1.6,1.6,0,0,0,11.4-44.08Z" transform="translate(320 341)"/>
      <path id="Path_13" data-name="Path 13" d="M-21,0H13a1.6,1.6,0,0,0,1.6-1.6V-44.08a1.6,1.6,0,0,0-1.6-1.6H-21a1.6,1.6,0,0,0-1.6,1.6V-1.6A1.6,1.6,0,0,0-21,0Zm1.6-3.2V-42.48H11.4V-3.2H-19.4Z" transform="translate(440 107)"/>
      <path id="Path_3" data-name="Path 3" d="M-27.88-1.6V-42.48h5.28v23.84a1.6,1.6,0,0,0,1.6,1.6h6.96V-1.6A1.6,1.6,0,0,0-12.44,0H4.52a1.6,1.6,0,0,0,1.6-1.6V-25.52H13a1.6,1.6,0,0,0,1.6-1.6V-42.48h5.36V-1.6A1.6,1.6,0,0,0,21.56,0a1.6,1.6,0,0,0,1.6-1.6V-44.08a1.6,1.6,0,0,0-1.6-1.6H13a1.6,1.6,0,0,0-1.6,1.6v15.36H4.52a1.6,1.6,0,0,0-1.6,1.6V-3.2H-10.84V-18.64a1.6,1.6,0,0,0-1.6-1.6H-19.4V-44.08a1.6,1.6,0,0,0-1.6-1.6h-8.48a1.6,1.6,0,0,0-1.6,1.6V-1.6A1.6,1.6,0,0,0-29.48,0,1.6,1.6,0,0,0-27.88-1.6Z" transform="translate(440 224)"/>
      <path id="Path_4" data-name="Path 4" d="M-22.6-44.08v16.96a1.6,1.6,0,0,0,1.6,1.6h6.88V-1.6A1.6,1.6,0,0,0-12.52,0H4.52a1.6,1.6,0,0,0,1.6-1.6V-25.52H13a1.6,1.6,0,0,0,1.6-1.6V-44.08a1.6,1.6,0,0,0-1.6-1.6,1.6,1.6,0,0,0-1.6,1.6v15.36H4.52a1.6,1.6,0,0,0-1.6,1.6V-3.2H-10.92V-27.12a1.6,1.6,0,0,0-1.6-1.6H-19.4V-44.08a1.6,1.6,0,0,0-1.6-1.6A1.6,1.6,0,0,0-22.6-44.08Z" transform="translate(440 341)"/>
      <path id="Path_14" data-name="Path 14" d="M13-3.2H-19.4V-17.04H4.52a1.6,1.6,0,0,0,1.6-1.6,1.6,1.6,0,0,0-1.6-1.6H-19.4V-42.48H13a1.6,1.6,0,0,0,1.6-1.6,1.6,1.6,0,0,0-1.6-1.6H-21a1.6,1.6,0,0,0-1.6,1.6V-1.6A1.6,1.6,0,0,0-21,0H13a1.6,1.6,0,0,0,1.6-1.6A1.6,1.6,0,0,0,13-3.2Z" transform="translate(560 107)"/>
      <path id="Path_5" data-name="Path 5" d="M-19.4-1.6V-42.48h5.28v15.36a1.6,1.6,0,0,0,1.6,1.6h6.96v6.88a1.6,1.6,0,0,0,1.6,1.6H2.92V-1.6A1.6,1.6,0,0,0,4.52,0H13a1.6,1.6,0,0,0,1.6-1.6V-44.08a1.6,1.6,0,0,0-1.6-1.6,1.6,1.6,0,0,0-1.6,1.6V-3.2H6.12V-18.64a1.6,1.6,0,0,0-1.6-1.6H-2.36v-6.88a1.6,1.6,0,0,0-1.6-1.6h-6.96V-44.08a1.6,1.6,0,0,0-1.6-1.6H-21a1.6,1.6,0,0,0-1.6,1.6V-1.6A1.6,1.6,0,0,0-21,0,1.6,1.6,0,0,0-19.4-1.6Z" transform="translate(560 224)"/>
      <path id="Path_6" data-name="Path 6" d="M-39.6-44.08v8.48A1.6,1.6,0,0,0-38-34h6.88V-1.6A1.6,1.6,0,0,0-29.52,0h8.56a1.6,1.6,0,0,0,1.6-1.6V-8.48h6.88a1.6,1.6,0,0,0,1.6-1.6V-34H2.88v23.92a1.6,1.6,0,0,0,1.6,1.6h6.96V-1.6A1.6,1.6,0,0,0,13.04,0h8.48a1.6,1.6,0,0,0,1.6-1.6V-34H30a1.6,1.6,0,0,0,1.6-1.6v-8.48a1.6,1.6,0,0,0-1.6-1.6,1.6,1.6,0,0,0-1.6,1.6v6.88H21.52a1.6,1.6,0,0,0-1.6,1.6V-3.2H14.64v-6.88a1.6,1.6,0,0,0-1.6-1.6H6.08V-35.6a1.6,1.6,0,0,0-1.6-1.6H-2.4v-6.88A1.6,1.6,0,0,0-4-45.68a1.6,1.6,0,0,0-1.6,1.6v6.88h-6.88a1.6,1.6,0,0,0-1.6,1.6v23.92h-6.88a1.6,1.6,0,0,0-1.6,1.6V-3.2h-5.36V-35.6a1.6,1.6,0,0,0-1.6-1.6H-36.4v-6.88a1.6,1.6,0,0,0-1.6-1.6A1.6,1.6,0,0,0-39.6-44.08Z" transform="translate(560 341)"/>
      <path id="Path_15" data-name="Path 15" d="M-19.4-1.6V-17.04H4.52a1.6,1.6,0,0,0,1.6-1.6,1.6,1.6,0,0,0-1.6-1.6H-19.4V-42.48H13a1.6,1.6,0,0,0,1.6-1.6,1.6,1.6,0,0,0-1.6-1.6H-21a1.6,1.6,0,0,0-1.6,1.6V-1.6A1.6,1.6,0,0,0-21,0,1.6,1.6,0,0,0-19.4-1.6Z" transform="translate(680 107)"/>
      <path id="Path_7" data-name="Path 7" d="M-31.08-18.64v8.56a1.6,1.6,0,0,0,1.6,1.6h6.88V-1.6A1.6,1.6,0,0,0-21,0H13a1.6,1.6,0,0,0,1.6-1.6V-8.48h6.96a1.6,1.6,0,0,0,1.6-1.6V-35.6a1.6,1.6,0,0,0-1.6-1.6H14.6v-6.88a1.6,1.6,0,0,0-1.6-1.6H-21a1.6,1.6,0,0,0-1.6,1.6v6.88h-6.88a1.6,1.6,0,0,0-1.6,1.6v16.96Zm3.2,0V-34H-21a1.6,1.6,0,0,0,1.6-1.6v-6.88H11.4v6.88A1.6,1.6,0,0,0,13-34h6.96v22.32H13a1.6,1.6,0,0,0-1.6,1.6V-3.2H-19.4v-6.88a1.6,1.6,0,0,0-1.6-1.6h-6.88Z" transform="translate(680 224)"/>
      <path id="Path_8" data-name="Path 8" d="M-21-42.48h6.88v15.36a1.6,1.6,0,0,0,1.6,1.6h6.96v5.28h-6.96a1.6,1.6,0,0,0-1.6,1.6V-3.2H-21a1.6,1.6,0,0,0-1.6,1.6A1.6,1.6,0,0,0-21,0h8.48a1.6,1.6,0,0,0,1.6-1.6V-17.04H2.92V-1.6A1.6,1.6,0,0,0,4.52,0H13a1.6,1.6,0,0,0,1.6-1.6A1.6,1.6,0,0,0,13-3.2H6.12V-18.64a1.6,1.6,0,0,0-1.6-1.6H-2.36v-5.28H4.52a1.6,1.6,0,0,0,1.6-1.6V-42.48H13a1.6,1.6,0,0,0,1.6-1.6,1.6,1.6,0,0,0-1.6-1.6H4.52a1.6,1.6,0,0,0-1.6,1.6v15.36H-10.92V-44.08a1.6,1.6,0,0,0-1.6-1.6H-21a1.6,1.6,0,0,0-1.6,1.6A1.6,1.6,0,0,0-21-42.48Z" transform="translate(680 341)"/>
      <path id="Path_16" data-name="Path 16" d="M-3.96-17.04H19.96v5.36H13a1.6,1.6,0,0,0-1.6,1.6V-3.2H-19.4v-6.88a1.6,1.6,0,0,0-1.6-1.6h-6.88V-34H-21a1.6,1.6,0,0,0,1.6-1.6v-6.88H11.4v6.88A1.6,1.6,0,0,0,13-34h8.56a1.6,1.6,0,0,0,1.6-1.6,1.6,1.6,0,0,0-1.6-1.6H14.6v-6.88a1.6,1.6,0,0,0-1.6-1.6H-21a1.6,1.6,0,0,0-1.6,1.6v6.88h-6.88a1.6,1.6,0,0,0-1.6,1.6v25.52a1.6,1.6,0,0,0,1.6,1.6h6.88V-1.6A1.6,1.6,0,0,0-21,0H13a1.6,1.6,0,0,0,1.6-1.6V-8.48h6.96a1.6,1.6,0,0,0,1.6-1.6v-8.56a1.6,1.6,0,0,0-1.6-1.6H-3.96a1.6,1.6,0,0,0-1.6,1.6A1.6,1.6,0,0,0-3.96-17.04Z" transform="translate(800 107)"/>
      <path id="Path_9" data-name="Path 9" d="M-19.4-17.04H4.52a1.6,1.6,0,0,0,1.6-1.6v-6.88H13a1.6,1.6,0,0,0,1.6-1.6V-44.08a1.6,1.6,0,0,0-1.6-1.6H-21a1.6,1.6,0,0,0-1.6,1.6V-1.6A1.6,1.6,0,0,0-21,0a1.6,1.6,0,0,0,1.6-1.6V-17.04Zm0-3.2V-42.48H11.4v13.76H4.52a1.6,1.6,0,0,0-1.6,1.6v6.88H-19.4Z" transform="translate(800 224)"/>
      <path id="Path_10" data-name="Path 10" d="M-21-42.48h6.88v15.36a1.6,1.6,0,0,0,1.6,1.6h6.96V-1.6A1.6,1.6,0,0,0-3.96,0a1.6,1.6,0,0,0,1.6-1.6V-25.52H4.52a1.6,1.6,0,0,0,1.6-1.6V-34H13a1.6,1.6,0,0,0,1.6-1.6v-8.48a1.6,1.6,0,0,0-1.6-1.6,1.6,1.6,0,0,0-1.6,1.6v6.88H4.52a1.6,1.6,0,0,0-1.6,1.6v6.88H-10.92V-44.08a1.6,1.6,0,0,0-1.6-1.6H-21a1.6,1.6,0,0,0-1.6,1.6A1.6,1.6,0,0,0-21-42.48Z" transform="translate(800 341)"/>
      <path id="Path_17" data-name="Path 17" d="M-22.6-44.08V-1.6A1.6,1.6,0,0,0-21,0a1.6,1.6,0,0,0,1.6-1.6V-44.08a1.6,1.6,0,0,0-1.6-1.6A1.6,1.6,0,0,0-22.6-44.08ZM14.6-1.6V-44.08a1.6,1.6,0,0,0-1.6-1.6,1.6,1.6,0,0,0-1.6,1.6V-1.6A1.6,1.6,0,0,0,13,0,1.6,1.6,0,0,0,14.6-1.6ZM-21-17.04H13a1.6,1.6,0,0,0,1.6-1.6,1.6,1.6,0,0,0-1.6-1.6H-21a1.6,1.6,0,0,0-1.6,1.6A1.6,1.6,0,0,0-21-17.04Z" transform="translate(920 107)"/>
      <path id="Path_11" data-name="Path 11" d="M-31.08-27.12v8.48a1.6,1.6,0,0,0,1.6,1.6h6.88v6.96A1.6,1.6,0,0,0-21-8.48H11.4V-1.6A1.6,1.6,0,0,0,13,0h8.56a1.6,1.6,0,0,0,1.6-1.6,1.6,1.6,0,0,0-1.6-1.6H14.6V-17.04h6.96a1.6,1.6,0,0,0,1.6-1.6V-44.08a1.6,1.6,0,0,0-1.6-1.6H14.6v-6.96a1.6,1.6,0,0,0-1.6-1.6H-21a1.6,1.6,0,0,0-1.6,1.6v6.96h-6.88a1.6,1.6,0,0,0-1.6,1.6v16.96Zm3.2,0V-42.48H-21a1.6,1.6,0,0,0,1.6-1.6v-6.96H11.4v6.96a1.6,1.6,0,0,0,1.6,1.6h6.96v22.24H13a1.6,1.6,0,0,0-1.6,1.6v6.96H6.12v-6.96a1.6,1.6,0,0,0-1.6-1.6,1.6,1.6,0,0,0-1.6,1.6v6.96H-19.4v-6.96a1.6,1.6,0,0,0-1.6-1.6h-6.88Z" transform="translate(920 224)"/>
      <path id="Path_2" data-name="Path 2" d="M-21-42.48H2.92v13.76H-3.96a1.6,1.6,0,0,0-1.6,1.6v6.88h-6.96a1.6,1.6,0,0,0-1.6,1.6V-3.2H-21a1.6,1.6,0,0,0-1.6,1.6A1.6,1.6,0,0,0-21,0H13a1.6,1.6,0,0,0,1.6-1.6A1.6,1.6,0,0,0,13-3.2H-10.92V-17.04h6.96a1.6,1.6,0,0,0,1.6-1.6v-6.88H4.52a1.6,1.6,0,0,0,1.6-1.6V-42.48H13a1.6,1.6,0,0,0,1.6-1.6,1.6,1.6,0,0,0-1.6-1.6H-21a1.6,1.6,0,0,0-1.6,1.6A1.6,1.6,0,0,0-21-42.48Z" transform="translate(920 341)"/>
      <path id="Path_18" data-name="Path 18" d="M-2.4-1.6V-44.08A1.6,1.6,0,0,0-4-45.68a1.6,1.6,0,0,0-1.6,1.6V-1.6A1.6,1.6,0,0,0-4,0,1.6,1.6,0,0,0-2.4-1.6Z" transform="translate(1040 107)"/>
      <path id="Path_12" data-name="Path 12" d="M-19.4-17.04H-5.56v6.96a1.6,1.6,0,0,0,1.6,1.6H2.92V-1.6A1.6,1.6,0,0,0,4.52,0a1.6,1.6,0,0,0,1.6-1.6v-8.48a1.6,1.6,0,0,0-1.6-1.6H-2.36v-5.36H4.52a1.6,1.6,0,0,0,1.6-1.6v-6.88H13a1.6,1.6,0,0,0,1.6-1.6V-44.08a1.6,1.6,0,0,0-1.6-1.6H-21a1.6,1.6,0,0,0-1.6,1.6V-1.6A1.6,1.6,0,0,0-21,0a1.6,1.6,0,0,0,1.6-1.6V-17.04Zm0-3.2V-42.48H11.4v13.76H4.52a1.6,1.6,0,0,0-1.6,1.6v6.88H-19.4Z" transform="translate(1040 224)"/>
    </g>
  </g>
</svg>
