<svg width="100%" viewBox="0 0 1120 400">
  <g id="font_3">
    <g id="bg" class="grid" transform="translate(-20 -20)">
      <path id="Path_1" data-name="Path 1" d="M16,0H120V120H0V16A16,16,0,0,1,16,0Z" transform="translate(40 40)" fill="#fff" stroke="#ddd" stroke-width="1"/>
      <rect id="Rectangle_22" data-name="Rectangle 22" width="120" height="120" transform="translate(40 160)" fill="#fff" stroke="#ddd" stroke-width="1"/>
      <path id="Rectangle_33" data-name="Rectangle 33" d="M0,0H120a0,0,0,0,1,0,0V120a0,0,0,0,1,0,0H16A16,16,0,0,1,0,104V0A0,0,0,0,1,0,0Z" transform="translate(40 280)" fill="#fff" stroke="#ddd" stroke-width="1"/>
      <rect id="Rectangle_2" data-name="Rectangle 2" width="120" height="120" transform="translate(160 40)" fill="#fff" stroke="#ddd" stroke-width="1"/>
      <rect id="Rectangle_20" data-name="Rectangle 20" width="120" height="120" transform="translate(160 160)" fill="#fff" stroke="#ddd" stroke-width="1"/>
      <rect id="Rectangle_31" data-name="Rectangle 31" width="120" height="120" transform="translate(160 280)" fill="#fff" stroke="#ddd" stroke-width="1"/>
      <rect id="Rectangle_3" data-name="Rectangle 3" width="120" height="120" transform="translate(160 40)" fill="#fff" stroke="#ddd" stroke-width="1"/>
      <rect id="Rectangle_21" data-name="Rectangle 21" width="120" height="120" transform="translate(160 160)" fill="#fff" stroke="#ddd" stroke-width="1"/>
      <rect id="Rectangle_32" data-name="Rectangle 32" width="120" height="120" transform="translate(160 280)" fill="#fff" stroke="#ddd" stroke-width="1"/>
      <rect id="Rectangle_4" data-name="Rectangle 4" width="120" height="120" transform="translate(280 40)" fill="#fff" stroke="#ddd" stroke-width="1"/>
      <rect id="Rectangle_19" data-name="Rectangle 19" width="120" height="120" transform="translate(280 160)" fill="#fff" stroke="#ddd" stroke-width="1"/>
      <rect id="Rectangle_30" data-name="Rectangle 30" width="120" height="120" transform="translate(280 280)" fill="#fff" stroke="#ddd" stroke-width="1"/>
      <rect id="Rectangle_5" data-name="Rectangle 5" width="120" height="120" transform="translate(400 40)" fill="#fff" stroke="#ddd" stroke-width="1"/>
      <rect id="Rectangle_18" data-name="Rectangle 18" width="120" height="120" transform="translate(400 160)" fill="#fff" stroke="#ddd" stroke-width="1"/>
      <rect id="Rectangle_29" data-name="Rectangle 29" width="120" height="120" transform="translate(400 280)" fill="#fff" stroke="#ddd" stroke-width="1"/>
      <rect id="Rectangle_6" data-name="Rectangle 6" width="120" height="120" transform="translate(520 40)" fill="#fff" stroke="#ddd" stroke-width="1"/>
      <rect id="Rectangle_13" data-name="Rectangle 13" width="120" height="120" transform="translate(520 160)" fill="#fff" stroke="#ddd" stroke-width="1"/>
      <rect id="Rectangle_24" data-name="Rectangle 24" width="120" height="120" transform="translate(520 280)" fill="#fff" stroke="#ddd" stroke-width="1"/>
      <rect id="Rectangle_7" data-name="Rectangle 7" width="120" height="120" transform="translate(640 40)" fill="#fff" stroke="#ddd" stroke-width="1"/>
      <rect id="Rectangle_14" data-name="Rectangle 14" width="120" height="120" transform="translate(640 160)" fill="#fff" stroke="#ddd" stroke-width="1"/>
      <rect id="Rectangle_25" data-name="Rectangle 25" width="120" height="120" transform="translate(640 280)" fill="#fff" stroke="#ddd" stroke-width="1"/>
      <rect id="Rectangle_8" data-name="Rectangle 8" width="120" height="120" transform="translate(760 40)" fill="#fff" stroke="#ddd" stroke-width="1"/>
      <rect id="Rectangle_15" data-name="Rectangle 15" width="120" height="120" transform="translate(760 160)" fill="#fff" stroke="#ddd" stroke-width="1"/>
      <rect id="Rectangle_26" data-name="Rectangle 26" width="120" height="120" transform="translate(760 280)" fill="#fff" stroke="#ddd" stroke-width="1"/>
      <rect id="Rectangle_9" data-name="Rectangle 9" width="120" height="120" transform="translate(880 40)" fill="#fff" stroke="#ddd" stroke-width="1"/>
      <rect id="Rectangle_16" data-name="Rectangle 16" width="120" height="120" transform="translate(880 160)" fill="#fff" stroke="#ddd" stroke-width="1"/>
      <rect id="Rectangle_27" data-name="Rectangle 27" width="120" height="120" transform="translate(880 280)" fill="#fff" stroke="#ddd" stroke-width="1"/>
      <path id="Rectangle_10" data-name="Rectangle 10" d="M0,0H104a16,16,0,0,1,16,16V120a0,0,0,0,1,0,0H0a0,0,0,0,1,0,0V0A0,0,0,0,1,0,0Z" transform="translate(1000 40)" fill="#fff" stroke="#ddd" stroke-width="1"/>
      <rect id="Rectangle_17" data-name="Rectangle 17" width="120" height="120" transform="translate(1000 160)" fill="#fff" stroke="#ddd" stroke-width="1"/>
      <path id="Rectangle_28" data-name="Rectangle 28" d="M0,0H120a0,0,0,0,1,0,0V104a16,16,0,0,1-16,16H0a0,0,0,0,1,0,0V0A0,0,0,0,1,0,0Z" transform="translate(1000 280)" fill="#fff" stroke="#ddd" stroke-width="1"/>
    </g>
    <g class="glyphs">
    <path id="Path_77" data-name="Path 77" d="M21.48-1.6V-25.44a1.6,1.6,0,0,0-1.6-1.6H-2.36V-49.28a1.6,1.6,0,0,0-1.6-1.6,1.6,1.6,0,0,0-1.6,1.6v22.24H-27.8a1.6,1.6,0,0,0-1.6,1.6V-1.6A1.6,1.6,0,0,0-27.8,0a1.6,1.6,0,0,0,1.6-1.6V-23.84H18.28V-1.6A1.6,1.6,0,0,0,19.88,0,1.6,1.6,0,0,0,21.48-1.6Z" transform="translate(80 107)"/>
    <path id="Path_79" data-name="Path 79" d="M-17.48-25.44V-1.6A1.6,1.6,0,0,0-15.88,0H7.96a1.6,1.6,0,0,0,1.6-1.6V-49.28a1.6,1.6,0,0,0-1.6-1.6,1.6,1.6,0,0,0-1.6,1.6V-3.2H-14.28V-25.44a1.6,1.6,0,0,0-1.6-1.6A1.6,1.6,0,0,0-17.48-25.44Z" transform="translate(80 224)"/>
    <path id="Path_78" data-name="Path 78" d="M21.48-25.44V-49.28a1.6,1.6,0,0,0-1.6-1.6H-27.8a1.6,1.6,0,0,0-1.6,1.6v23.84a1.6,1.6,0,0,0,1.6,1.6H-5.56V-3.2H-27.8a1.6,1.6,0,0,0-1.6,1.6A1.6,1.6,0,0,0-27.8,0H19.88a1.6,1.6,0,0,0,1.6-1.6,1.6,1.6,0,0,0-1.6-1.6H-2.36V-25.44a1.6,1.6,0,0,0-1.6-1.6H-26.2V-47.68H18.28v22.24a1.6,1.6,0,0,0,1.6,1.6A1.6,1.6,0,0,0,21.48-25.44Z" transform="translate(80 341)"/>
    <path id="Path_75" data-name="Path 75" d="M9.56-25.44V-49.28a1.6,1.6,0,0,0-1.6-1.6H-15.88a1.6,1.6,0,0,0-1.6,1.6V-1.6A1.6,1.6,0,0,0-15.88,0H7.96a1.6,1.6,0,0,0,1.6-1.6Zm-3.2-1.6H-14.28V-47.68H6.36Zm-20.64,3.2H6.36V-3.2H-14.28Z" transform="translate(200 107)"/>
    <path id="Path_76" data-name="Path 76" d="M-17.48-49.28V-1.6A1.6,1.6,0,0,0-15.88,0a1.6,1.6,0,0,0,1.6-1.6V-23.84H7.96a1.6,1.6,0,0,0,1.6-1.6V-49.28a1.6,1.6,0,0,0-1.6-1.6,1.6,1.6,0,0,0-1.6,1.6v22.24H-14.28V-49.28a1.6,1.6,0,0,0-1.6-1.6A1.6,1.6,0,0,0-17.48-49.28ZM9.56-25.44a1.6,1.6,0,0,0-1.6-1.6,1.6,1.6,0,0,0-1.6,1.6V-1.6A1.6,1.6,0,0,0,7.96,0a1.6,1.6,0,0,0,1.6-1.6Z" transform="translate(200 224)"/>
    <path id="Path_74" data-name="Path 74" d="M-27.8-47.68H-5.56V-1.6A1.6,1.6,0,0,0-3.96,0a1.6,1.6,0,0,0,1.6-1.6V-47.68H19.88a1.6,1.6,0,0,0,1.6-1.6,1.6,1.6,0,0,0-1.6-1.6H-27.8a1.6,1.6,0,0,0-1.6,1.6A1.6,1.6,0,0,0-27.8-47.68Z" transform="translate(200 341)"/>
    <path id="Path_67" data-name="Path 67" d="M21.48-25.44V-49.28a1.6,1.6,0,0,0-1.6-1.6H-27.8a1.6,1.6,0,0,0-1.6,1.6V-1.6A1.6,1.6,0,0,0-27.8,0H19.88a1.6,1.6,0,0,0,1.6-1.6Zm-3.2,0V-3.2H-26.2V-47.68H18.28Z" transform="translate(320 107)"/>
    <path id="Path_65" data-name="Path 65" d="M-17.48-49.28V-1.6A1.6,1.6,0,0,0-15.88,0H7.96a1.6,1.6,0,0,0,1.6-1.6,1.6,1.6,0,0,0-1.6-1.6H-14.28V-49.28a1.6,1.6,0,0,0-1.6-1.6A1.6,1.6,0,0,0-17.48-49.28Z" transform="translate(320 224)"/>
    <path id="Path_66" data-name="Path 66" d="M18.28-49.28V-3.2H-26.2V-49.28a1.6,1.6,0,0,0-1.6-1.6,1.6,1.6,0,0,0-1.6,1.6V-1.6A1.6,1.6,0,0,0-27.8,0H19.88a1.6,1.6,0,0,0,1.6-1.6V-49.28a1.6,1.6,0,0,0-1.6-1.6A1.6,1.6,0,0,0,18.28-49.28Z" transform="translate(320 341)"/>
    <path id="Path_68" data-name="Path 68" d="M-27.8,0H19.88a1.6,1.6,0,0,0,1.6-1.6V-49.28a1.6,1.6,0,0,0-1.6-1.6H-27.8a1.6,1.6,0,0,0-1.6,1.6V-1.6A1.6,1.6,0,0,0-27.8,0Zm1.6-3.2V-47.68H18.28V-3.2H-26.2Z" transform="translate(440 107)"/>
    <path id="Path_56" data-name="Path 56" d="M-26.2-1.6V-23.84H-5.56V-1.6A1.6,1.6,0,0,0-3.96,0a1.6,1.6,0,0,0,1.6-1.6V-23.84H18.28V-1.6A1.6,1.6,0,0,0,19.88,0a1.6,1.6,0,0,0,1.6-1.6V-49.28a1.6,1.6,0,0,0-1.6-1.6,1.6,1.6,0,0,0-1.6,1.6v22.24H-26.2V-49.28a1.6,1.6,0,0,0-1.6-1.6,1.6,1.6,0,0,0-1.6,1.6V-1.6A1.6,1.6,0,0,0-27.8,0,1.6,1.6,0,0,0-26.2-1.6Z" transform="translate(440 224)"/>
    <path id="Path_57" data-name="Path 57" d="M-29.4-49.28v23.84a1.6,1.6,0,0,0,1.6,1.6H-5.56V-1.6A1.6,1.6,0,0,0-3.96,0a1.6,1.6,0,0,0,1.6-1.6V-23.84H19.88a1.6,1.6,0,0,0,1.6-1.6V-49.28a1.6,1.6,0,0,0-1.6-1.6,1.6,1.6,0,0,0-1.6,1.6v22.24H-26.2V-49.28a1.6,1.6,0,0,0-1.6-1.6A1.6,1.6,0,0,0-29.4-49.28Z" transform="translate(440 341)"/>
    <path id="Path_69" data-name="Path 69" d="M7.96-3.2H-14.28V-23.84H7.96a1.6,1.6,0,0,0,1.6-1.6,1.6,1.6,0,0,0-1.6-1.6H-14.28V-47.68H7.96a1.6,1.6,0,0,0,1.6-1.6,1.6,1.6,0,0,0-1.6-1.6H-15.88a1.6,1.6,0,0,0-1.6,1.6V-1.6A1.6,1.6,0,0,0-15.88,0H7.96a1.6,1.6,0,0,0,1.6-1.6A1.6,1.6,0,0,0,7.96-3.2Z" transform="translate(560 107)"/>
    <path id="Path_58" data-name="Path 58" d="M-26.2-1.6V-47.68H-5.56V-1.6A1.6,1.6,0,0,0-3.96,0H19.88a1.6,1.6,0,0,0,1.6-1.6V-49.28a1.6,1.6,0,0,0-1.6-1.6,1.6,1.6,0,0,0-1.6,1.6V-3.2H-2.36V-49.28a1.6,1.6,0,0,0-1.6-1.6H-27.8a1.6,1.6,0,0,0-1.6,1.6V-1.6A1.6,1.6,0,0,0-27.8,0,1.6,1.6,0,0,0-26.2-1.6Z" transform="translate(560 224)"/>
    <path id="Path_59" data-name="Path 59" d="M-39.68-47.68h22.16V-1.6A1.6,1.6,0,0,0-15.92,0a1.6,1.6,0,0,0,1.6-1.6V-23.84H6.32V-1.6A1.6,1.6,0,0,0,7.92,0H31.76a1.6,1.6,0,0,0,1.6-1.6V-49.28a1.6,1.6,0,0,0-1.6-1.6,1.6,1.6,0,0,0-1.6,1.6V-3.2H9.52V-49.28a1.6,1.6,0,0,0-1.6-1.6,1.6,1.6,0,0,0-1.6,1.6v22.24H-14.32V-49.28a1.6,1.6,0,0,0-1.6-1.6H-39.68a1.6,1.6,0,0,0-1.6,1.6A1.6,1.6,0,0,0-39.68-47.68Z" transform="translate(560 341)"/>
    <path id="Path_70" data-name="Path 70" d="M-14.28-1.6V-23.84H7.96a1.6,1.6,0,0,0,1.6-1.6,1.6,1.6,0,0,0-1.6-1.6H-14.28V-47.68H7.96a1.6,1.6,0,0,0,1.6-1.6,1.6,1.6,0,0,0-1.6-1.6H-15.88a1.6,1.6,0,0,0-1.6,1.6V-1.6A1.6,1.6,0,0,0-15.88,0,1.6,1.6,0,0,0-14.28-1.6Z" transform="translate(680 107)"/>
    <path id="Path_60" data-name="Path 60" d="M-29.4-25.44V-1.6A1.6,1.6,0,0,0-27.8,0H19.88a1.6,1.6,0,0,0,1.6-1.6V-49.28a1.6,1.6,0,0,0-1.6-1.6H-27.8a1.6,1.6,0,0,0-1.6,1.6Zm3.2,0V-47.68H18.28V-3.2H-26.2Z" transform="translate(680 224)"/>
    <path id="Path_61" data-name="Path 61" d="M-29.4-49.28v23.84a1.6,1.6,0,0,0,1.6,1.6H-5.56V-3.2H-27.8a1.6,1.6,0,0,0-1.6,1.6A1.6,1.6,0,0,0-27.8,0H19.88a1.6,1.6,0,0,0,1.6-1.6,1.6,1.6,0,0,0-1.6-1.6H-2.36V-47.68H19.88a1.6,1.6,0,0,0,1.6-1.6,1.6,1.6,0,0,0-1.6-1.6H-3.96a1.6,1.6,0,0,0-1.6,1.6v22.24H-26.2V-49.28a1.6,1.6,0,0,0-1.6-1.6A1.6,1.6,0,0,0-29.4-49.28Z" transform="translate(680 341)"/>
    <path id="Path_71" data-name="Path 71" d="M21.48-25.44V-49.28a1.6,1.6,0,0,0-1.6-1.6H-27.8a1.6,1.6,0,0,0-1.6,1.6V-1.6A1.6,1.6,0,0,0-27.8,0H19.88a1.6,1.6,0,0,0,1.6-1.6Zm-25.44,1.6H18.28V-3.2H-26.2V-47.68H18.28v20.64H-3.96a1.6,1.6,0,0,0-1.6,1.6A1.6,1.6,0,0,0-3.96-23.84Z" transform="translate(800 107)"/>
    <path id="Path_62" data-name="Path 62" d="M-14.28-23.84H7.96a1.6,1.6,0,0,0,1.6-1.6V-49.28a1.6,1.6,0,0,0-1.6-1.6H-15.88a1.6,1.6,0,0,0-1.6,1.6V-1.6A1.6,1.6,0,0,0-15.88,0a1.6,1.6,0,0,0,1.6-1.6Zm0-3.2V-47.68H6.36v20.64Z" transform="translate(800 224)"/>
    <path id="Path_54" data-name="Path 54" d="M-29.4-49.28v23.84a1.6,1.6,0,0,0,1.6,1.6H-5.56V-1.6A1.6,1.6,0,0,0-3.96,0a1.6,1.6,0,0,0,1.6-1.6V-47.68H19.88a1.6,1.6,0,0,0,1.6-1.6,1.6,1.6,0,0,0-1.6-1.6H-3.96a1.6,1.6,0,0,0-1.6,1.6v22.24H-26.2V-49.28a1.6,1.6,0,0,0-1.6-1.6A1.6,1.6,0,0,0-29.4-49.28Z" transform="translate(800 341)"/>
    <path id="Path_72" data-name="Path 72" d="M-27.8-23.84H19.88a1.6,1.6,0,0,0,1.6-1.6,1.6,1.6,0,0,0-1.6-1.6H-27.8a1.6,1.6,0,0,0-1.6,1.6A1.6,1.6,0,0,0-27.8-23.84Zm-1.6-25.44V-1.6A1.6,1.6,0,0,0-27.8,0a1.6,1.6,0,0,0,1.6-1.6V-49.28a1.6,1.6,0,0,0-1.6-1.6A1.6,1.6,0,0,0-29.4-49.28ZM21.48-1.6V-49.28a1.6,1.6,0,0,0-1.6-1.6,1.6,1.6,0,0,0-1.6,1.6V-1.6A1.6,1.6,0,0,0,19.88,0,1.6,1.6,0,0,0,21.48-1.6Z" transform="translate(920 107)"/>
    <path id="Path_63" data-name="Path 63" d="M-29.4-25.44V-1.6A1.6,1.6,0,0,0-27.8,0H19.88a1.6,1.6,0,0,0,1.6-1.6V-49.28a1.6,1.6,0,0,0-1.6-1.6H-27.8a1.6,1.6,0,0,0-1.6,1.6Zm3.2,0V-47.68H18.28V-3.2H-2.36V-25.44a1.6,1.6,0,0,0-1.6-1.6,1.6,1.6,0,0,0-1.6,1.6V-3.2H-26.2Z" transform="translate(920 224)"/>
    <path id="Path_55" data-name="Path 55" d="M-27.8-47.68H-5.56V-3.2H-27.8a1.6,1.6,0,0,0-1.6,1.6A1.6,1.6,0,0,0-27.8,0H19.88a1.6,1.6,0,0,0,1.6-1.6,1.6,1.6,0,0,0-1.6-1.6H-2.36V-47.68H19.88a1.6,1.6,0,0,0,1.6-1.6,1.6,1.6,0,0,0-1.6-1.6H-27.8a1.6,1.6,0,0,0-1.6,1.6A1.6,1.6,0,0,0-27.8-47.68Z" transform="translate(920 341)"/>
    <path id="Path_73" data-name="Path 73" d="M-2.4-1.6V-49.28A1.6,1.6,0,0,0-4-50.88a1.6,1.6,0,0,0-1.6,1.6V-1.6A1.6,1.6,0,0,0-4,0,1.6,1.6,0,0,0-2.4-1.6Z" transform="translate(1040 107)"/>
    <path id="Path_64" data-name="Path 64" d="M-14.28-23.84H6.36V-1.6A1.6,1.6,0,0,0,7.96,0a1.6,1.6,0,0,0,1.6-1.6V-49.28a1.6,1.6,0,0,0-1.6-1.6H-15.88a1.6,1.6,0,0,0-1.6,1.6V-1.6A1.6,1.6,0,0,0-15.88,0a1.6,1.6,0,0,0,1.6-1.6Zm0-3.2V-47.68H6.36v20.64Z" transform="translate(1040 224)"/>
  </g>
  </g>
</svg>
