<svg width="100%" viewBox="0 0 1120 400">
  <g id="font_5">
    <g id="bg" class="grid" transform="translate(-20 -20)">
      <path id="Path_1" data-name="Path 1" d="M16,0H120V120H0V16A16,16,0,0,1,16,0Z" transform="translate(40 40)" fill="#fff" stroke="#ddd" stroke-width="1"/>
      <rect id="Rectangle_22" data-name="Rectangle 22" width="120" height="120" transform="translate(40 160)" fill="#fff" stroke="#ddd" stroke-width="1"/>
      <path id="Rectangle_33" data-name="Rectangle 33" d="M0,0H120a0,0,0,0,1,0,0V120a0,0,0,0,1,0,0H16A16,16,0,0,1,0,104V0A0,0,0,0,1,0,0Z" transform="translate(40 280)" fill="#fff" stroke="#ddd" stroke-width="1"/>
      <rect id="Rectangle_2" data-name="Rectangle 2" width="120" height="120" transform="translate(160 40)" fill="#fff" stroke="#ddd" stroke-width="1"/>
      <rect id="Rectangle_20" data-name="Rectangle 20" width="120" height="120" transform="translate(160 160)" fill="#fff" stroke="#ddd" stroke-width="1"/>
      <rect id="Rectangle_31" data-name="Rectangle 31" width="120" height="120" transform="translate(160 280)" fill="#fff" stroke="#ddd" stroke-width="1"/>
      <rect id="Rectangle_3" data-name="Rectangle 3" width="120" height="120" transform="translate(160 40)" fill="#fff" stroke="#ddd" stroke-width="1"/>
      <rect id="Rectangle_21" data-name="Rectangle 21" width="120" height="120" transform="translate(160 160)" fill="#fff" stroke="#ddd" stroke-width="1"/>
      <rect id="Rectangle_32" data-name="Rectangle 32" width="120" height="120" transform="translate(160 280)" fill="#fff" stroke="#ddd" stroke-width="1"/>
      <rect id="Rectangle_4" data-name="Rectangle 4" width="120" height="120" transform="translate(280 40)" fill="#fff" stroke="#ddd" stroke-width="1"/>
      <rect id="Rectangle_19" data-name="Rectangle 19" width="120" height="120" transform="translate(280 160)" fill="#fff" stroke="#ddd" stroke-width="1"/>
      <rect id="Rectangle_30" data-name="Rectangle 30" width="120" height="120" transform="translate(280 280)" fill="#fff" stroke="#ddd" stroke-width="1"/>
      <rect id="Rectangle_5" data-name="Rectangle 5" width="120" height="120" transform="translate(400 40)" fill="#fff" stroke="#ddd" stroke-width="1"/>
      <rect id="Rectangle_18" data-name="Rectangle 18" width="120" height="120" transform="translate(400 160)" fill="#fff" stroke="#ddd" stroke-width="1"/>
      <rect id="Rectangle_29" data-name="Rectangle 29" width="120" height="120" transform="translate(400 280)" fill="#fff" stroke="#ddd" stroke-width="1"/>
      <rect id="Rectangle_6" data-name="Rectangle 6" width="120" height="120" transform="translate(520 40)" fill="#fff" stroke="#ddd" stroke-width="1"/>
      <rect id="Rectangle_13" data-name="Rectangle 13" width="120" height="120" transform="translate(520 160)" fill="#fff" stroke="#ddd" stroke-width="1"/>
      <rect id="Rectangle_24" data-name="Rectangle 24" width="120" height="120" transform="translate(520 280)" fill="#fff" stroke="#ddd" stroke-width="1"/>
      <rect id="Rectangle_7" data-name="Rectangle 7" width="120" height="120" transform="translate(640 40)" fill="#fff" stroke="#ddd" stroke-width="1"/>
      <rect id="Rectangle_14" data-name="Rectangle 14" width="120" height="120" transform="translate(640 160)" fill="#fff" stroke="#ddd" stroke-width="1"/>
      <rect id="Rectangle_25" data-name="Rectangle 25" width="120" height="120" transform="translate(640 280)" fill="#fff" stroke="#ddd" stroke-width="1"/>
      <rect id="Rectangle_8" data-name="Rectangle 8" width="120" height="120" transform="translate(760 40)" fill="#fff" stroke="#ddd" stroke-width="1"/>
      <rect id="Rectangle_15" data-name="Rectangle 15" width="120" height="120" transform="translate(760 160)" fill="#fff" stroke="#ddd" stroke-width="1"/>
      <rect id="Rectangle_26" data-name="Rectangle 26" width="120" height="120" transform="translate(760 280)" fill="#fff" stroke="#ddd" stroke-width="1"/>
      <rect id="Rectangle_9" data-name="Rectangle 9" width="120" height="120" transform="translate(880 40)" fill="#fff" stroke="#ddd" stroke-width="1"/>
      <rect id="Rectangle_16" data-name="Rectangle 16" width="120" height="120" transform="translate(880 160)" fill="#fff" stroke="#ddd" stroke-width="1"/>
      <rect id="Rectangle_27" data-name="Rectangle 27" width="120" height="120" transform="translate(880 280)" fill="#fff" stroke="#ddd" stroke-width="1"/>
      <path id="Rectangle_10" data-name="Rectangle 10" d="M0,0H104a16,16,0,0,1,16,16V120a0,0,0,0,1,0,0H0a0,0,0,0,1,0,0V0A0,0,0,0,1,0,0Z" transform="translate(1000 40)" fill="#fff" stroke="#ddd" stroke-width="1"/>
      <rect id="Rectangle_17" data-name="Rectangle 17" width="120" height="120" transform="translate(1000 160)" fill="#fff" stroke="#ddd" stroke-width="1"/>
      <path id="Rectangle_28" data-name="Rectangle 28" d="M0,0H120a0,0,0,0,1,0,0V104a16,16,0,0,1-16,16H0a0,0,0,0,1,0,0V0A0,0,0,0,1,0,0Z" transform="translate(1000 280)" fill="#fff" stroke="#ddd" stroke-width="1"/>
    </g>
    <g id="Group_3" class="glyphs" data-name="Group 3">
      <path id="Path_129" data-name="Path 129" d="M23-1.84,19.48-24.56,15.96-47.28a1.506,1.506,0,0,0-1.6-1.36H-11.88c-.88,0-.64-.08-1.2.56-.56.72-.48.48-.32,1.36l3.44,22L-30.52-2.64a1.722,1.722,0,0,0,.08,2.32A1.722,1.722,0,0,0-28.12-.4L-7.56-22.64H16.6L19.96-1.28A1.561,1.561,0,0,0,21.8,0a1.561,1.561,0,0,0,1.28-1.84ZM16.12-25.92H-6.84L-9.96-45.44H13.08Z" transform="translate(80 107)"/>
      <path id="Path_130" data-name="Path 130" d="M-20.48-24.08l3.6,22.72A1.389,1.389,0,0,0-15.36,0H10.88c.88,0,.64.08,1.2-.56s.48-.4.32-1.28L8.8-24.56,5.28-47.28a1.561,1.561,0,0,0-1.84-1.28A1.449,1.449,0,0,0,2.16-46.8L5.68-24.08h0L8.96-3.2H-14.08l-3.28-21.36a1.561,1.561,0,0,0-1.84-1.28A1.561,1.561,0,0,0-20.48-24Z" transform="translate(80 224)"/>
      <path id="Path_131" data-name="Path 131" d="M5.6-48.64H-20.64c-.88,0-.64-.08-1.2.56-.56.72-.48.48-.32,1.36L-18.56-24l3.52,22.72A1.506,1.506,0,0,0-13.44.08H12.8c.88,0,.64.08,1.2-.56s.48-.4.32-1.28L10.8-24.48a1.506,1.506,0,0,0-1.6-1.36H-15.6l-3.12-19.52H5.68a1.6,1.6,0,0,0,1.6-1.6,1.6,1.6,0,0,0-1.6-1.6Zm-20.72,26H7.84L10.88-3.12H-12.08Z" transform="translate(80 341)"/>
      <path id="Path_119" data-name="Path 119" d="M10.72-24.56,7.2-47.28a1.506,1.506,0,0,0-1.6-1.36H-20.64c-.88,0-.64-.08-1.2.56-.56.72-.48.48-.32,1.36L-18.56-24l3.52,22.72A1.506,1.506,0,0,0-13.44.08H12.8c.88,0,.64.08,1.2-.56s.48-.4.32-1.28L10.8-24.48Zm-25.84,1.92H7.84L10.88-3.12H-12.08Zm-.48-3.2-3.12-19.52H4.32L7.36-25.84Z" transform="translate(200 107)"/>
      <path id="Path_120" data-name="Path 120" d="M-13.48-46.8l3.44,22L-30.6-2.72A1.722,1.722,0,0,0-30.52-.4,1.722,1.722,0,0,0-28.2-.48L-7.16-23.2c.64-.64.56-.48.4-1.36l-3.28-20.88h24.4a1.6,1.6,0,0,0,1.6-1.6,1.6,1.6,0,0,0-1.6-1.6H-11.88c-.88,0-.64-.08-1.2.56-.56.72-.48.48-.32,1.36ZM21.56-3.12H-3.32L-6.68-24.48a1.449,1.449,0,0,0-1.76-1.28,1.567,1.567,0,0,0-1.2,1.84L-6.12-1.2A1.506,1.506,0,0,0-4.52.16H21.72a1.6,1.6,0,0,0,1.6-1.6,1.6,1.6,0,0,0-1.6-1.6Z" transform="translate(200 224)"/>
      <path id="Path_121" data-name="Path 121" d="M-15.24-45.44H9.16a1.6,1.6,0,0,0,1.6-1.6,1.6,1.6,0,0,0-1.6-1.6H-17.08c-.88,0-.64-.08-1.2.56-.56.72-.48.48-.32,1.36L-15-24l3.52,22.72A1.561,1.561,0,0,0-9.64,0,1.561,1.561,0,0,0-8.36-1.84l-3.6-22.72h0Z" transform="translate(200 341)"/>
      <path id="Path_122" data-name="Path 122" d="M18.92-24.08,22.2-3.2H-23.16l18.56-20c.64-.64.72-.88.4-1.68s-.56-.96-1.44-.96h-22.4L-8.52-45.36H17a1.6,1.6,0,0,0,1.6-1.6,1.6,1.6,0,0,0-1.6-1.6H-9.24c-.88,0-.48-.16-1.12.48L-33-25.36a1.3,1.3,0,0,0-.4,1.76c.32.8.56.96,1.44.96H-9.4l-18.56,20c-.64.64-.72.88-.4,1.68s.56.96,1.44.96H23.96c.88,0,.64.08,1.2-.56s.48-.4.32-1.28l-3.6-22.72a1.561,1.561,0,0,0-1.84-1.28,1.449,1.449,0,0,0-1.28,1.76Z" transform="translate(320 107)"/>
      <path id="Path_117" data-name="Path 117" d="M-22.24-46.8l3.6,22.72,3.52,22.72A1.506,1.506,0,0,0-13.52,0H12.72a1.6,1.6,0,0,0,1.6-1.6,1.6,1.6,0,0,0-1.6-1.6H-12.16l-3.36-21.36h0l-3.52-22.72a1.561,1.561,0,0,0-1.84-1.28,1.449,1.449,0,0,0-1.28,1.76Z" transform="translate(320 224)"/>
      <path id="Path_118" data-name="Path 118" d="M4-46.8,7.52-24.08h0L10.8-3.2H-12.16l-3.36-21.36h0l-3.52-22.72a1.561,1.561,0,0,0-1.84-1.28,1.449,1.449,0,0,0-1.28,1.76l3.6,22.72,3.52,22.72A1.506,1.506,0,0,0-13.44,0H12.8c.88,0,.64.08,1.2-.56s.48-.4.32-1.28L10.8-24.56,7.28-47.28a1.561,1.561,0,0,0-1.84-1.28A1.449,1.449,0,0,0,4.16-46.8Z" transform="translate(320 341)"/>
      <path id="Path_123" data-name="Path 123" d="M-29.4,0c.64-.64.72-.88.4-1.68-.4-.8-.64-.96-1.52-.96L-9.96-24.72l-3.44-22c.88,0,.64.08,1.2-.56.64-.64.56-.4.4-1.28H14.44a1.506,1.506,0,0,0,1.6,1.36l3.52,22.72L23.08-1.76c-.88,0-.64-.08-1.2.56s-.48.4-.32,1.28H-29.32ZM-4.68-3.12H19.64L16.36-24h0L13.08-45.36H-9.96l3.28,20.88c.16.88.24.72-.4,1.36l-18.56,20Z" transform="translate(440 107)"/>
      <path id="Path_115" data-name="Path 115" d="M-22.72-1.92l-5.12-22.72-4.72-20.8h24.4L-4.8-24.08-1.2-1.36c.08.88.16,1.04.96,1.28C.64.16.8.16,1.44-.48l20.4-20.48,3.04,19.6A1.561,1.561,0,0,0,26.72-.08,1.561,1.561,0,0,0,28-1.92L24.4-24.64,20.88-47.36a1.561,1.561,0,0,0-1.84-1.28,1.449,1.449,0,0,0-1.28,1.76l3.36,21.92L1.28-5.04l-3.04-19.6h0l-3.6-22.72a1.389,1.389,0,0,0-1.52-1.36H-34.72c-.88,0-.72-.08-1.28.64s-.48.56-.32,1.44L-31.12-24-26-1.28A1.641,1.641,0,0,0-24.08,0,1.768,1.768,0,0,0-22.8-2Z" transform="translate(440 224)"/>
      <path id="Path_116" data-name="Path 116" d="M-20.48-46.8l3.6,22.72,3.52,22.72c.16.88.24,1.04,1.04,1.28s.96.24,1.6-.4L11.92-23.2c.64-.56.64-.4.48-1.28L8.88-47.2a1.561,1.561,0,0,0-1.84-1.28,1.449,1.449,0,0,0-1.28,1.76L9.2-24.8-10.64-4.88l-3.12-19.6h0L-17.28-47.2a1.561,1.561,0,0,0-1.84-1.28,1.449,1.449,0,0,0-1.28,1.76Z" transform="translate(440 341)"/>
      <path id="Path_124" data-name="Path 124" d="M12.72-3.2H-12.16L-15.2-22.72H9.12a1.6,1.6,0,0,0,1.6-1.6,1.6,1.6,0,0,0-1.6-1.6h-24.8L-18.8-45.44H5.6a1.6,1.6,0,0,0,1.6-1.6,1.6,1.6,0,0,0-1.6-1.6H-20.64c-.88,0-.64-.08-1.2.56-.56.72-.48.48-.32,1.36L-18.56-24l3.52,22.72A1.506,1.506,0,0,0-13.44.08H12.8a1.6,1.6,0,0,0,1.6-1.6,1.6,1.6,0,0,0-1.6-1.6Z" transform="translate(560 107)"/>
      <path id="Path_108" data-name="Path 108" d="M-28.2-.48a1.722,1.722,0,0,0-.08-2.32,1.722,1.722,0,0,0-2.32.08L-10.04-24.8l-3.44-22a1.561,1.561,0,0,0,1.84,1.28,1.561,1.561,0,0,0,1.28-1.84L-7-26H15.96L12.68-46.88a1.561,1.561,0,0,0,1.84,1.28,1.561,1.561,0,0,0,1.28-1.84l3.52,22.72L22.84-2a1.449,1.449,0,0,0-1.76-1.28A1.561,1.561,0,0,0,19.8-1.44L16.44-22.8H-7.72L-28.28-.56Z" transform="translate(560 224)"/>
      <path id="Path_109" data-name="Path 109" d="M-45.72-46.64-40.52-24-35.4-1.28A1.371,1.371,0,0,0-33.88,0H-9.32c.88,0,.64.08,1.2-.56s.48-.4.32-1.28l-3.52-22.72h0L-14.6-45.44H8.36l3.36,21.36h0L15.24-1.36A1.561,1.561,0,0,0,17.08-.08a1.561,1.561,0,0,0,1.28-1.84L14.92-23.84,37-45.92a1.642,1.642,0,0,0,0-2.32,1.642,1.642,0,0,0-2.32,0L14.2-27.76l-3.04-19.6a1.506,1.506,0,0,0-1.6-1.36H-16.6c-.88,0-.64-.08-1.2.56-.56.72-.48.48-.32,1.36l3.52,22.72L-11.32-3.2H-32.84l-4.8-21.44-5.12-22.72a1.768,1.768,0,0,0-2-1.28,1.641,1.641,0,0,0-1.28,1.92Z" transform="translate(560 341)"/>
      <path id="Path_125" data-name="Path 125" d="M-10.16-1.84l-3.28-20.88H10.88a1.6,1.6,0,0,0,1.6-1.6,1.6,1.6,0,0,0-1.6-1.6h-24.8l-3.12-19.52H7.36a1.6,1.6,0,0,0,1.6-1.6,1.6,1.6,0,0,0-1.6-1.6H-18.88c-.88,0-.64-.08-1.2.56-.56.72-.48.48-.32,1.36L-16.8-24l3.52,22.72A1.561,1.561,0,0,0-11.44,0,1.561,1.561,0,0,0-10.16-1.84Z" transform="translate(680 107)"/>
      <path id="Path_110" data-name="Path 110" d="M-33.08-25.44c-.64.64-.64.64-.48,1.52l5.2,22.72A1.371,1.371,0,0,0-26.84.08H24.04c.88,0,.64.08,1.2-.56s.48-.4.32-1.28l-3.6-22.72L18.44-47.2a1.506,1.506,0,0,0-1.6-1.36H-9.4c-.88,0-.48-.16-1.12.48L-33.16-25.36Zm2.8,1.68,21.6-21.6H15.48L18.84-24h0L22.12-3.12H-25.64Z" transform="translate(680 224)"/>
      <path id="Path_111" data-name="Path 111" d="M-22.24-46.8l3.6,22.72,3.52,22.72A1.561,1.561,0,0,0-13.28-.08,1.561,1.561,0,0,0-12-1.92L-15.28-22.8H7.68L11.04-1.44A1.561,1.561,0,0,0,12.88-.16,1.561,1.561,0,0,0,14.16-2L10.64-24.72a1.506,1.506,0,0,0-1.6-1.36H-13.28L6.64-46a1.642,1.642,0,0,0,0-2.32,1.642,1.642,0,0,0-2.32,0L-16.16-27.84l-3.04-19.6a1.561,1.561,0,0,0-1.84-1.28,1.449,1.449,0,0,0-1.28,1.76Z" transform="translate(680 341)"/>
      <path id="Path_126" data-name="Path 126" d="M-5.72-22.72h24.8L22.2-3.2H-25.56L-30.2-23.84l21.6-21.6H16.92a1.6,1.6,0,0,0,1.6-1.6,1.6,1.6,0,0,0-1.6-1.6H-9.32c-.88,0-.48-.16-1.12.48L-33.08-25.44c-.64.64-.64.64-.48,1.52l5.2,22.72A1.371,1.371,0,0,0-26.84.08H24.04c.88,0,.64.08,1.2-.56s.48-.4.32-1.28l-3.6-22.72a1.506,1.506,0,0,0-1.6-1.36H-5.8a1.6,1.6,0,0,0-1.6,1.6,1.6,1.6,0,0,0,1.6,1.6Z" transform="translate(800 107)"/>
      <path id="Path_112" data-name="Path 112" d="M-13.44-22.72H10.88c.88,0,.64.08,1.2-.56s.48-.4.32-1.28L8.88-47.28a1.506,1.506,0,0,0-1.6-1.36H-18.96c-.88,0-.64-.08-1.2.56-.56.72-.48.48-.32,1.36L-16.88-24l3.52,22.72A1.561,1.561,0,0,0-11.52,0a1.561,1.561,0,0,0,1.28-1.84l-3.28-20.88Zm-.56-3.2-3.12-19.52H5.92L8.96-25.92Z" transform="translate(800 224)"/>
      <path id="Path_106" data-name="Path 106" d="M-20.48-46.8l3.6,22.72,3.52,22.72A1.561,1.561,0,0,0-11.52-.08a1.561,1.561,0,0,0,1.28-1.84L-13.52-22.8H10.8c.88,0,.64.08,1.2-.56s.48-.4.32-1.28L8.8-47.36a1.561,1.561,0,0,0-1.84-1.28,1.449,1.449,0,0,0-1.28,1.76L8.96-26H-14l-3.36-21.36a1.561,1.561,0,0,0-1.84-1.28,1.449,1.449,0,0,0-1.28,1.76Z" transform="translate(800 341)"/>
      <path id="Path_127" data-name="Path 127" d="M-13.48-46.8l3.44,22L-30.6-2.72A1.722,1.722,0,0,0-30.52-.4,1.722,1.722,0,0,0-28.2-.48L-7.16-23.2c.64-.64.56-.48.4-1.36l-3.52-22.72a1.561,1.561,0,0,0-1.84-1.28A1.449,1.449,0,0,0-13.4-46.8ZM23.08-1.84,19.56-24.56,16.04-47.28a1.561,1.561,0,0,0-1.84-1.28,1.449,1.449,0,0,0-1.28,1.76l3.52,22.72h0l3.6,22.72A1.561,1.561,0,0,0,21.88-.08a1.561,1.561,0,0,0,1.28-1.84ZM-8.12-22.8H18.04a1.6,1.6,0,0,0,1.6-1.6,1.6,1.6,0,0,0-1.6-1.6H-8.12a1.6,1.6,0,0,0-1.6,1.6A1.6,1.6,0,0,0-8.12-22.8Z" transform="translate(920 107)"/>
      <path id="Path_113" data-name="Path 113" d="M-33.08-25.44c-.64.64-.64.64-.48,1.52l5.2,22.72A1.371,1.371,0,0,0-26.84.08H24.04c.88,0,.64.08,1.2-.56s.48-.4.32-1.28l-3.6-22.72L18.44-47.2a1.506,1.506,0,0,0-1.6-1.36H-9.4c-.88,0-.48-.16-1.12.48L-33.16-25.36Zm2.8,1.68,21.6-21.6H15.48l3.04,19.52H-5.8a1.6,1.6,0,0,0-1.6,1.6,1.6,1.6,0,0,0,1.6,1.6H19L22.12-3.12H-25.64Z" transform="translate(920 224)"/>
      <path id="Path_107" data-name="Path 107" d="M-11.88-45.44h22.4l-20,20c-.56.64-.56.48-.4,1.36L-6.68-3.2H-29.4A1.6,1.6,0,0,0-31-1.6,1.6,1.6,0,0,0-29.4,0H21.48a1.6,1.6,0,0,0,1.6-1.6,1.6,1.6,0,0,0-1.6-1.6H-3.4L-6.6-23.76,15.48-45.84a1.3,1.3,0,0,0,.4-1.76c-.32-.8-.56-.96-1.44-.96H-11.8a1.6,1.6,0,0,0-1.6,1.6,1.6,1.6,0,0,0,1.6,1.6Z" transform="translate(920 341)"/>
      <path id="Path_128" data-name="Path 128" d="M1.2-1.84-2.4-24.56h0L-5.92-47.28a1.561,1.561,0,0,0-1.84-1.28A1.449,1.449,0,0,0-9.04-46.8l3.6,22.72L-1.92-1.36A1.561,1.561,0,0,0-.08-.08,1.561,1.561,0,0,0,1.2-1.92Z" transform="translate(1040 107)"/>
      <path id="Path_114" data-name="Path 114" d="M10.72-24.56,7.2-47.28a1.506,1.506,0,0,0-1.6-1.36H-20.64c-.88,0-.64-.08-1.2.56-.56.72-.48.48-.32,1.36L-18.56-24l3.52,22.72A1.506,1.506,0,0,0-13.44.08H12.8a1.6,1.6,0,0,0,1.6-1.6,1.6,1.6,0,0,0-1.6-1.6H-9.6l19.92-20c.64-.56.64-.4.48-1.28Zm-26.32-1.2-3.12-19.52H4.32L7.36-25.76Zm.48,3.2H5.36L-12.32-4.8Z" transform="translate(1040 224)"/>
    </g>
  </g>
</svg>
