<svg width="100%" viewBox="0 0 1120 400">
  <g id="font_2">
    <g id="bg" class="grid" transform="translate(-20 -20)">
      <path id="Path_1" data-name="Path 1" d="M16,0H120V120H0V16A16,16,0,0,1,16,0Z" transform="translate(40 40)" fill="#fff" stroke="#ddd" stroke-width="1"/>
      <rect id="Rectangle_22" data-name="Rectangle 22" width="120" height="120" transform="translate(40 160)" fill="#fff" stroke="#ddd" stroke-width="1"/>
      <path id="Rectangle_33" data-name="Rectangle 33" d="M0,0H120a0,0,0,0,1,0,0V120a0,0,0,0,1,0,0H16A16,16,0,0,1,0,104V0A0,0,0,0,1,0,0Z" transform="translate(40 280)" fill="#fff" stroke="#ddd" stroke-width="1"/>
      <rect id="Rectangle_2" data-name="Rectangle 2" width="120" height="120" transform="translate(160 40)" fill="#fff" stroke="#ddd" stroke-width="1"/>
      <rect id="Rectangle_20" data-name="Rectangle 20" width="120" height="120" transform="translate(160 160)" fill="#fff" stroke="#ddd" stroke-width="1"/>
      <rect id="Rectangle_31" data-name="Rectangle 31" width="120" height="120" transform="translate(160 280)" fill="#fff" stroke="#ddd" stroke-width="1"/>
      <rect id="Rectangle_3" data-name="Rectangle 3" width="120" height="120" transform="translate(160 40)" fill="#fff" stroke="#ddd" stroke-width="1"/>
      <rect id="Rectangle_21" data-name="Rectangle 21" width="120" height="120" transform="translate(160 160)" fill="#fff" stroke="#ddd" stroke-width="1"/>
      <rect id="Rectangle_32" data-name="Rectangle 32" width="120" height="120" transform="translate(160 280)" fill="#fff" stroke="#ddd" stroke-width="1"/>
      <rect id="Rectangle_4" data-name="Rectangle 4" width="120" height="120" transform="translate(280 40)" fill="#fff" stroke="#ddd" stroke-width="1"/>
      <rect id="Rectangle_19" data-name="Rectangle 19" width="120" height="120" transform="translate(280 160)" fill="#fff" stroke="#ddd" stroke-width="1"/>
      <rect id="Rectangle_30" data-name="Rectangle 30" width="120" height="120" transform="translate(280 280)" fill="#fff" stroke="#ddd" stroke-width="1"/>
      <rect id="Rectangle_5" data-name="Rectangle 5" width="120" height="120" transform="translate(400 40)" fill="#fff" stroke="#ddd" stroke-width="1"/>
      <rect id="Rectangle_18" data-name="Rectangle 18" width="120" height="120" transform="translate(400 160)" fill="#fff" stroke="#ddd" stroke-width="1"/>
      <rect id="Rectangle_29" data-name="Rectangle 29" width="120" height="120" transform="translate(400 280)" fill="#fff" stroke="#ddd" stroke-width="1"/>
      <rect id="Rectangle_6" data-name="Rectangle 6" width="120" height="120" transform="translate(520 40)" fill="#fff" stroke="#ddd" stroke-width="1"/>
      <rect id="Rectangle_13" data-name="Rectangle 13" width="120" height="120" transform="translate(520 160)" fill="#fff" stroke="#ddd" stroke-width="1"/>
      <rect id="Rectangle_24" data-name="Rectangle 24" width="120" height="120" transform="translate(520 280)" fill="#fff" stroke="#ddd" stroke-width="1"/>
      <rect id="Rectangle_7" data-name="Rectangle 7" width="120" height="120" transform="translate(640 40)" fill="#fff" stroke="#ddd" stroke-width="1"/>
      <rect id="Rectangle_14" data-name="Rectangle 14" width="120" height="120" transform="translate(640 160)" fill="#fff" stroke="#ddd" stroke-width="1"/>
      <rect id="Rectangle_25" data-name="Rectangle 25" width="120" height="120" transform="translate(640 280)" fill="#fff" stroke="#ddd" stroke-width="1"/>
      <rect id="Rectangle_8" data-name="Rectangle 8" width="120" height="120" transform="translate(760 40)" fill="#fff" stroke="#ddd" stroke-width="1"/>
      <rect id="Rectangle_15" data-name="Rectangle 15" width="120" height="120" transform="translate(760 160)" fill="#fff" stroke="#ddd" stroke-width="1"/>
      <rect id="Rectangle_26" data-name="Rectangle 26" width="120" height="120" transform="translate(760 280)" fill="#fff" stroke="#ddd" stroke-width="1"/>
      <rect id="Rectangle_9" data-name="Rectangle 9" width="120" height="120" transform="translate(880 40)" fill="#fff" stroke="#ddd" stroke-width="1"/>
      <rect id="Rectangle_16" data-name="Rectangle 16" width="120" height="120" transform="translate(880 160)" fill="#fff" stroke="#ddd" stroke-width="1"/>
      <rect id="Rectangle_27" data-name="Rectangle 27" width="120" height="120" transform="translate(880 280)" fill="#fff" stroke="#ddd" stroke-width="1"/>
      <path id="Rectangle_10" data-name="Rectangle 10" d="M0,0H104a16,16,0,0,1,16,16V120a0,0,0,0,1,0,0H0a0,0,0,0,1,0,0V0A0,0,0,0,1,0,0Z" transform="translate(1000 40)" fill="#fff" stroke="#ddd" stroke-width="1"/>
      <rect id="Rectangle_17" data-name="Rectangle 17" width="120" height="120" transform="translate(1000 160)" fill="#fff" stroke="#ddd" stroke-width="1"/>
      <path id="Rectangle_28" data-name="Rectangle 28" d="M0,0H120a0,0,0,0,1,0,0V104a16,16,0,0,1-16,16H0a0,0,0,0,1,0,0V0A0,0,0,0,1,0,0Z" transform="translate(1000 280)" fill="#fff" stroke="#ddd" stroke-width="1"/>
    </g>
    <g id="Group_1" class="glyphs" data-name="Group 1">
      <path id="Path_51" data-name="Path 51" d="M18-1.6V-15.2a1.6,1.6,0,0,0-1.6-1.6H4.4V-42.4A1.6,1.6,0,0,0,2.8-44H-10.8a1.6,1.6,0,0,0-1.6,1.6v25.6h-12A1.6,1.6,0,0,0-26-15.2V-1.6A1.6,1.6,0,0,0-24.4,0a1.6,1.6,0,0,0,1.6-1.6v-12H14.8v12A1.6,1.6,0,0,0,16.4,0,1.6,1.6,0,0,0,18-1.6ZM1.2-16.8H-9.2v-24H1.2v24Z" transform="translate(80 107)"/>
      <path id="Path_52" data-name="Path 52" d="M-19.2-15.2V-1.6A1.6,1.6,0,0,0-17.6,0H9.6a1.6,1.6,0,0,0,1.6-1.6V-42.4A1.6,1.6,0,0,0,9.6-44,1.6,1.6,0,0,0,8-42.4V-3.2H-16v-12a1.6,1.6,0,0,0-1.6-1.6A1.6,1.6,0,0,0-19.2-15.2Z" transform="translate(80 224)"/>
      <path id="Path_53" data-name="Path 53" d="M16.4-44H-10.8a1.6,1.6,0,0,0-1.6,1.6v13.6a1.6,1.6,0,0,0,1.6,1.6h12v12a1.6,1.6,0,0,0,1.6,1.6h12V-3.2H-22.8v-12a1.6,1.6,0,0,0-1.6-1.6A1.6,1.6,0,0,0-26-15.2V-1.6A1.6,1.6,0,0,0-24.4,0H16.4A1.6,1.6,0,0,0,18-1.6V-15.2a1.6,1.6,0,0,0-1.6-1.6H4.4v-12a1.6,1.6,0,0,0-1.6-1.6h-12V-40.8H16.4A1.6,1.6,0,0,0,18-42.4,1.6,1.6,0,0,0,16.4-44Z" transform="translate(80 341)"/>
      <path id="Path_48" data-name="Path 48" d="M4.4-27.2h12A1.6,1.6,0,0,0,18-28.8V-42.4A1.6,1.6,0,0,0,16.4-44H-24.4A1.6,1.6,0,0,0-26-42.4V-1.6A1.6,1.6,0,0,0-24.4,0H16.4A1.6,1.6,0,0,0,18-1.6V-15.2a1.6,1.6,0,0,0-1.6-1.6H4.4Zm-15.2,0h12v12a1.6,1.6,0,0,0,1.6,1.6h12V-3.2H-22.8V-40.8H14.8v10.4H-10.8a1.6,1.6,0,0,0-1.6,1.6A1.6,1.6,0,0,0-10.8-27.2Z" transform="translate(200 107)"/>
      <path id="Path_49" data-name="Path 49" d="M-26-42.4V-1.6A1.6,1.6,0,0,0-24.4,0a1.6,1.6,0,0,0,1.6-1.6v-12h12a1.6,1.6,0,0,0,1.6-1.6v-12h12a1.6,1.6,0,0,0,1.6-1.6v-12h12A1.6,1.6,0,0,0,18-42.4,1.6,1.6,0,0,0,16.4-44H2.8a1.6,1.6,0,0,0-1.6,1.6v12h-12a1.6,1.6,0,0,0-1.6,1.6v12H-22.8V-42.4A1.6,1.6,0,0,0-24.4-44,1.6,1.6,0,0,0-26-42.4Zm13.6,13.6v13.6a1.6,1.6,0,0,0,1.6,1.6h12v12A1.6,1.6,0,0,0,2.8,0H16.4A1.6,1.6,0,0,0,18-1.6a1.6,1.6,0,0,0-1.6-1.6H4.4v-12a1.6,1.6,0,0,0-1.6-1.6h-12v-12a1.6,1.6,0,0,0-1.6-1.6A1.6,1.6,0,0,0-12.4-28.8Z" transform="translate(200 224)"/>
      <path id="Path_50" data-name="Path 50" d="M-24.4-40.8H1.2V-1.6A1.6,1.6,0,0,0,2.8,0,1.6,1.6,0,0,0,4.4-1.6V-40.8h12A1.6,1.6,0,0,0,18-42.4,1.6,1.6,0,0,0,16.4-44H-24.4A1.6,1.6,0,0,0-26-42.4,1.6,1.6,0,0,0-24.4-40.8Z" transform="translate(200 341)"/>
      <path id="Path_29" data-name="Path 29" d="M14.8-15.2v12H-22.8V-40.8H14.8v12a1.6,1.6,0,0,0,1.6,1.6A1.6,1.6,0,0,0,18-28.8V-42.4A1.6,1.6,0,0,0,16.4-44H-24.4A1.6,1.6,0,0,0-26-42.4V-1.6A1.6,1.6,0,0,0-24.4,0H16.4A1.6,1.6,0,0,0,18-1.6V-15.2a1.6,1.6,0,0,0-1.6-1.6A1.6,1.6,0,0,0,14.8-15.2Z" transform="translate(320 107)"/>
      <path id="Path_30" data-name="Path 30" d="M-19.2-42.4V-1.6A1.6,1.6,0,0,0-17.6,0H9.6a1.6,1.6,0,0,0,1.6-1.6A1.6,1.6,0,0,0,9.6-3.2H-16V-42.4A1.6,1.6,0,0,0-17.6-44,1.6,1.6,0,0,0-19.2-42.4Z" transform="translate(320 224)"/>
      <path id="Path_31" data-name="Path 31" d="M14.8-42.4V-3.2H-22.8V-42.4A1.6,1.6,0,0,0-24.4-44,1.6,1.6,0,0,0-26-42.4V-1.6A1.6,1.6,0,0,0-24.4,0H16.4A1.6,1.6,0,0,0,18-1.6V-42.4A1.6,1.6,0,0,0,16.4-44,1.6,1.6,0,0,0,14.8-42.4Z" transform="translate(320 341)"/>
      <path id="Path_32" data-name="Path 32" d="M-24.4,0H16.4A1.6,1.6,0,0,0,18-1.6V-42.4A1.6,1.6,0,0,0,16.4-44H-24.4A1.6,1.6,0,0,0-26-42.4V-1.6A1.6,1.6,0,0,0-24.4,0Zm1.6-3.2V-40.8H14.8V-3.2H-22.8Z" transform="translate(440 107)"/>
      <path id="Path_33" data-name="Path 33" d="M-29.6-1.6V-27.2h10.4V-1.6A1.6,1.6,0,0,0-17.6,0H-4A1.6,1.6,0,0,0-2.4-1.6V-27.2h12a1.6,1.6,0,0,0,1.6-1.6v-12H21.6V-1.6A1.6,1.6,0,0,0,23.2,0a1.6,1.6,0,0,0,1.6-1.6V-42.4A1.6,1.6,0,0,0,23.2-44H9.6A1.6,1.6,0,0,0,8-42.4v12H-4a1.6,1.6,0,0,0-1.6,1.6V-3.2H-16V-28.8a1.6,1.6,0,0,0-1.6-1.6h-12v-12A1.6,1.6,0,0,0-31.2-44a1.6,1.6,0,0,0-1.6,1.6V-1.6A1.6,1.6,0,0,0-31.2,0,1.6,1.6,0,0,0-29.6-1.6Z" transform="translate(440 224)"/>
      <path id="Path_34" data-name="Path 34" d="M-26-42.4v13.6a1.6,1.6,0,0,0,1.6,1.6h12V-1.6A1.6,1.6,0,0,0-10.8,0H2.8A1.6,1.6,0,0,0,4.4-1.6V-27.2h12A1.6,1.6,0,0,0,18-28.8V-42.4A1.6,1.6,0,0,0,16.4-44a1.6,1.6,0,0,0-1.6,1.6v12H2.8a1.6,1.6,0,0,0-1.6,1.6V-3.2H-9.2V-28.8a1.6,1.6,0,0,0-1.6-1.6h-12v-12A1.6,1.6,0,0,0-24.4-44,1.6,1.6,0,0,0-26-42.4Z" transform="translate(440 341)"/>
      <path id="Path_35" data-name="Path 35" d="M9.6-3.2H-16v-24H-4a1.6,1.6,0,0,0,1.6-1.6A1.6,1.6,0,0,0-4-30.4H-16V-40.8H9.6a1.6,1.6,0,0,0,1.6-1.6A1.6,1.6,0,0,0,9.6-44H-17.6a1.6,1.6,0,0,0-1.6,1.6V-1.6A1.6,1.6,0,0,0-17.6,0H9.6a1.6,1.6,0,0,0,1.6-1.6A1.6,1.6,0,0,0,9.6-3.2Z" transform="translate(560 107)"/>
      <path id="Path_36" data-name="Path 36" d="M-22.8-1.6V-40.8h10.4v12a1.6,1.6,0,0,0,1.6,1.6h12V-1.6A1.6,1.6,0,0,0,2.8,0H16.4A1.6,1.6,0,0,0,18-1.6V-42.4A1.6,1.6,0,0,0,16.4-44a1.6,1.6,0,0,0-1.6,1.6V-3.2H4.4V-28.8a1.6,1.6,0,0,0-1.6-1.6h-12v-12A1.6,1.6,0,0,0-10.8-44H-24.4A1.6,1.6,0,0,0-26-42.4V-1.6A1.6,1.6,0,0,0-24.4,0,1.6,1.6,0,0,0-22.8-1.6Z" transform="translate(560 224)"/>
      <path id="Path_37" data-name="Path 37" d="M-39.6-42.4v13.6A1.6,1.6,0,0,0-38-27.2h12V-1.6A1.6,1.6,0,0,0-24.4,0h13.6A1.6,1.6,0,0,0-9.2-1.6V-40.8H1.2v25.6a1.6,1.6,0,0,0,1.6,1.6h12v12A1.6,1.6,0,0,0,16.4,0,1.6,1.6,0,0,0,18-1.6v-12H30a1.6,1.6,0,0,0,1.6-1.6V-42.4A1.6,1.6,0,0,0,30-44a1.6,1.6,0,0,0-1.6,1.6v25.6H4.4V-42.4A1.6,1.6,0,0,0,2.8-44H-10.8a1.6,1.6,0,0,0-1.6,1.6V-3.2H-22.8V-28.8a1.6,1.6,0,0,0-1.6-1.6h-12v-12A1.6,1.6,0,0,0-38-44,1.6,1.6,0,0,0-39.6-42.4Z" transform="translate(560 341)"/>
      <path id="Path_38" data-name="Path 38" d="M-16-1.6V-27.2H-4a1.6,1.6,0,0,0,1.6-1.6A1.6,1.6,0,0,0-4-30.4H-16V-40.8H9.6a1.6,1.6,0,0,0,1.6-1.6A1.6,1.6,0,0,0,9.6-44H-17.6a1.6,1.6,0,0,0-1.6,1.6V-1.6A1.6,1.6,0,0,0-17.6,0,1.6,1.6,0,0,0-16-1.6Z" transform="translate(680 107)"/>
      <path id="Path_39" data-name="Path 39" d="M-26-28.8V-1.6A1.6,1.6,0,0,0-24.4,0H16.4A1.6,1.6,0,0,0,18-1.6V-42.4A1.6,1.6,0,0,0,16.4-44H-24.4A1.6,1.6,0,0,0-26-42.4Zm3.2,0v-12H14.8V-3.2H-22.8V-28.8Z" transform="translate(680 224)"/>
      <path id="Path_40" data-name="Path 40" d="M-24.4-40.8h12v12a1.6,1.6,0,0,0,1.6,1.6h12v10.4h-12a1.6,1.6,0,0,0-1.6,1.6v12h-12A1.6,1.6,0,0,0-26-1.6,1.6,1.6,0,0,0-24.4,0h13.6A1.6,1.6,0,0,0-9.2-1.6v-12H1.2v12A1.6,1.6,0,0,0,2.8,0H16.4A1.6,1.6,0,0,0,18-1.6a1.6,1.6,0,0,0-1.6-1.6H4.4V-40.8h12A1.6,1.6,0,0,0,18-42.4,1.6,1.6,0,0,0,16.4-44H2.8a1.6,1.6,0,0,0-1.6,1.6v12H-9.2v-12A1.6,1.6,0,0,0-10.8-44H-24.4A1.6,1.6,0,0,0-26-42.4,1.6,1.6,0,0,0-24.4-40.8Z" transform="translate(680 341)"/>
      <path id="Path_41" data-name="Path 41" d="M2.8-13.6h12V-3.2H-22.8V-40.8H14.8v12a1.6,1.6,0,0,0,1.6,1.6A1.6,1.6,0,0,0,18-28.8V-42.4A1.6,1.6,0,0,0,16.4-44H-24.4A1.6,1.6,0,0,0-26-42.4V-1.6A1.6,1.6,0,0,0-24.4,0H16.4A1.6,1.6,0,0,0,18-1.6V-15.2a1.6,1.6,0,0,0-1.6-1.6H2.8a1.6,1.6,0,0,0-1.6,1.6A1.6,1.6,0,0,0,2.8-13.6Z" transform="translate(800 107)"/>
      <path id="Path_42" data-name="Path 42" d="M-22.8-13.6H2.8a1.6,1.6,0,0,0,1.6-1.6v-12h12A1.6,1.6,0,0,0,18-28.8V-42.4A1.6,1.6,0,0,0,16.4-44H-24.4A1.6,1.6,0,0,0-26-42.4V-1.6A1.6,1.6,0,0,0-24.4,0a1.6,1.6,0,0,0,1.6-1.6Zm0-3.2v-24H14.8v10.4H2.8a1.6,1.6,0,0,0-1.6,1.6v12h-24Z" transform="translate(800 224)"/>
      <path id="Path_43" data-name="Path 43" d="M-24.4-40.8h12v25.6a1.6,1.6,0,0,0,1.6,1.6h12v12A1.6,1.6,0,0,0,2.8,0,1.6,1.6,0,0,0,4.4-1.6V-40.8h12A1.6,1.6,0,0,0,18-42.4,1.6,1.6,0,0,0,16.4-44H2.8a1.6,1.6,0,0,0-1.6,1.6v25.6H-9.2V-42.4A1.6,1.6,0,0,0-10.8-44H-24.4A1.6,1.6,0,0,0-26-42.4,1.6,1.6,0,0,0-24.4-40.8Z" transform="translate(800 341)"/>
      <path id="Path_44" data-name="Path 44" d="M-24.4-27.2H16.4A1.6,1.6,0,0,0,18-28.8a1.6,1.6,0,0,0-1.6-1.6H-24.4A1.6,1.6,0,0,0-26-28.8,1.6,1.6,0,0,0-24.4-27.2ZM-26-42.4V-1.6A1.6,1.6,0,0,0-24.4,0a1.6,1.6,0,0,0,1.6-1.6V-42.4A1.6,1.6,0,0,0-24.4-44,1.6,1.6,0,0,0-26-42.4ZM18-1.6V-42.4A1.6,1.6,0,0,0,16.4-44a1.6,1.6,0,0,0-1.6,1.6V-1.6A1.6,1.6,0,0,0,16.4,0,1.6,1.6,0,0,0,18-1.6Z" transform="translate(920 107)"/>
      <path id="Path_45" data-name="Path 45" d="M-26-42.4v27.2a1.6,1.6,0,0,0,1.6,1.6H14.8v12A1.6,1.6,0,0,0,16.4,0,1.6,1.6,0,0,0,18-1.6V-56a1.6,1.6,0,0,0-1.6-1.6H-24.4A1.6,1.6,0,0,0-26-56Zm3.2,0v-12H14.8v37.6H4.4v-12a1.6,1.6,0,0,0-1.6-1.6,1.6,1.6,0,0,0-1.6,1.6v12h-24V-42.4Z" transform="translate(920 224)"/>
      <path id="Path_28" data-name="Path 28" d="M-24.4-40.8H1.2v24h-12a1.6,1.6,0,0,0-1.6,1.6v12h-12A1.6,1.6,0,0,0-26-1.6,1.6,1.6,0,0,0-24.4,0H16.4A1.6,1.6,0,0,0,18-1.6a1.6,1.6,0,0,0-1.6-1.6H-9.2V-13.6h12a1.6,1.6,0,0,0,1.6-1.6V-40.8h12A1.6,1.6,0,0,0,18-42.4,1.6,1.6,0,0,0,16.4-44H-24.4A1.6,1.6,0,0,0-26-42.4,1.6,1.6,0,0,0-24.4-40.8Z" transform="translate(920 341)"/>
      <path id="Path_46" data-name="Path 46" d="M-2.4-1.6V-42.4A1.6,1.6,0,0,0-4-44a1.6,1.6,0,0,0-1.6,1.6V-1.6A1.6,1.6,0,0,0-4,0,1.6,1.6,0,0,0-2.4-1.6Z" transform="translate(1040 107)"/>
      <path id="Path_47" data-name="Path 47" d="M-22.8-13.6h24v12A1.6,1.6,0,0,0,2.8,0H16.4A1.6,1.6,0,0,0,18-1.6a1.6,1.6,0,0,0-1.6-1.6H4.4v-24h12A1.6,1.6,0,0,0,18-28.8V-42.4A1.6,1.6,0,0,0,16.4-44H-24.4A1.6,1.6,0,0,0-26-42.4V-1.6A1.6,1.6,0,0,0-24.4,0a1.6,1.6,0,0,0,1.6-1.6Zm0-3.2v-24H14.8v10.4H2.8a1.6,1.6,0,0,0-1.6,1.6v12h-24Z" transform="translate(1040 224)"/>
    </g>
  </g>
</svg>
