<?xml version="1.0" encoding="utf-8"?>
<!-- Generator: Adobe Illustrator 22.1.0, SVG Export Plug-In . SVG Version: 6.00 Build 0)  -->
<svg version="1.1" id="Ebene_1" xmlns="http://www.w3.org/2000/svg" xmlns:xlink="http://www.w3.org/1999/xlink" x="0px" y="0px"
	 viewBox="0 0 1100 1400" style="enable-background:new 0 0 1100 1400;" xml:space="preserve">
<style type="text/css">
	.st0{fill:none;stroke-width:0.1;stroke-linecap:square;stroke-miterlimit:3.239;}
</style>
<desc>Created with Snap</desc>
<g vector-effect="non-scaling-stroke" transform="matrix(18,0,0,18,-2750,-3500)">
	<path class="st0" d="M5.8,708.4l-5.8-10l5.8-10h11.5l5.8,10l-5.8,10H5.8z"/>
	<path class="st0" d="M40.4,708.4l-5.8-10l5.8-10h11.5l5.8,10l-5.8,10H40.4z"/>
	<path class="st0" d="M75,708.4l-5.8-10l5.8-10h11.5l5.8,10l-5.8,10H75z"/>
	<path class="st0" d="M109.5,708.4l-5.8-10l5.8-10H121l5.8,10l-5.8,10H109.5z"/>
	<path class="st0" d="M144.1,209.6l-5.8-10l5.8-10h11.5l5.8,10l-5.8,10H144.1z"/>
	<path class="st0" d="M144.1,229.5l-5.8-10l5.8-10h11.5l5.8,10l-5.8,10H144.1z"/>
	<path class="st0" d="M144.1,249.5l-5.8-10l5.8-10h11.5l5.8,10l-5.8,10H144.1z"/>
	<path class="st0" d="M144.1,269.4l-5.8-10l5.8-10h11.5l5.8,10l-5.8,10H144.1z"/>
	<path class="st0" d="M144.1,289.4l-5.8-10l5.8-10h11.5l5.8,10l-5.8,10H144.1z"/>
	<path class="st0" d="M144.1,708.4l-5.8-10l5.8-10h11.5l5.8,10l-5.8,10H144.1z"/>
	<path class="st0" d="M161.4,199.6l-5.8-10l5.8-10h11.5l5.8,10l-5.8,10H161.4z"/>
	<path class="st0" d="M161.4,219.6l-5.8-10l5.8-10h11.5l5.8,10l-5.8,10H161.4z"/>
	<path class="st0" d="M161.4,239.5l-5.8-10l5.8-10h11.5l5.8,10l-5.8,10H161.4z"/>
	<path class="st0" d="M161.4,259.5l-5.8-10l5.8-10h11.5l5.8,10l-5.8,10H161.4z"/>
	<path class="st0" d="M161.4,279.4l-5.8-10l5.8-10h11.5l5.8,10l-5.8,10H161.4z"/>
	<path class="st0" d="M178.6,209.6l-5.8-10l5.8-10h11.5l5.8,10l-5.8,10H178.6z"/>
	<path class="st0" d="M178.6,229.5l-5.8-10l5.8-10h11.5l5.8,10l-5.8,10H178.6z"/>
	<path class="st0" d="M178.6,249.5l-5.8-10l5.8-10h11.5l5.8,10l-5.8,10H178.6z"/>
	<path class="st0" d="M178.6,269.4l-5.8-10l5.8-10h11.5l5.8,10l-5.8,10H178.6z"/>
	<path class="st0" d="M178.6,289.4l-5.8-10l5.8-10h11.5l5.8,10l-5.8,10H178.6z"/>
	<path class="st0" d="M178.6,708.4l-5.8-10l5.8-10h11.5l5.8,10l-5.8,10H178.6z"/>
	<path class="st0" d="M195.9,199.6l-5.8-10l5.8-10h11.5l5.8,10l-5.8,10H195.9z"/>
	<path class="st0" d="M195.9,219.6l-5.8-10l5.8-10h11.5l5.8,10l-5.8,10H195.9z"/>
	<path class="st0" d="M195.9,239.5l-5.8-10l5.8-10h11.5l5.8,10l-5.8,10H195.9z"/>
	<path class="st0" d="M195.9,259.5l-5.8-10l5.8-10h11.5l5.8,10l-5.8,10H195.9z"/>
	<path class="st0" d="M195.9,279.4l-5.8-10l5.8-10h11.5l5.8,10l-5.8,10H195.9z"/>
	<path class="st0" d="M213.2,209.6l-5.8-10l5.8-10h11.5l5.8,10l-5.8,10H213.2z"/>
	<path class="st0" d="M213.2,229.5l-5.8-10l5.8-10h11.5l5.8,10l-5.8,10H213.2z"/>
	<path class="st0" d="M213.2,249.5l-5.8-10l5.8-10h11.5l5.8,10l-5.8,10H213.2z"/>
	<path class="st0" d="M213.2,269.4l-5.8-10l5.8-10h11.5l5.8,10l-5.8,10H213.2z"/>
	<path class="st0" d="M213.2,289.4l-5.8-10l5.8-10h11.5l5.8,10l-5.8,10H213.2z"/>
	<path class="st0" d="M213.2,708.4l-5.8-10l5.8-10h11.5l5.8,10l-5.8,10H213.2z"/>
</g>
</svg>
