<?xml version="1.0" encoding="utf-8"?>
<!-- Generator: Adobe Illustrator 22.1.0, SVG Export Plug-In . SVG Version: 6.00 Build 0)  -->
<svg version="1.1" id="Ebene_1" xmlns="http://www.w3.org/2000/svg" xmlns:xlink="http://www.w3.org/1999/xlink" x="0px" y="0px"
	 viewBox="0 0 1100 1400" style="enable-background:new 0 0 1100 1400;" xml:space="preserve">
<style type="text/css">
	.st0{fill:none;stroke-width:0.1;stroke-linecap:square;stroke-miterlimit:3.239;}
</style>
<desc>Created with Snap</desc>
<g vector-effect="non-scaling-stroke" transform="matrix(18,0,0,18,-2750,-3500)">
	<path class="st0" d="M191.4,191.4h7.1v7.1h-7.1V191.4z"/>
	<path class="st0" d="M198.5,191.4h7.1v7.1h-7.1V191.4z"/>
	<path class="st0" d="M191.4,198.5h7.1v7.1h-7.1V198.5z"/>
	<path class="st0" d="M205.6,191.4h7.1v7.1h-7.1V191.4z"/>
	<path class="st0" d="M191.4,212.7h7.1v7.1h-7.1V212.7z"/>
	<path class="st0" d="M212.7,191.4h7.1v7.1h-7.1V191.4z"/>
	<path class="st0" d="M191.4,219.8h7.1v7.1h-7.1V219.8z"/>
	<path class="st0" d="M191.4,205.6h7.1v7.1h-7.1V205.6z"/>
	<path class="st0" d="M191.4,226.8h7.1v7.1h-7.1V226.8z"/>
	<path class="st0" d="M191.4,269.4h7.1v7.1h-7.1V269.4z"/>
	<path class="st0" d="M191.4,233.9h7.1v7.1h-7.1V233.9z"/>
	<path class="st0" d="M191.4,241h7.1v7.1h-7.1V241z"/>
	<path class="st0" d="M191.4,255.2h7.1v7.1h-7.1V255.2L191.4,255.2z"/>
	<path class="st0" d="M191.4,248.1h7.1v7.1h-7.1V248.1z"/>
	<path class="st0" d="M191.4,262.3h7.1v7.1h-7.1V262.3z"/>
	<path class="st0" d="M198.5,219.8h7.1v7.1h-7.1V219.8z"/>
	<path class="st0" d="M212.7,198.5h7.1v7.1h-7.1V198.5z"/>
	<path class="st0" d="M198.5,205.6h7.1v7.1h-7.1V205.6z"/>
	<path class="st0" d="M198.5,212.7h7.1v7.1h-7.1V212.7z"/>
	<path class="st0" d="M198.5,198.5h7.1v7.1h-7.1V198.5z"/>
	<path class="st0" d="M198.5,269.4h7.1v7.1h-7.1V269.4z"/>
	<path class="st0" d="M198.5,226.8h7.1v7.1h-7.1V226.8z"/>
	<path class="st0" d="M198.5,262.3h7.1v7.1h-7.1V262.3z"/>
	<path class="st0" d="M198.5,241h7.1v7.1h-7.1V241z"/>
	<path class="st0" d="M198.5,233.9h7.1v7.1h-7.1V233.9z"/>
	<path class="st0" d="M198.5,255.2h7.1v7.1h-7.1V255.2L198.5,255.2z"/>
	<path class="st0" d="M198.5,248.1h7.1v7.1h-7.1V248.1z"/>
	<path class="st0" d="M205.6,198.5h7.1v7.1h-7.1V198.5z"/>
	<path class="st0" d="M177.2,205.6h7.1v7.1h-7.1V205.6z"/>
	<path class="st0" d="M177.2,191.4h7.1v7.1h-7.1V191.4z"/>
	<path class="st0" d="M177.2,198.5h7.1v7.1h-7.1V198.5z"/>
	<path class="st0" d="M177.2,233.9h7.1v7.1h-7.1V233.9z"/>
	<path class="st0" d="M177.2,226.8h7.1v7.1h-7.1V226.8z"/>
	<path class="st0" d="M177.2,219.8h7.1v7.1h-7.1V219.8z"/>
	<path class="st0" d="M177.2,212.7h7.1v7.1h-7.1V212.7z"/>
	<path class="st0" d="M177.2,241h7.1v7.1h-7.1V241z"/>
	<path class="st0" d="M177.2,255.2h7.1v7.1h-7.1V255.2L177.2,255.2z"/>
	<path class="st0" d="M177.2,248.1h7.1v7.1h-7.1V248.1z"/>
	<path class="st0" d="M177.2,269.4h7.1v7.1h-7.1V269.4z"/>
	<path class="st0" d="M177.2,262.3h7.1v7.1h-7.1V262.3z"/>
	<path class="st0" d="M184.3,255.2h7.1v7.1h-7.1V255.2L184.3,255.2z"/>
	<path class="st0" d="M184.3,226.8h7.1v7.1h-7.1V226.8z"/>
	<path class="st0" d="M184.3,219.8h7.1v7.1h-7.1V219.8z"/>
	<path class="st0" d="M184.3,233.9h7.1v7.1h-7.1V233.9z"/>
	<path class="st0" d="M184.3,212.7h7.1v7.1h-7.1V212.7z"/>
	<path class="st0" d="M184.3,241h7.1v7.1h-7.1V241z"/>
	<path class="st0" d="M184.3,248.1h7.1v7.1h-7.1V248.1z"/>
	<path class="st0" d="M184.3,191.4h7.1v7.1h-7.1V191.4z"/>
	<path class="st0" d="M184.3,205.6h7.1v7.1h-7.1V205.6z"/>
	<path class="st0" d="M184.3,198.5h7.1v7.1h-7.1V198.5z"/>
	<path class="st0" d="M184.3,269.4h7.1v7.1h-7.1V269.4z"/>
	<path class="st0" d="M184.3,262.3h7.1v7.1h-7.1V262.3z"/>
	<path class="st0" d="M205.6,226.8h7.1v7.1h-7.1V226.8z"/>
	<path class="st0" d="M205.6,233.9h7.1v7.1h-7.1V233.9z"/>
	<path class="st0" d="M205.6,212.7h7.1v7.1h-7.1V212.7z"/>
	<path class="st0" d="M205.6,219.8h7.1v7.1h-7.1V219.8z"/>
	<path class="st0" d="M205.6,241h7.1v7.1h-7.1V241z"/>
	<path class="st0" d="M205.6,248.1h7.1v7.1h-7.1V248.1z"/>
	<path class="st0" d="M205.6,255.2h7.1v7.1h-7.1V255.2L205.6,255.2z"/>
	<path class="st0" d="M212.7,205.6h7.1v7.1h-7.1V205.6z"/>
	<path class="st0" d="M205.6,205.6h7.1v7.1h-7.1V205.6z"/>
	<path class="st0" d="M205.6,262.3h7.1v7.1h-7.1V262.3z"/>
	<path class="st0" d="M205.6,269.4h7.1v7.1h-7.1V269.4z"/>
	<path class="st0" d="M212.7,233.9h7.1v7.1h-7.1V233.9z"/>
	<path class="st0" d="M212.7,226.8h7.1v7.1h-7.1V226.8z"/>
	<path class="st0" d="M212.7,212.7h7.1v7.1h-7.1V212.7z"/>
	<path class="st0" d="M212.7,219.8h7.1v7.1h-7.1V219.8z"/>
	<path class="st0" d="M212.7,248.1h7.1v7.1h-7.1V248.1z"/>
	<path class="st0" d="M212.7,255.2h7.1v7.1h-7.1V255.2L212.7,255.2z"/>
	<path class="st0" d="M212.7,269.4h7.1v7.1h-7.1V269.4z"/>
	<path class="st0" d="M212.7,241h7.1v7.1h-7.1V241z"/>
	<path class="st0" d="M212.7,262.3h7.1v7.1h-7.1V262.3z"/>
	<path class="st0" d="M170.1,262.3h7.1v7.1h-7.1V262.3z"/>
	<path class="st0" d="M148.9,269.4h7.1v7.1h-7.1V269.4z"/>
	<path class="st0" d="M148.9,262.3h7.1v7.1h-7.1V262.3z"/>
	<path class="st0" d="M148.9,255.2h7.1v7.1h-7.1V255.2L148.9,255.2z"/>
	<path class="st0" d="M148.9,248.1h7.1v7.1h-7.1V248.1z"/>
	<path class="st0" d="M148.9,219.8h7.1v7.1h-7.1V219.8z"/>
	<path class="st0" d="M148.9,226.8h7.1v7.1h-7.1V226.8z"/>
	<path class="st0" d="M148.9,241h7.1v7.1h-7.1V241z"/>
	<path class="st0" d="M148.9,233.9h7.1v7.1h-7.1V233.9z"/>
	<path class="st0" d="M148.9,212.7h7.1v7.1h-7.1V212.7z"/>
	<path class="st0" d="M148.9,191.4h7.1v7.1h-7.1V191.4z"/>
	<path class="st0" d="M148.9,198.5h7.1v7.1h-7.1V198.5z"/>
	<path class="st0" d="M148.9,205.6h7.1v7.1h-7.1V205.6z"/>
	<path class="st0" d="M170.1,241h7.1v7.1h-7.1V241z"/>
	<path class="st0" d="M170.1,212.7h7.1v7.1h-7.1V212.7z"/>
	<path class="st0" d="M170.1,198.5h7.1v7.1h-7.1V198.5z"/>
	<path class="st0" d="M170.1,205.6h7.1v7.1h-7.1V205.6z"/>
	<path class="st0" d="M170.1,233.9h7.1v7.1h-7.1V233.9z"/>
	<path class="st0" d="M170.1,226.8h7.1v7.1h-7.1V226.8z"/>
	<path class="st0" d="M170.1,219.8h7.1v7.1h-7.1V219.8z"/>
	<path class="st0" d="M170.1,191.4h7.1v7.1h-7.1V191.4z"/>
	<path class="st0" d="M170.1,248.1h7.1v7.1h-7.1V248.1z"/>
	<path class="st0" d="M170.1,255.2h7.1v7.1h-7.1V255.2L170.1,255.2z"/>
	<path class="st0" d="M170.1,269.4h7.1v7.1h-7.1V269.4z"/>
	<path class="st0" d="M156,191.4h7.1v7.1H156V191.4z"/>
	<path class="st0" d="M156,248.1h7.1v7.1H156V248.1z"/>
	<path class="st0" d="M156,241h7.1v7.1H156V241z"/>
	<path class="st0" d="M156,233.9h7.1v7.1H156V233.9z"/>
	<path class="st0" d="M156,255.2h7.1v7.1H156V255.2L156,255.2z"/>
	<path class="st0" d="M156,262.3h7.1v7.1H156V262.3z"/>
	<path class="st0" d="M156,269.4h7.1v7.1H156V269.4z"/>
	<path class="st0" d="M156,219.8h7.1v7.1H156V219.8z"/>
	<path class="st0" d="M156,205.6h7.1v7.1H156V205.6z"/>
	<path class="st0" d="M156,198.5h7.1v7.1H156V198.5z"/>
	<path class="st0" d="M156,212.7h7.1v7.1H156V212.7z"/>
	<path class="st0" d="M156,226.8h7.1v7.1H156V226.8z"/>
	<path class="st0" d="M163.1,262.3h7.1v7.1h-7.1V262.3z"/>
	<path class="st0" d="M163.1,191.4h7.1v7.1h-7.1V191.4z"/>
	<path class="st0" d="M163.1,198.5h7.1v7.1h-7.1V198.5z"/>
	<path class="st0" d="M163.1,255.2h7.1v7.1h-7.1V255.2L163.1,255.2z"/>
	<path class="st0" d="M163.1,269.4h7.1v7.1h-7.1V269.4z"/>
	<path class="st0" d="M163.1,248.1h7.1v7.1h-7.1V248.1z"/>
	<path class="st0" d="M163.1,212.7h7.1v7.1h-7.1V212.7z"/>
	<path class="st0" d="M163.1,205.6h7.1v7.1h-7.1V205.6z"/>
	<path class="st0" d="M163.1,219.8h7.1v7.1h-7.1V219.8z"/>
	<path class="st0" d="M163.1,226.8h7.1v7.1h-7.1V226.8z"/>
	<path class="st0" d="M163.1,233.9h7.1v7.1h-7.1V233.9z"/>
	<path class="st0" d="M163.1,241h7.1v7.1h-7.1V241z"/>
</g>
</svg>
