<svg baseProfile="tiny" xmlns="http://www.w3.org/2000/svg">
	<path  d="M128.4,168h9.2v9.2h-9.2V168z"/>
	<path  d="M137.6,168h9.2v9.2h-9.2V168z"/>
	<path  d="M146.7,168h9.2v9.2h-9.2V168z"/>
	<path  d="M155.9,168h9.2v9.2h-9.2V168z"/>
	<path  d="M165.1,168h9.2v9.2h-9.2V168z"/>
	<path  d="M174.2,168h9.2v9.2h-9.2V168z"/>
	<path  d="M183.4,168h9.2v9.2h-9.2V168z"/>
	<path  d="M192.5,168h9.2v9.2h-9.2V168z"/>
	<path  d="M201.7,168h9.2v9.2h-9.2V168z"/>
	<path  d="M210.9,168h9.2v9.2h-9.2V168z"/>
	<path  d="M220,168h9.2v9.2H220V168z"/>
	<path  d="M229.2,168h9.2v9.2h-9.2V168z"/>
	<path  d="M238.3,168h9.2v9.2h-9.2V168z"/>
	<path  d="M137.6,177.2l-4.6,7.9l-4.6-7.9L137.6,177.2z"/>
	<path  d="M133,185.1h9.2v9.2H133V185.1z"/>
	<path  d="M133,194.3h9.2v9.2H133V194.3z"/>
	<path  d="M133,203.5h9.2v9.2H133V203.5z"/>
	<path  d="M137.6,177.2l4.6,7.9H133L137.6,177.2z"/>
	<path  d="M146.7,177.2l-4.6,7.9l-4.6-7.9L146.7,177.2z"/>
	<path  d="M142.2,185.1h9.2v9.2h-9.2V185.1z"/>
	<path  d="M142.2,194.3h9.2v9.2h-9.2V194.3z"/>
	<path  d="M142.2,203.5h9.2v9.2h-9.2V203.5z"/>
	<path  d="M146.7,177.2l4.6,7.9h-9.2L146.7,177.2L146.7,177.2z"/>
	<path  d="M155.9,177.2l-4.6,7.9l-4.6-7.9L155.9,177.2z"/>
	<path  d="M151.3,185.1h9.2v9.2h-9.2V185.1z"/>
	<path  d="M151.3,194.3h9.2v9.2h-9.2V194.3z"/>
	<path  d="M151.3,203.5h9.2v9.2h-9.2V203.5z"/>
	<path  d="M155.9,177.2l4.6,7.9h-9.2L155.9,177.2z"/>
	<path  d="M165.1,177.2l-4.6,7.9l-4.6-7.9L165.1,177.2z"/>
	<path  d="M160.5,185.1h9.2v9.2h-9.2V185.1z"/>
	<path  d="M160.5,194.3h9.2v9.2h-9.2V194.3z"/>
	<path  d="M160.5,203.5h9.2v9.2h-9.2V203.5z"/>
	<path  d="M165.1,177.2l4.6,7.9h-9.2L165.1,177.2z"/>
	<path  d="M174.2,177.2l-4.6,7.9l-4.6-7.9L174.2,177.2z"/>
	<path  d="M169.6,185.1h9.2v9.2h-9.2V185.1z"/>
	<path  d="M169.6,194.3h9.2v9.2h-9.2V194.3z"/>
	<path  d="M169.6,203.5h9.2v9.2h-9.2V203.5z"/>
	<path  d="M174.2,177.2l4.6,7.9h-9.2L174.2,177.2z"/>
	<path  d="M183.4,177.2l-4.6,7.9l-4.6-7.9L183.4,177.2z"/>
	<path  d="M178.8,185.1h9.2v9.2h-9.2V185.1z"/>
	<path  d="M178.8,194.3h9.2v9.2h-9.2V194.3z"/>
	<path  d="M178.8,203.5h9.2v9.2h-9.2V203.5z"/>
	<path  d="M183.4,177.2l4.6,7.9h-9.2L183.4,177.2z"/>
	<path  d="M192.5,177.2l-4.6,7.9l-4.6-7.9L192.5,177.2z"/>
	<path  d="M188,185.1h9.2v9.2H188V185.1z"/>
	<path  d="M188,194.3h9.2v9.2H188V194.3z"/>
	<path  d="M188,203.5h9.2v9.2H188V203.5z"/>
	<path  d="M192.5,177.2l4.6,7.9H188L192.5,177.2z"/>
	<path  d="M201.7,177.2l-4.6,7.9l-4.6-7.9L201.7,177.2z"/>
	<path  d="M197.1,185.1h9.2v9.2h-9.2V185.1z"/>
	<path  d="M197.1,194.3h9.2v9.2h-9.2V194.3z"/>
	<path  d="M197.1,203.5h9.2v9.2h-9.2V203.5z"/>
	<path  d="M201.7,177.2l4.6,7.9h-9.2L201.7,177.2z"/>
	<path  d="M210.9,177.2l-4.6,7.9l-4.6-7.9L210.9,177.2z"/>
	<path  d="M206.3,185.1h9.2v9.2h-9.2V185.1z"/>
	<path  d="M206.3,194.3h9.2v9.2h-9.2V194.3z"/>
	<path  d="M206.3,203.5h9.2v9.2h-9.2V203.5z"/>
	<path  d="M210.9,177.2l4.6,7.9h-9.2L210.9,177.2z"/>
	<path  d="M220,177.2l-4.6,7.9l-4.6-7.9L220,177.2z"/>
	<path  d="M215.4,185.1h9.2v9.2h-9.2V185.1z"/>
	<path  d="M215.4,194.3h9.2v9.2h-9.2V194.3z"/>
	<path  d="M215.4,203.5h9.2v9.2h-9.2V203.5z"/>
	<path  d="M220,177.2l4.6,7.9h-9.2L220,177.2z"/>
	<path  d="M229.2,177.2l-4.6,7.9l-4.6-7.9L229.2,177.2z"/>
	<path  d="M224.6,185.1h9.2v9.2h-9.2V185.1z"/>
	<path  d="M224.6,194.3h9.2v9.2h-9.2V194.3z"/>
	<path  d="M224.6,203.5h9.2v9.2h-9.2V203.5z"/>
	<path  d="M229.2,177.2l4.6,7.9h-9.2L229.2,177.2z"/>
	<path  d="M238.3,177.2l-4.6,7.9l-4.6-7.9L238.3,177.2z"/>
	<path  d="M233.8,185.1h9.2v9.2h-9.2V185.1z"/>
	<path  d="M233.8,194.3h9.2v9.2h-9.2V194.3z"/>
	<path  d="M233.8,203.5h9.2v9.2h-9.2V203.5z"/>
	<path  d="M238.3,177.2l4.6,7.9h-9.2L238.3,177.2z"/>
	<path  d="M247.5,177.2l-4.6,7.9l-4.6-7.9L247.5,177.2z"/>
	<path  d="M128.4,220.5h9.2v9.2h-9.2V220.5z"/>
	<path  d="M128.4,229.7h9.2v9.2h-9.2V229.7z"/>
	<path  d="M128.4,238.9h9.2v9.2h-9.2V238.9z"/>
	<path  d="M133,212.6l4.6,7.9h-9.2L133,212.6z"/>
	<path  d="M142.2,212.6l-4.6,7.9l-4.6-7.9L142.2,212.6z"/>
	<path  d="M137.6,220.5h9.2v9.2h-9.2V220.5z"/>
	<path  d="M137.6,229.7h9.2v9.2h-9.2V229.7z"/>
	<path  d="M137.6,238.9h9.2v9.2h-9.2V238.9z"/>
	<path  d="M142.2,212.6l4.6,7.9h-9.2L142.2,212.6z"/>
	<path  d="M151.3,212.6l-4.6,7.9l-4.6-7.9L151.3,212.6z"/>
	<path  d="M146.7,220.5h9.2v9.2h-9.2V220.5z"/>
	<path  d="M146.7,229.7h9.2v9.2h-9.2V229.7z"/>
	<path  d="M146.7,238.9h9.2v9.2h-9.2V238.9z"/>
	<path  d="M151.3,212.6l4.6,7.9h-9.2L151.3,212.6z"/>
	<path  d="M160.5,212.6l-4.6,7.9l-4.6-7.9L160.5,212.6z"/>
	<path  d="M155.9,220.5h9.2v9.2h-9.2V220.5z"/>
	<path  d="M155.9,229.7h9.2v9.2h-9.2V229.7z"/>
	<path  d="M155.9,238.9h9.2v9.2h-9.2V238.9z"/>
	<path  d="M160.5,212.6l4.6,7.9h-9.2L160.5,212.6L160.5,212.6z"/>
	<path  d="M169.6,212.6l-4.6,7.9l-4.6-7.9L169.6,212.6z"/>
	<path  d="M165.1,220.5h9.2v9.2h-9.2V220.5z"/>
	<path  d="M165.1,229.7h9.2v9.2h-9.2V229.7z"/>
	<path  d="M165.1,238.9h9.2v9.2h-9.2V238.9z"/>
	<path  d="M169.6,212.6l4.6,7.9h-9.2L169.6,212.6z"/>
	<path  d="M178.8,212.6l-4.6,7.9l-4.6-7.9L178.8,212.6z"/>
	<path  d="M174.2,220.5h9.2v9.2h-9.2V220.5z"/>
	<path  d="M174.2,229.7h9.2v9.2h-9.2V229.7z"/>
	<path  d="M174.2,238.9h9.2v9.2h-9.2V238.9z"/>
	<path  d="M178.8,212.6l4.6,7.9h-9.2L178.8,212.6z"/>
	<path  d="M188,212.6l-4.6,7.9l-4.6-7.9L188,212.6z"/>
	<path  d="M183.4,220.5h9.2v9.2h-9.2V220.5z"/>
	<path  d="M183.4,229.7h9.2v9.2h-9.2V229.7z"/>
	<path  d="M183.4,238.9h9.2v9.2h-9.2V238.9z"/>
	<path  d="M188,212.6l4.6,7.9h-9.2L188,212.6z"/>
	<path  d="M197.1,212.6l-4.6,7.9l-4.6-7.9L197.1,212.6z"/>
	<path  d="M192.5,220.5h9.2v9.2h-9.2V220.5z"/>
	<path  d="M192.5,229.7h9.2v9.2h-9.2V229.7z"/>
	<path  d="M192.5,238.9h9.2v9.2h-9.2V238.9z"/>
	<path  d="M197.1,212.6l4.6,7.9h-9.2L197.1,212.6z"/>
	<path  d="M206.3,212.6l-4.6,7.9l-4.6-7.9L206.3,212.6z"/>
	<path  d="M201.7,220.5h9.2v9.2h-9.2V220.5z"/>
	<path  d="M201.7,229.7h9.2v9.2h-9.2V229.7z"/>
	<path  d="M201.7,238.9h9.2v9.2h-9.2V238.9z"/>
	<path  d="M206.3,212.6l4.6,7.9h-9.2L206.3,212.6z"/>
	<path  d="M215.4,212.6l-4.6,7.9l-4.6-7.9L215.4,212.6z"/>
	<path  d="M210.9,220.5h9.2v9.2h-9.2V220.5z"/>
	<path  d="M210.9,229.7h9.2v9.2h-9.2V229.7z"/>
	<path  d="M210.9,238.9h9.2v9.2h-9.2V238.9z"/>
	<path  d="M215.4,212.6l4.6,7.9h-9.2L215.4,212.6z"/>
	<path  d="M224.6,212.6l-4.6,7.9l-4.6-7.9L224.6,212.6z"/>
	<path  d="M220,220.5h9.2v9.2H220V220.5z"/>
	<path  d="M220,229.7h9.2v9.2H220V229.7z"/>
	<path  d="M220,238.9h9.2v9.2H220V238.9z"/>
	<path  d="M224.6,212.6l4.6,7.9H220L224.6,212.6z"/>
	<path  d="M233.8,212.6l-4.6,7.9l-4.6-7.9L233.8,212.6z"/>
	<path  d="M229.2,220.5h9.2v9.2h-9.2V220.5z"/>
	<path  d="M229.2,229.7h9.2v9.2h-9.2V229.7z"/>
	<path  d="M229.2,238.9h9.2v9.2h-9.2V238.9z"/>
	<path  d="M233.8,212.6l4.6,7.9h-9.2L233.8,212.6z"/>
	<path  d="M242.9,212.6l-4.6,7.9l-4.6-7.9L242.9,212.6z"/>
	<path  d="M238.3,220.5h9.2v9.2h-9.2V220.5z"/>
	<path  d="M238.3,229.7h9.2v9.2h-9.2V229.7z"/>
	<path  d="M238.3,238.9h9.2v9.2h-9.2V238.9z"/>
	<path  d="M242.9,212.6l4.6,7.9h-9.2L242.9,212.6z"/>
	<path  d="M137.6,248L133,256l-4.6-7.9L137.6,248z"/>
	<path  d="M133,256h9.2v9.2H133V256L133,256z"/>
	<path  d="M133,265.1h9.2v9.2H133V265.1z"/>
	<path  d="M133,274.3h9.2v9.2H133V274.3z"/>
	<path  d="M137.6,248l4.6,7.9H133L137.6,248L137.6,248z"/>
	<path  d="M146.7,248l-4.6,7.9l-4.6-7.9L146.7,248z"/>
	<path  d="M142.2,256h9.2v9.2h-9.2V256L142.2,256z"/>
	<path  d="M142.2,265.1h9.2v9.2h-9.2V265.1z"/>
	<path  d="M142.2,274.3h9.2v9.2h-9.2V274.3z"/>
	<path  d="M146.7,248l4.6,7.9h-9.2L146.7,248z"/>
	<path  d="M155.9,248l-4.6,7.9l-4.6-7.9L155.9,248z"/>
	<path  d="M151.3,256h9.2v9.2h-9.2V256L151.3,256z"/>
	<path  d="M151.3,265.1h9.2v9.2h-9.2V265.1z"/>
	<path  d="M151.3,274.3h9.2v9.2h-9.2V274.3z"/>
	<path  d="M155.9,248l4.6,7.9h-9.2L155.9,248z"/>
	<path  d="M165.1,248l-4.6,7.9l-4.6-7.9L165.1,248z"/>
	<path  d="M160.5,256h9.2v9.2h-9.2V256L160.5,256z"/>
	<path  d="M160.5,265.1h9.2v9.2h-9.2V265.1z"/>
	<path  d="M160.5,274.3h9.2v9.2h-9.2V274.3z"/>
	<path  d="M165.1,248l4.6,7.9h-9.2L165.1,248z"/>
	<path  d="M174.2,248l-4.6,7.9l-4.6-7.9L174.2,248z"/>
	<path  d="M169.6,256h9.2v9.2h-9.2V256L169.6,256z"/>
	<path  d="M169.6,265.1h9.2v9.2h-9.2V265.1z"/>
	<path  d="M169.6,274.3h9.2v9.2h-9.2V274.3z"/>
	<path  d="M174.2,248l4.6,7.9h-9.2L174.2,248z"/>
	<path  d="M183.4,248l-4.6,7.9l-4.6-7.9L183.4,248z"/>
	<path  d="M178.8,256h9.2v9.2h-9.2V256L178.8,256z"/>
	<path  d="M178.8,265.1h9.2v9.2h-9.2V265.1z"/>
	<path  d="M178.8,274.3h9.2v9.2h-9.2V274.3z"/>
	<path  d="M183.4,248l4.6,7.9h-9.2L183.4,248z"/>
	<path  d="M192.5,248L188,256l-4.6-7.9L192.5,248z"/>
	<path  d="M188,256h9.2v9.2H188V256L188,256z"/>
	<path  d="M188,265.1h9.2v9.2H188V265.1z"/>
	<path  d="M188,274.3h9.2v9.2H188V274.3z"/>
	<path  d="M192.5,248l4.6,7.9H188L192.5,248z"/>
	<path  d="M201.7,248l-4.6,7.9l-4.6-7.9L201.7,248z"/>
	<path  d="M197.1,256h9.2v9.2h-9.2V256L197.1,256z"/>
	<path  d="M197.1,265.1h9.2v9.2h-9.2V265.1z"/>
	<path  d="M197.1,274.3h9.2v9.2h-9.2V274.3z"/>
	<path  d="M201.7,248l4.6,7.9h-9.2L201.7,248z"/>
	<path  d="M210.9,248l-4.6,7.9l-4.6-7.9L210.9,248z"/>
	<path  d="M206.3,256h9.2v9.2h-9.2V256L206.3,256z"/>
	<path  d="M206.3,265.1h9.2v9.2h-9.2V265.1z"/>
	<path  d="M206.3,274.3h9.2v9.2h-9.2V274.3z"/>
	<path  d="M210.9,248l4.6,7.9h-9.2L210.9,248z"/>
	<path  d="M220,248l-4.6,7.9l-4.6-7.9L220,248z"/>
	<path  d="M215.4,256h9.2v9.2h-9.2V256L215.4,256z"/>
	<path  d="M215.4,265.1h9.2v9.2h-9.2V265.1z"/>
	<path  d="M215.4,274.3h9.2v9.2h-9.2V274.3z"/>
	<path  d="M220,248l4.6,7.9h-9.2L220,248z"/>
	<path  d="M229.2,248l-4.6,7.9L220,248L229.2,248z"/>
	<path  d="M224.6,256h9.2v9.2h-9.2V256L224.6,256z"/>
	<path  d="M224.6,265.1h9.2v9.2h-9.2V265.1z"/>
	<path  d="M224.6,274.3h9.2v9.2h-9.2V274.3z"/>
	<path  d="M229.2,248l4.6,7.9h-9.2L229.2,248z"/>
	<path  d="M238.3,248l-4.6,7.9l-4.6-7.9L238.3,248z"/>
	<path  d="M233.8,256h9.2v9.2h-9.2V256L233.8,256z"/>
	<path  d="M233.8,265.1h9.2v9.2h-9.2V265.1z"/>
	<path  d="M233.8,274.3h9.2v9.2h-9.2V274.3z"/>
	<path  d="M238.3,248l4.6,7.9h-9.2L238.3,248z"/>
	<path  d="M247.5,248l-4.6,7.9l-4.6-7.9L247.5,248z"/>
	<path  d="M128.4,291.4h9.2v9.2h-9.2V291.4z"/>
	<path  d="M133,283.4l4.6,7.9h-9.2L133,283.4z"/>
	<path  d="M142.2,283.4l-4.6,7.9l-4.6-7.9L142.2,283.4L142.2,283.4z"/>
	<path  d="M137.6,291.4h9.2v9.2h-9.2V291.4z"/>
	<path  d="M142.2,283.4l4.6,7.9h-9.2L142.2,283.4z"/>
	<path  d="M151.3,283.4l-4.6,7.9l-4.6-7.9L151.3,283.4L151.3,283.4z"/>
	<path  d="M146.7,291.4h9.2v9.2h-9.2V291.4z"/>
	<path  d="M151.3,283.4l4.6,7.9h-9.2L151.3,283.4z"/>
	<path  d="M160.5,283.4l-4.6,7.9l-4.6-7.9L160.5,283.4L160.5,283.4z"/>
	<path  d="M155.9,291.4h9.2v9.2h-9.2V291.4z"/>
	<path  d="M160.5,283.4l4.6,7.9h-9.2L160.5,283.4z"/>
	<path  d="M169.6,283.4l-4.6,7.9l-4.6-7.9L169.6,283.4L169.6,283.4z"/>
	<path  d="M165.1,291.4h9.2v9.2h-9.2V291.4z"/>
	<path  d="M169.6,283.4l4.6,7.9h-9.2L169.6,283.4z"/>
	<path  d="M178.8,283.4l-4.6,7.9l-4.6-7.9L178.8,283.4L178.8,283.4z"/>
	<path  d="M174.2,291.4h9.2v9.2h-9.2V291.4z"/>
	<path  d="M178.8,283.4l4.6,7.9h-9.2L178.8,283.4z"/>
	<path  d="M187.9,283.4l-4.6,7.9l-4.6-7.9L187.9,283.4L187.9,283.4z"/>
	<path  d="M183.4,291.4h9.2v9.2h-9.2V291.4z"/>
	<path  d="M187.9,283.4l4.6,7.9h-9.2L187.9,283.4z"/>
	<path  d="M197.1,283.4l-4.6,7.9l-4.6-7.9L197.1,283.4L197.1,283.4z"/>
	<path  d="M192.5,291.4h9.2v9.2h-9.2V291.4z"/>
	<path  d="M197.1,283.4l4.6,7.9h-9.2L197.1,283.4z"/>
	<path  d="M206.3,283.4l-4.6,7.9l-4.6-7.9L206.3,283.4L206.3,283.4z"/>
	<path  d="M201.7,291.4h9.2v9.2h-9.2V291.4z"/>
	<path  d="M206.3,283.4l4.6,7.9h-9.2L206.3,283.4z"/>
	<path  d="M215.4,283.4l-4.6,7.9l-4.6-7.9L215.4,283.4L215.4,283.4z"/>
	<path  d="M210.9,291.4h9.2v9.2h-9.2V291.4z"/>
	<path  d="M215.4,283.4l4.6,7.9h-9.2L215.4,283.4z"/>
	<path  d="M224.6,283.4l-4.6,7.9l-4.6-7.9L224.6,283.4L224.6,283.4z"/>
	<path  d="M220,291.4h9.2v9.2H220V291.4z"/>
	<path  d="M224.6,283.4l4.6,7.9H220L224.6,283.4z"/>
	<path  d="M233.7,283.4l-4.6,7.9l-4.6-7.9L233.7,283.4L233.7,283.4z"/>
	<path  d="M229.2,291.4h9.2v9.2h-9.2V291.4z"/>
	<path  d="M233.8,283.4l4.6,7.9h-9.2L233.8,283.4z"/>
	<path  d="M242.9,283.4l-4.6,7.9l-4.6-7.9L242.9,283.4L242.9,283.4z"/>
	<path  d="M238.3,291.4h9.2v9.2h-9.2V291.4z"/>
	<path  d="M242.9,283.4l4.6,7.9h-9.2L242.9,283.4z"/>
</svg>
