<?xml version="1.0" encoding="utf-8"?>
<!-- Generator: Adobe Illustrator 22.1.0, SVG Export Plug-In . SVG Version: 6.00 Build 0)  -->
<svg version="1.1" id="Ebene_1" xmlns="http://www.w3.org/2000/svg" xmlns:xlink="http://www.w3.org/1999/xlink" x="0px" y="0px"
	 viewBox="0 0 1100 1400" style="enable-background:new 0 0 1100 1400;" xml:space="preserve">
<style type="text/css">
	.st0{fill:none;stroke-width:0.1;stroke-linecap:square;stroke-miterlimit:3.239;}
</style>
<desc>Created with Snap</desc>
<g vector-effect="non-scaling-stroke" transform="matrix(18,0,0,18,-2750,-3500)">
	<path class="st0" d="M173.2,202.9l2.1-13.5l13.5,13.5H173.2z"/>
	<path class="st0" d="M188.8,202.9l-13.5-13.5h15.6L188.8,202.9z"/>
	<path class="st0" d="M188.8,202.9l2.1-13.5l13.5,13.5H188.8z"/>
	<path class="st0" d="M204.4,202.9l-13.5-13.5h15.6L204.4,202.9z"/>
	<path class="st0" d="M204.4,202.9l2.1-13.5l15.6,13.5H204.4z"/>
	<path class="st0" d="M222.1,202.9l-15.6-13.5h17L222.1,202.9z"/>
	<path class="st0" d="M157.6,202.9l2.1-13.5l13.5,13.5H157.6z"/>
	<path class="st0" d="M173.2,202.9l-13.5-13.5h15.6L173.2,202.9z"/>
	<path class="st0" d="M173.2,202.9l2.1,13.5l13.5-13.5H173.2z"/>
	<path class="st0" d="M188.8,202.9l-13.5,13.5h15.6L188.8,202.9z"/>
	<path class="st0" d="M175.3,216.4l2.1,13.5l13.5-13.5H175.3L175.3,216.4z"/>
	<path class="st0" d="M190.9,216.4l-13.5,13.5H193L190.9,216.4L190.9,216.4z"/>
	<path class="st0" d="M177.4,229.9l2.1,13.5l13.5-13.5H177.4z"/>
	<path class="st0" d="M193,229.9l-13.5,13.5h15.6L193,229.9L193,229.9z"/>
	<path class="st0" d="M179.5,243.4l2.1,13.5l13.5-13.5H179.5L179.5,243.4z"/>
	<path class="st0" d="M195.1,243.4L181.6,257h15.6L195.1,243.4z"/>
	<path class="st0" d="M181.6,257l2.1,13.5l13.5-13.5H181.6z"/>
	<path class="st0" d="M197.2,257l-13.5,13.5h15.6L197.2,257z"/>
	<path class="st0" d="M183.7,270.5l2.1,13.5l13.5-13.5H183.7L183.7,270.5z"/>
	<path class="st0" d="M199.3,270.5L185.8,284h15.6L199.3,270.5z"/>
	<path class="st0" d="M188.8,202.9l2.1,13.5l13.5-13.5H188.8z"/>
	<path class="st0" d="M204.4,202.9l-13.5,13.5h15.6L204.4,202.9z"/>
	<path class="st0" d="M190.9,216.4l2.1,13.5l13.5-13.5H190.9L190.9,216.4z"/>
	<path class="st0" d="M206.5,216.4L193,229.9h15.6L206.5,216.4z"/>
	<path class="st0" d="M193,229.9l2.1,13.5l13.5-13.5H193z"/>
	<path class="st0" d="M208.6,229.9l-13.5,13.5h15.6L208.6,229.9z"/>
	<path class="st0" d="M195.1,243.4l2.1,13.5l13.5-13.5L195.1,243.4L195.1,243.4z"/>
	<path class="st0" d="M210.7,243.4L197.2,257h15.6L210.7,243.4L210.7,243.4z"/>
	<path class="st0" d="M197.2,257l2.1,13.5l13.5-13.5H197.2L197.2,257z"/>
	<path class="st0" d="M212.8,257l-13.5,13.5l15.6,0L212.8,257L212.8,257z"/>
	<path class="st0" d="M199.3,270.5l2.1,13.5l13.5-13.5H199.3z"/>
	<path class="st0" d="M214.9,270.5L201.5,284h15.6L214.9,270.5z"/>
	<path class="st0" d="M204.4,202.9l2.1,13.5l15.6-13.5H204.4z"/>
	<path class="st0" d="M222.1,202.9l-15.6,13.5h17L222.1,202.9z"/>
	<path class="st0" d="M206.5,216.4l2.1,13.5l14.9-13.5H206.5z"/>
	<path class="st0" d="M223.5,216.4l-14.9,13.5h16.3L223.5,216.4z"/>
	<path class="st0" d="M208.6,229.9l2.1,13.5l14.2-13.5H208.6z"/>
	<path class="st0" d="M224.9,229.9l-14.2,13.5h15.6L224.9,229.9z"/>
	<path class="st0" d="M210.7,243.4l2.1,13.5l13.5-13.5H210.7L210.7,243.4z"/>
	<path class="st0" d="M226.3,243.4L212.8,257h14.9L226.3,243.4L226.3,243.4z"/>
	<path class="st0" d="M212.8,257l2.1,13.5l12.8-13.5H212.8z"/>
	<path class="st0" d="M227.7,257l-12.8,13.5l14.2,0L227.7,257z"/>
	<path class="st0" d="M214.9,270.5l2.1,13.5l12.1-13.5H214.9z"/>
	<path class="st0" d="M229.1,270.5L217.1,284h13.5L229.1,270.5L229.1,270.5z"/>
	<path class="st0" d="M163.9,243.4L166,257l13.5-13.5H163.9z"/>
	<path class="st0" d="M179.5,243.4L166,257h15.6L179.5,243.4z"/>
	<path class="st0" d="M166,257l2.1,13.5l13.5-13.5H166L166,257z"/>
	<path class="st0" d="M181.6,257l-13.5,13.5h15.6L181.6,257z"/>
	<path class="st0" d="M168.1,270.5l2.1,13.5l13.5-13.5H168.1z"/>
	<path class="st0" d="M183.7,270.5L170.2,284h15.6L183.7,270.5L183.7,270.5z"/>
	<path class="st0" d="M157.6,202.9l2.1,13.5l13.5-13.5H157.6z"/>
	<path class="st0" d="M173.2,202.9l-13.5,13.5h15.6L173.2,202.9z"/>
	<path class="st0" d="M159.7,216.4l2.1,13.5l13.5-13.5H159.7L159.7,216.4z"/>
	<path class="st0" d="M175.3,216.4l-13.5,13.5h15.6L175.3,216.4L175.3,216.4z"/>
	<path class="st0" d="M161.8,229.9l2.1,13.5l13.5-13.5H161.8z"/>
	<path class="st0" d="M177.4,229.9l-13.5,13.5h15.6L177.4,229.9L177.4,229.9z"/>
	<path class="st0" d="M139.1,202.9l3.1-13.5l15.4,13.5H139.1z"/>
	<path class="st0" d="M157.6,202.9l-15.4-13.5h17.5L157.6,202.9z"/>
	<path class="st0" d="M151.3,257l-10.7,13.5h13.7L151.3,257z"/>
	<path class="st0" d="M140.7,270.5l4,13.5l9.7-13.5H140.7z"/>
	<path class="st0" d="M154.4,270.5l-9.7,13.5l12.8,0L154.4,270.5z"/>
	<path class="st0" d="M139.1,202.9l3.1,13.5l15.4-13.5H139.1z"/>
	<path class="st0" d="M157.6,202.9l-15.4,13.5h17.5L157.6,202.9z"/>
	<path class="st0" d="M142.2,216.4l3.1,13.5l14.4-13.5H142.2z"/>
	<path class="st0" d="M159.7,216.4l-14.4,13.5h16.6L159.7,216.4L159.7,216.4z"/>
	<path class="st0" d="M145.2,229.9l3.1,13.5l13.5-13.5H145.2z"/>
	<path class="st0" d="M161.8,229.9l-13.5,13.5h15.6L161.8,229.9L161.8,229.9z"/>
	<path class="st0" d="M148.3,243.4l3.1,13.5l12.6-13.5H148.3z"/>
	<path class="st0" d="M163.9,243.4L151.3,257l14.7,0L163.9,243.4z"/>
	<path class="st0" d="M151.3,257l3.1,13.5L166,257H151.3z"/>
	<path class="st0" d="M166,257l-11.6,13.5h13.7L166,257L166,257z"/>
	<path class="st0" d="M154.4,270.5l3.1,13.5l10.7-13.5H154.4z"/>
	<path class="st0" d="M168.1,270.5L157.5,284l12.8,0L168.1,270.5z"/>
</g>
</svg>
